<svg width="215" height="217" viewBox="0 0 215 217" fill="none" xmlns="http://www.w3.org/2000/svg">
<g filter="url(#filter0_bdd_502_4004)">
<rect width="133.777" height="133.777" transform="translate(40.8281 10.3943)" fill="#0069A3"/>
<path d="M107.616 44.2675L76.2021 55.2001L81.1665 95.9037L107.649 110.298L134.269 95.7086L139.232 55.0065L107.616 44.2675Z" fill="#BDBDBD"/>
<path d="M135.957 57.0639L107.717 47.4714V106.839L131.476 93.8162L135.957 57.0639Z" fill="#B71C1C"/>
<path d="M107.629 47.4414L79.4756 57.2395L83.9582 94.0053L107.644 106.878L107.717 106.839V47.4714L107.629 47.4414Z" fill="#DD2C00"/>
<path d="M107.717 50.2642V64.5329L120.59 92.2899H127.206L107.717 50.2642Z" fill="#BDBDBD"/>
<path d="M88.2275 92.2899H94.8442L107.717 64.5329V50.2642L88.2275 92.2899Z" fill="#EEEEEE"/>
<path d="M107.717 77.283H116.721V83.2858H107.717V77.283Z" fill="#BDBDBD"/>
<path d="M98.7129 77.283H107.717V83.2858H98.7129V77.283Z" fill="#EEEEEE"/>
</g>
<defs>
<filter id="filter0_bdd_502_4004" x="0.828125" y="-21.6057" width="213.777" height="237.777" filterUnits="userSpaceOnUse" color-interpolation-filters="sRGB">
<feFlood flood-opacity="0" result="BackgroundImageFix"/>
<feGaussianBlur in="BackgroundImageFix" stdDeviation="16"/>
<feComposite in2="SourceAlpha" operator="in" result="effect1_backgroundBlur_502_4004"/>
<feColorMatrix in="SourceAlpha" type="matrix" values="0 0 0 0 0 0 0 0 0 0 0 0 0 0 0 0 0 0 127 0" result="hardAlpha"/>
<feMorphology radius="8" operator="erode" in="SourceAlpha" result="effect2_dropShadow_502_4004"/>
<feOffset dy="32"/>
<feGaussianBlur stdDeviation="24"/>
<feComposite in2="hardAlpha" operator="out"/>
<feColorMatrix type="matrix" values="0 0 0 0 0 0 0 0 0 0 0 0 0 0 0 0 0 0 0.1 0"/>
<feBlend mode="multiply" in2="effect1_backgroundBlur_502_4004" result="effect2_dropShadow_502_4004"/>
<feColorMatrix in="SourceAlpha" type="matrix" values="0 0 0 0 0 0 0 0 0 0 0 0 0 0 0 0 0 0 127 0" result="hardAlpha"/>
<feMorphology radius="4" operator="erode" in="SourceAlpha" result="effect3_dropShadow_502_4004"/>
<feOffset/>
<feGaussianBlur stdDeviation="7"/>
<feComposite in2="hardAlpha" operator="out"/>
<feColorMatrix type="matrix" values="0 0 0 0 0 0 0 0 0 0 0 0 0 0 0 0 0 0 0.05 0"/>
<feBlend mode="multiply" in2="effect2_dropShadow_502_4004" result="effect3_dropShadow_502_4004"/>
<feBlend mode="normal" in="SourceGraphic" in2="effect3_dropShadow_502_4004" result="shape"/>
</filter>
</defs>
</svg>
