<svg width="133" height="133" viewBox="0 0 133 133" fill="none" xmlns="http://www.w3.org/2000/svg">
<rect width="132" height="132" transform="translate(0.570312 0.394531)" fill="#0069A3"/>
<path d="M66.4696 33.8184L35.4727 44.6058L40.371 84.7687L66.5022 98.9722L92.7681 84.5762L97.665 44.4147L66.4696 33.8184Z" fill="#BDBDBD"/>
<path d="M94.4354 46.4446L66.5703 36.9795V95.5587L90.0138 82.7086L94.4354 46.4446Z" fill="#B71C1C"/>
<path d="M66.4824 36.9502L38.7031 46.6181L43.1262 82.8955L66.4972 95.5976L66.5697 95.5591V36.9798L66.4824 36.9502Z" fill="#DD2C00"/>
<path d="M66.5703 39.7354V53.8145L79.2724 81.2028H85.8011L66.5703 39.7354Z" fill="#BDBDBD"/>
<path d="M47.3398 81.2028H53.8686L66.5706 53.8145V39.7354L47.3398 81.2028Z" fill="#EEEEEE"/>
<path d="M66.5703 66.3945H75.4549V72.3176H66.5703V66.3945Z" fill="#BDBDBD"/>
<path d="M57.6855 66.3945H66.5702V72.3176H57.6855V66.3945Z" fill="#EEEEEE"/>
</svg>
