<svg width="215" height="217" viewBox="0 0 215 217" fill="none" xmlns="http://www.w3.org/2000/svg">
<g filter="url(#filter0_bdd_502_4035)">
<rect width="133.777" height="133.777" transform="translate(40.3945 10.3943)" fill="#26262E"/>
<g clip-path="url(#clip0_502_4035)">
<path d="M96.0643 69.2304L87.9639 73.7123C87.6602 73.879 87.4736 74.1894 87.4736 74.5245V83.4931C87.4736 83.8282 87.6602 84.1369 87.9639 84.3053L96.0659 88.7905C96.368 88.9572 96.7427 88.9572 97.0448 88.7905L105.145 84.3053C105.446 84.1369 105.632 83.8282 105.632 83.4931V74.5245C105.632 74.1894 105.446 73.8807 105.142 73.7123L97.0432 69.2304C96.8913 69.1463 96.7213 69.105 96.5529 69.105C96.3829 69.105 96.2145 69.1463 96.0626 69.2304H96.0643ZM137.741 77.3044L136.391 78.0505C136.34 78.0786 136.31 78.1298 136.31 78.1859V79.6815C136.31 79.7376 136.342 79.7888 136.391 79.8169L137.741 80.5647C137.793 80.5927 137.854 80.5927 137.905 80.5647L139.255 79.8169C139.305 79.7888 139.336 79.7376 139.336 79.6815V78.1859C139.336 78.1298 139.305 78.0786 139.254 78.0505L137.903 77.3044C137.878 77.2895 137.85 77.2829 137.822 77.2829C137.794 77.2829 137.766 77.2895 137.741 77.3044Z" fill="#388E3C"/>
<path d="M126.681 59.7253L122.737 57.5248C122.614 57.4555 122.462 57.4571 122.34 57.5297C122.217 57.6024 122.141 57.7328 122.141 57.8748L122.14 71.1668L118.503 69.1545C118.351 69.0703 118.181 69.029 118.013 69.029C117.844 69.029 117.674 69.0703 117.523 69.1545H117.524L109.424 73.6364C109.12 73.8031 108.934 74.1134 108.934 74.4469V83.4156C108.934 83.7507 109.12 84.0594 109.424 84.2277L117.526 88.7129C117.828 88.8796 118.203 88.8796 118.505 88.7129L126.605 84.2277C126.906 84.061 127.092 83.7507 127.092 83.4156V60.4252C127.092 60.1347 126.934 59.8672 126.681 59.7253ZM121.919 81.3405L118.237 83.3792C118.1 83.4552 117.93 83.4552 117.793 83.3792L114.11 81.3405C113.97 81.2646 113.886 81.1226 113.886 80.9708V76.8933C113.886 76.7415 113.97 76.6012 114.109 76.5236L117.792 74.4865H117.79C117.859 74.4485 117.935 74.4304 118.013 74.4304C118.09 74.4304 118.166 74.4502 118.236 74.4865L121.917 76.5236C122.056 76.6012 122.14 76.7431 122.14 76.895V80.9724C122.14 81.1226 122.056 81.2646 121.919 81.3405Z" fill="white"/>
<path d="M96.0643 69.2304L87.4736 83.4931C87.4736 83.8282 87.6602 84.1369 87.9639 84.3053L96.0659 88.7905C96.368 88.9572 96.7427 88.9572 97.0448 88.7905L105.632 74.5245C105.632 74.1894 105.446 73.8807 105.142 73.7123L97.0432 69.2304C96.8913 69.1463 96.7213 69.105 96.5529 69.105C96.3829 69.105 96.2145 69.1463 96.0626 69.2304" fill="#2E7D32"/>
<path d="M96.0643 69.2304L87.9639 73.7123C87.6602 73.879 87.4736 74.1894 87.4736 74.5245L96.0643 88.7905C96.3664 88.9572 96.7411 88.9572 97.0432 88.7905L105.144 84.3053C105.446 84.1369 105.632 83.8282 105.632 83.4931L97.0432 69.2304C96.8913 69.1463 96.7213 69.105 96.5529 69.105C96.3829 69.105 96.2145 69.1463 96.0626 69.2304" fill="#4CAF50"/>
<path d="M146.411 73.6364L138.312 69.1545C138.16 69.0703 137.99 69.0291 137.822 69.0291C137.654 69.0291 137.484 69.0703 137.332 69.1545H137.333L129.233 73.6364C128.931 73.8031 128.743 74.12 128.743 74.4667V83.3991C128.743 83.7441 128.931 84.0627 129.233 84.2294L137.335 88.7146C137.639 88.8829 138.01 88.8829 138.314 88.7146L142.05 86.6461C142.391 86.4563 142.39 85.966 142.046 85.7778L133.918 81.3422C133.781 81.2646 133.695 81.121 133.695 80.9658V76.895C133.695 76.7431 133.778 76.6028 133.91 76.5302L137.599 74.4898H137.598C137.667 74.4519 137.743 74.4337 137.82 74.4337C137.898 74.4337 137.974 74.4535 138.043 74.4898L141.733 76.5318C141.865 76.6045 141.947 76.7448 141.947 76.8967V80.218C141.947 80.36 142.023 80.492 142.147 80.563C142.271 80.6324 142.423 80.6324 142.547 80.5614L146.505 78.2618C146.749 78.1199 146.901 77.8574 146.901 77.5735V74.47C146.901 74.1217 146.713 73.8031 146.411 73.6364ZM85.3323 73.6364L77.2336 69.1545C77.0817 69.0703 76.9117 69.0291 76.7433 69.0291C76.5749 69.0291 76.4049 69.0703 76.253 69.1545H76.2547L68.1543 73.6364C67.8523 73.8031 67.6641 74.12 67.6641 74.4667V86.7897C67.6641 86.9317 67.74 87.0638 67.8638 87.1348C67.9876 87.2041 68.1395 87.2041 68.2633 87.1331L72.2219 84.8336C72.4662 84.6916 72.6164 84.4291 72.6164 84.1452V76.8933C72.6164 76.7415 72.6989 76.6012 72.831 76.5285L76.5205 74.4882C76.5898 74.4502 76.6657 74.432 76.7433 74.432C76.8209 74.432 76.8969 74.4518 76.9662 74.4882L80.6557 76.5302C80.7877 76.6028 80.8703 76.7431 80.8703 76.895V84.1469C80.8703 84.4308 81.0205 84.6933 81.2665 84.8352L85.225 87.1348C85.3488 87.2057 85.5007 87.2057 85.6245 87.1364C85.7467 87.0638 85.8226 86.9317 85.8226 86.7897V74.4684C85.8226 74.1217 85.6344 73.8031 85.3323 73.6364Z" fill="white"/>
</g>
</g>
<defs>
<filter id="filter0_bdd_502_4035" x="0.394531" y="-21.6057" width="213.777" height="237.777" filterUnits="userSpaceOnUse" color-interpolation-filters="sRGB">
<feFlood flood-opacity="0" result="BackgroundImageFix"/>
<feGaussianBlur in="BackgroundImageFix" stdDeviation="16"/>
<feComposite in2="SourceAlpha" operator="in" result="effect1_backgroundBlur_502_4035"/>
<feColorMatrix in="SourceAlpha" type="matrix" values="0 0 0 0 0 0 0 0 0 0 0 0 0 0 0 0 0 0 127 0" result="hardAlpha"/>
<feMorphology radius="8" operator="erode" in="SourceAlpha" result="effect2_dropShadow_502_4035"/>
<feOffset dy="32"/>
<feGaussianBlur stdDeviation="24"/>
<feComposite in2="hardAlpha" operator="out"/>
<feColorMatrix type="matrix" values="0 0 0 0 0 0 0 0 0 0 0 0 0 0 0 0 0 0 0.1 0"/>
<feBlend mode="multiply" in2="effect1_backgroundBlur_502_4035" result="effect2_dropShadow_502_4035"/>
<feColorMatrix in="SourceAlpha" type="matrix" values="0 0 0 0 0 0 0 0 0 0 0 0 0 0 0 0 0 0 127 0" result="hardAlpha"/>
<feMorphology radius="4" operator="erode" in="SourceAlpha" result="effect3_dropShadow_502_4035"/>
<feOffset/>
<feGaussianBlur stdDeviation="7"/>
<feComposite in2="hardAlpha" operator="out"/>
<feColorMatrix type="matrix" values="0 0 0 0 0 0 0 0 0 0 0 0 0 0 0 0 0 0 0.05 0"/>
<feBlend mode="multiply" in2="effect2_dropShadow_502_4035" result="effect3_dropShadow_502_4035"/>
<feBlend mode="normal" in="SourceGraphic" in2="effect3_dropShadow_502_4035" result="shape"/>
</filter>
<clipPath id="clip0_502_4035">
<rect width="79.2372" height="79.2372" fill="white" transform="translate(67.6641 37.6643)"/>
</clipPath>
</defs>
</svg>
