<svg width="133" height="133" viewBox="0 0 133 133" fill="none" xmlns="http://www.w3.org/2000/svg">
<rect width="132" height="132" transform="translate(0.886719 0.394531)" fill="#26262E"/>
<g clip-path="url(#clip0_931_6011)">
<path d="M55.8183 58.449L47.8256 62.8713C47.5259 63.0358 47.3418 63.342 47.3418 63.6727V72.5222C47.3418 72.8529 47.5259 73.1575 47.8256 73.3236L55.8199 77.7492C56.118 77.9137 56.4878 77.9137 56.7858 77.7492L64.7786 73.3236C65.075 73.1575 65.2591 72.8529 65.2591 72.5222V63.6727C65.2591 63.342 65.075 63.0374 64.7753 62.8713L56.7842 58.449C56.6344 58.3659 56.4666 58.3252 56.3005 58.3252C56.1327 58.3252 55.9665 58.3659 55.8167 58.449H55.8183ZM96.9418 66.4157L95.6094 67.1519C95.5589 67.1796 95.5296 67.2301 95.5296 67.2855V68.7612C95.5296 68.8166 95.5605 68.8671 95.6094 68.8948L96.9418 69.6326C96.9923 69.6603 97.0525 69.6603 97.103 69.6326L98.4354 68.8948C98.4843 68.8671 98.5153 68.8166 98.5153 68.7612V67.2855C98.5153 67.2301 98.4843 67.1796 98.4338 67.1519L97.1014 66.4157C97.077 66.401 97.0493 66.3945 97.0216 66.3945C96.9939 66.3945 96.9662 66.401 96.9418 66.4157Z" fill="#388E3C"/>
<path d="M86.0274 49.07L82.136 46.8987C82.0139 46.8303 81.864 46.832 81.7435 46.9036C81.6229 46.9753 81.548 47.104 81.548 47.2441L81.5464 60.3595L77.958 58.374C77.8082 58.2909 77.6404 58.2502 77.4743 58.2502C77.3081 58.2502 77.1404 58.2909 76.9905 58.374H76.9921L68.9994 62.7963C68.6997 62.9608 68.5156 63.267 68.5156 63.596V72.4456C68.5156 72.7762 68.6997 73.0808 68.9994 73.247L76.9938 77.6725C77.2918 77.8371 77.6616 77.8371 77.9597 77.6725L85.9524 73.247C86.2489 73.0825 86.4329 72.7762 86.4329 72.4456V49.7606C86.4329 49.474 86.2766 49.2101 86.0274 49.07ZM81.3281 70.3981L77.6958 72.4097C77.5606 72.4847 77.3928 72.4847 77.2576 72.4097L73.6237 70.3981C73.4852 70.3232 73.4022 70.1831 73.4022 70.0332V66.01C73.4022 65.8601 73.4852 65.7217 73.6221 65.6451L77.256 63.6351H77.2544C77.3228 63.5977 77.3977 63.5798 77.4743 63.5798C77.5508 63.5798 77.6258 63.5993 77.6942 63.6351L81.3265 65.6451C81.4633 65.7217 81.5464 65.8618 81.5464 66.0116V70.0349C81.5464 70.1831 81.4633 70.3232 81.3281 70.3981Z" fill="white"/>
<path d="M55.8183 58.449L47.3418 72.5222C47.3418 72.8529 47.5259 73.1575 47.8256 73.3236L55.8199 77.7492C56.118 77.9137 56.4878 77.9137 56.7858 77.7492L65.2591 63.6727C65.2591 63.342 65.075 63.0374 64.7753 62.8713L56.7842 58.449C56.6344 58.3659 56.4666 58.3252 56.3005 58.3252C56.1327 58.3252 55.9665 58.3659 55.8167 58.449" fill="#2E7D32"/>
<path d="M55.8183 58.449L47.8256 62.8713C47.5259 63.0358 47.3418 63.342 47.3418 63.6727L55.8183 77.7492C56.1164 77.9137 56.4861 77.9137 56.7842 77.7492L64.777 73.3236C65.075 73.1575 65.2591 72.8529 65.2591 72.5222L56.7842 58.449C56.6344 58.3659 56.4666 58.3252 56.3005 58.3252C56.1327 58.3252 55.9665 58.3659 55.8167 58.449" fill="#4CAF50"/>
<path d="M105.496 62.7961L97.5046 58.3738C97.3548 58.2907 97.187 58.25 97.0209 58.25C96.8547 58.25 96.687 58.2907 96.5371 58.3738H96.5387L88.546 62.7961C88.2479 62.9606 88.0622 63.2734 88.0622 63.6154V72.4291C88.0622 72.7695 88.2479 73.0839 88.546 73.2484L96.5404 77.674C96.8401 77.8401 97.2066 77.8401 97.5063 77.674L101.192 75.633C101.53 75.4457 101.528 74.962 101.189 74.7763L93.1687 70.3996C93.0335 70.323 92.9488 70.1813 92.9488 70.0282V66.0114C92.9488 65.8616 93.0302 65.7231 93.1605 65.6515L96.801 63.6382H96.7994C96.8678 63.6008 96.9427 63.5828 97.0193 63.5828C97.0958 63.5828 97.1707 63.6024 97.2391 63.6382L100.88 65.6531C101.01 65.7248 101.091 65.8632 101.091 66.0131V69.2903C101.091 69.4304 101.166 69.5607 101.288 69.6307C101.411 69.6992 101.56 69.6992 101.683 69.6291L105.589 67.3601C105.83 67.2201 105.98 66.9611 105.98 66.6809V63.6187C105.98 63.275 105.794 62.9606 105.496 62.7961ZM45.2285 62.7961L37.2373 58.3738C37.0875 58.2907 36.9197 58.25 36.7536 58.25C36.5874 58.25 36.4197 58.2907 36.2698 58.3738H36.2714L28.2787 62.7961C27.9806 62.9606 27.7949 63.2734 27.7949 63.6154V75.7748C27.7949 75.9148 27.8698 76.0451 27.992 76.1152C28.1142 76.1836 28.264 76.1836 28.3862 76.1136L32.2922 73.8446C32.5332 73.7045 32.6815 73.4455 32.6815 73.1653V66.0098C32.6815 65.86 32.7629 65.7215 32.8932 65.6498L36.5337 63.6366C36.6021 63.5991 36.677 63.5812 36.7536 63.5812C36.8301 63.5812 36.9051 63.6008 36.9735 63.6366L40.6139 65.6515C40.7442 65.7231 40.8257 65.8616 40.8257 66.0114V73.167C40.8257 73.4471 40.9739 73.7061 41.2166 73.8462L45.1226 76.1152C45.2447 76.1852 45.3946 76.1852 45.5168 76.1168C45.6373 76.0451 45.7122 75.9148 45.7122 75.7748V63.617C45.7122 63.275 45.5265 62.9606 45.2285 62.7961Z" fill="white"/>
</g>
<defs>
<clipPath id="clip0_931_6011">
<rect width="78.1846" height="78.1846" fill="white" transform="translate(27.7949 27.3018)"/>
</clipPath>
</defs>
</svg>
