<svg width="133" height="133" viewBox="0 0 133 133" fill="none" xmlns="http://www.w3.org/2000/svg">
<rect width="132" height="132" transform="translate(0.457031 0.394531)" fill="white"/>
<path d="M38.5078 58.873L66.6153 92.609L95.0461 58.873H38.5078Z" fill="#F9E65C"/>
<path d="M50.3382 42.9717L39.2031 58.7865H49.5137L50.3382 42.9717Z" fill="#F9E65C"/>
<path d="M83.1719 42.9717L94.3062 58.7865H83.9964L83.1719 42.9717Z" fill="#F9E65C"/>
<path d="M49.9785 58.806L66.682 40.9336L83.6868 59.1147L49.9785 58.806Z" fill="#FEF6AA"/>
<path d="M82.861 42.9717L83.6854 58.7865L66.5547 40.8467L82.861 42.9717Z" fill="#F9E65C"/>
<path d="M50.3401 42.9717L49.5156 58.7865L66.6464 40.8467L50.3401 42.9717Z" fill="#F9E65C"/>
<path d="M82.8625 43.058L66.6163 40.6211L50.3702 43.058L38.1855 59.3042L66.6163 92.6088L95.0471 58.8728L82.8625 43.058Z" stroke="#1F212B" stroke-miterlimit="10" stroke-linecap="round" stroke-linejoin="round"/>
<path d="M38.1855 58.873H95.0471" stroke="#1F212B" stroke-width="0.5" stroke-miterlimit="10" stroke-linecap="round" stroke-linejoin="round"/>
<path d="M50.3694 43.0586L49.5449 58.8734L66.8576 40.7598" stroke="#1F212B" stroke-width="0.5" stroke-miterlimit="10" stroke-linecap="round" stroke-linejoin="round"/>
<path d="M49.5449 58.873L66.6156 92.609" stroke="#1F212B" stroke-width="0.5" stroke-miterlimit="10" stroke-linecap="round" stroke-linejoin="round"/>
<path d="M82.861 43.0586L83.6854 58.8734L66.5547 40.9336" stroke="#1F212B" stroke-width="0.5" stroke-miterlimit="10" stroke-linecap="round" stroke-linejoin="round"/>
<path d="M83.6859 58.873L66.6152 92.609" stroke="#1F212B" stroke-width="0.5" stroke-miterlimit="10" stroke-linecap="round" stroke-linejoin="round"/>
</svg>
