<svg width="132" height="133" viewBox="0 0 132 133" fill="none" xmlns="http://www.w3.org/2000/svg">
<rect width="132" height="132" transform="translate(0 0.222656)" fill="#CC0000"/>
<g clip-path="url(#clip0_931_6005)">
<path d="M54.4475 53.7852C53.9617 53.7852 53.4635 53.8139 52.9467 53.8759L53.2416 54.8021C53.6964 54.7537 54.1476 54.7378 54.6025 54.7378H54.7613L54.4475 53.7852ZM60.4206 54.7076L60.3601 55.7396C60.8769 55.9138 61.3767 56.1035 61.876 56.3067L61.9403 55.2557C61.799 55.1783 61.4058 54.9902 60.4206 54.7076ZM47.5482 55.3011C47.1572 55.5043 46.7491 55.7224 46.3272 55.974L47.0454 57.0703C47.4519 56.8187 47.8449 56.5855 48.2514 56.3823L47.5482 55.3011ZM54.6479 55.3502C54.2091 55.3535 53.7649 55.3773 53.3209 55.4221C48.753 55.8286 43.1413 59.9894 39.8702 65.4478C36.5797 70.9254 36.1351 75.5717 36.1351 75.5717H48.482C48.482 75.5717 46.1212 64.7904 53.9409 60.416C55.5668 59.6224 60.6214 56.7563 68.8282 62.2533L69.4445 61.6938C67.1218 59.6977 61.2289 55.3017 54.6479 55.3502ZM60.3903 59.6221L60.3298 60.605C60.8466 60.6205 61.3592 60.6837 61.876 60.7941L61.9403 59.8225C61.41 59.7141 60.8917 59.6531 60.3903 59.6221ZM56.7309 59.9964C56.1986 60.1512 55.7458 60.3269 55.3548 60.4992L55.714 61.5766C56.1669 61.3579 56.622 61.1697 57.0749 61.0284L56.7309 59.9964ZM41.2274 60.0607C40.8209 60.4516 40.4306 60.8416 40.0706 61.2326L41.2727 62.2646C41.6018 61.8427 41.9633 61.4194 42.3388 61.0284L41.2274 60.0607ZM52.4288 62.3743C52.0687 62.7053 51.7379 63.0614 51.4572 63.4215L52.2095 64.548C52.4747 64.157 52.7874 63.7966 53.1319 63.4366L52.4288 62.3743ZM54.6781 64.6047V75.3714H57.2979V72.3962L57.6306 72.7402L60.0879 75.3714H64.0649L60.6134 71.8896L61.0254 71.8518C61.128 71.8421 63.5886 71.5815 63.5886 68.2755C63.5886 64.9637 60.5725 64.6163 60.4622 64.6047H54.6781ZM68.1478 64.6803C66.1154 64.6803 65.4296 66.5487 65.4296 67.3985V75.3714H68.0948V73.4169H71.346V75.3714H73.9129V67.3985C73.9129 65.1822 71.9031 64.6803 71.1986 64.6803H68.1478ZM75.6935 64.6803V75.3676H78.4834V64.6803H75.6935ZM80.1657 64.6803V75.3714H87.2162V72.8952H82.9443V64.6803H80.1657ZM91.2235 64.6803C90.0776 64.6803 88.4902 65.6399 88.4902 67.4438V68.4305C88.4902 70.2848 90.1221 71.1486 91.2235 71.1486L92.6109 71.1524C92.8296 71.1466 93.8282 71.1486 93.8282 71.1486V72.9103L88.6452 72.9254V75.3676H93.5711C94.5892 75.3676 96.2274 74.6295 96.2855 72.6533V71.5569C96.2855 69.8575 94.9047 68.8426 93.5711 68.8426H90.8265V67.1414H95.881V64.6803H91.2235ZM49.6615 66.7369C49.4563 67.3176 49.3148 67.8975 49.1889 68.4608L50.4592 69.4626C50.5211 68.8529 50.6313 68.2407 50.7881 67.6291L49.6615 66.7369ZM69.229 66.9373H70.2724C71.0892 66.9373 71.3231 67.4561 71.3309 67.7387V70.6421H68.0797V67.7387C68.0797 67.731 68.0947 66.9373 69.229 66.9373ZM57.3017 67.0129L59.9707 67.0242C60.0017 67.0377 60.7684 67.3378 60.7684 68.4759C60.7684 69.6121 59.9921 69.9269 59.8875 69.954H57.3017V67.0129ZM35.8138 67.3682C35.5177 68.0399 35.188 68.8214 35.0312 69.2433L36.8307 69.9011C37.034 69.3688 37.3617 68.601 37.6133 68.0222L35.8138 67.3682ZM48.9546 72.434C48.9855 73.2624 49.0662 73.9352 49.1436 74.4036L51.0224 75.0765C50.8811 74.4668 50.7392 73.7782 50.6444 73.0426L48.9546 72.434Z" fill="white"/>
</g>
<defs>
<clipPath id="clip0_931_6005">
<rect width="61.9385" height="61.9385" fill="white" transform="translate(35.0312 35.2539)"/>
</clipPath>
</defs>
</svg>
