<svg width="214" height="216" viewBox="0 0 214 216" fill="none" xmlns="http://www.w3.org/2000/svg">
<g filter="url(#filter0_bdd_502_4029)">
<rect width="133.777" height="133.777" transform="translate(40 10.2229)" fill="#CC0000"/>
<g clip-path="url(#clip0_502_4029)">
<path d="M95.1796 64.5066C94.6872 64.5066 94.1823 64.5358 93.6586 64.5985L93.9574 65.5372C94.4184 65.4882 94.8757 65.4721 95.3367 65.4721H95.4976L95.1796 64.5066ZM101.233 65.4414L101.172 66.4874C101.696 66.6639 102.202 66.8561 102.708 67.0621L102.773 65.997C102.63 65.9185 102.232 65.7278 101.233 65.4414ZM88.1875 66.043C87.7912 66.2489 87.3776 66.4699 86.9499 66.7249L87.6779 67.836C88.0898 67.581 88.4881 67.3447 88.9001 67.1387L88.1875 66.043ZM95.3827 66.0928C94.938 66.096 94.4878 66.1202 94.0379 66.1656C89.4084 66.5775 83.7212 70.7944 80.406 76.3262C77.0713 81.8776 76.6207 86.5865 76.6207 86.5865H89.1338C89.1338 86.5865 86.7412 75.66 94.6662 71.2267C96.314 70.4225 101.437 67.5177 109.754 73.0887L110.378 72.5217C108.025 70.4988 102.052 66.0435 95.3827 66.0928ZM101.202 70.4222L101.141 71.4183C101.665 71.434 102.184 71.498 102.708 71.6099L102.773 70.6252C102.236 70.5154 101.711 70.4535 101.202 70.4222ZM97.4937 70.8015C96.9543 70.9584 96.4954 71.1364 96.0991 71.311L96.4631 72.4029C96.9221 72.1813 97.3834 71.9906 97.8424 71.8474L97.4937 70.8015ZM81.7815 70.8666C81.3695 71.2628 80.974 71.658 80.6091 72.0543L81.8275 73.1002C82.1609 72.6726 82.5273 72.2437 82.9079 71.8474L81.7815 70.8666ZM93.1337 73.2114C92.7688 73.5468 92.4335 73.9078 92.149 74.2726L92.9115 75.4144C93.1802 75.0181 93.4971 74.6528 93.8463 74.288L93.1337 73.2114ZM95.4133 75.4718V86.3834H98.0684V83.3682L98.4056 83.7168L100.896 86.3834H104.926L101.429 82.8548L101.846 82.8165C101.95 82.8067 104.444 82.5425 104.444 79.192C104.444 75.8357 101.387 75.4836 101.275 75.4718H95.4133ZM109.064 75.5485C107.005 75.5485 106.31 77.442 106.31 78.3032V86.3834H109.011V84.4026H112.306V86.3834H114.907V78.3032C114.907 76.0571 112.87 75.5485 112.156 75.5485H109.064ZM116.712 75.5485V86.3796H119.539V75.5485H116.712ZM121.244 75.5485V86.3834H128.39V83.8739H124.06V75.5485H121.244ZM132.451 75.5485C131.289 75.5485 129.681 76.5209 129.681 78.3492V79.3491C129.681 81.2284 131.335 82.1038 132.451 82.1038L133.857 82.1077C134.078 82.1018 135.09 82.1038 135.09 82.1038V83.8892L129.838 83.9046V86.3796H134.83C135.862 86.3796 137.522 85.6315 137.581 83.6287V82.5176C137.581 80.7953 136.182 79.7667 134.83 79.7667H132.048V78.0426H137.171V75.5485H132.451ZM90.3292 77.6327C90.1212 78.2212 89.9778 78.8089 89.8503 79.3798L91.1376 80.3951C91.2003 79.7772 91.312 79.1568 91.4709 78.5369L90.3292 77.6327ZM110.16 77.8358H111.218C112.045 77.8358 112.282 78.3616 112.29 78.648V81.5905H108.995V78.648C108.995 78.6402 109.011 77.8358 110.16 77.8358ZM98.0723 77.9124L100.777 77.9239C100.809 77.9376 101.586 78.2417 101.586 79.3951C101.586 80.5466 100.799 80.8657 100.693 80.8932H98.0723V77.9124ZM76.295 78.2725C75.9949 78.9532 75.6608 79.7452 75.502 80.1729L77.3257 80.8395C77.5316 80.3001 77.8637 79.5219 78.1187 78.9353L76.295 78.2725ZM89.6127 83.4065C89.6441 84.2461 89.7258 84.9279 89.8043 85.4026L91.7084 86.0846C91.5652 85.4667 91.4214 84.7688 91.3253 84.0233L89.6127 83.4065Z" fill="white"/>
</g>
</g>
<defs>
<filter id="filter0_bdd_502_4029" x="0" y="-21.7771" width="213.777" height="237.777" filterUnits="userSpaceOnUse" color-interpolation-filters="sRGB">
<feFlood flood-opacity="0" result="BackgroundImageFix"/>
<feGaussianBlur in="BackgroundImageFix" stdDeviation="16"/>
<feComposite in2="SourceAlpha" operator="in" result="effect1_backgroundBlur_502_4029"/>
<feColorMatrix in="SourceAlpha" type="matrix" values="0 0 0 0 0 0 0 0 0 0 0 0 0 0 0 0 0 0 127 0" result="hardAlpha"/>
<feMorphology radius="8" operator="erode" in="SourceAlpha" result="effect2_dropShadow_502_4029"/>
<feOffset dy="32"/>
<feGaussianBlur stdDeviation="24"/>
<feComposite in2="hardAlpha" operator="out"/>
<feColorMatrix type="matrix" values="0 0 0 0 0 0 0 0 0 0 0 0 0 0 0 0 0 0 0.1 0"/>
<feBlend mode="multiply" in2="effect1_backgroundBlur_502_4029" result="effect2_dropShadow_502_4029"/>
<feColorMatrix in="SourceAlpha" type="matrix" values="0 0 0 0 0 0 0 0 0 0 0 0 0 0 0 0 0 0 127 0" result="hardAlpha"/>
<feMorphology radius="4" operator="erode" in="SourceAlpha" result="effect3_dropShadow_502_4029"/>
<feOffset/>
<feGaussianBlur stdDeviation="7"/>
<feComposite in2="hardAlpha" operator="out"/>
<feColorMatrix type="matrix" values="0 0 0 0 0 0 0 0 0 0 0 0 0 0 0 0 0 0 0.05 0"/>
<feBlend mode="multiply" in2="effect2_dropShadow_502_4029" result="effect3_dropShadow_502_4029"/>
<feBlend mode="normal" in="SourceGraphic" in2="effect3_dropShadow_502_4029" result="shape"/>
</filter>
<clipPath id="clip0_502_4029">
<rect width="62.7724" height="62.7724" fill="white" transform="translate(75.502 45.7253)"/>
</clipPath>
</defs>
</svg>
