<svg width="215" height="216" viewBox="0 0 215 216" fill="none" xmlns="http://www.w3.org/2000/svg">
<g filter="url(#filter0_bdd_502_3991)">
<rect width="133.777" height="133.777" transform="translate(40.8281 10.2229)" fill="white"/>
<path d="M107.792 46.5614C105.292 46.5694 103.558 46.7897 101.463 47.1515C95.276 48.2288 94.1489 50.4911 94.1489 54.6604V61.0325H108.62V64.2483H93.599H86.6046C82.3662 64.2483 78.6568 66.2453 77.4814 71.032C76.1533 76.5262 76.0938 79.9671 77.4814 85.7041C78.5346 89.9827 80.8548 93.1905 85.0948 93.1905H90.9347V84.9837C90.9347 80.2147 95.2535 75.5036 100.203 75.5036H111.837C115.894 75.5036 119.877 72.5097 119.877 68.4658V54.6604C119.877 50.7387 117.049 47.8059 113.095 47.1483C113.193 47.1386 110.271 46.5517 107.792 46.5614ZM99.7781 52.993C101.098 52.993 102.19 54.0815 102.19 55.4081C102.19 56.7474 101.098 57.8167 99.7781 57.8167C98.4323 57.8167 97.3663 56.749 97.3663 55.4081C97.3663 54.0864 98.4323 52.993 99.7781 52.993Z" fill="#0277BD"/>
<path d="M106.234 107.662C108.735 107.653 110.468 107.433 112.563 107.071C118.75 105.994 119.877 103.732 119.877 99.5625V93.1904H105.406V89.9746H120.429H127.423C131.662 89.9746 135.371 87.9776 136.546 83.1909C137.875 77.6967 137.934 74.2558 136.546 68.5188C135.492 64.2402 133.172 61.0325 128.931 61.0325H123.092V69.2392C123.092 74.0082 118.773 78.7194 113.824 78.7194H102.189C98.1322 78.7194 94.1494 81.7133 94.1494 85.7571V99.5625C94.1494 103.484 96.9777 106.417 100.932 107.075C100.833 107.084 103.755 107.671 106.234 107.662ZM114.25 101.23C112.93 101.23 111.838 100.141 111.838 98.8149C111.838 97.4755 112.93 96.4062 114.25 96.4062C115.596 96.4062 116.662 97.4739 116.662 98.8149C116.662 100.137 115.594 101.23 114.25 101.23Z" fill="#FFC107"/>
</g>
<defs>
<filter id="filter0_bdd_502_3991" x="0.828125" y="-21.7771" width="213.777" height="237.777" filterUnits="userSpaceOnUse" color-interpolation-filters="sRGB">
<feFlood flood-opacity="0" result="BackgroundImageFix"/>
<feGaussianBlur in="BackgroundImageFix" stdDeviation="16"/>
<feComposite in2="SourceAlpha" operator="in" result="effect1_backgroundBlur_502_3991"/>
<feColorMatrix in="SourceAlpha" type="matrix" values="0 0 0 0 0 0 0 0 0 0 0 0 0 0 0 0 0 0 127 0" result="hardAlpha"/>
<feMorphology radius="8" operator="erode" in="SourceAlpha" result="effect2_dropShadow_502_3991"/>
<feOffset dy="32"/>
<feGaussianBlur stdDeviation="24"/>
<feComposite in2="hardAlpha" operator="out"/>
<feColorMatrix type="matrix" values="0 0 0 0 0 0 0 0 0 0 0 0 0 0 0 0 0 0 0.1 0"/>
<feBlend mode="multiply" in2="effect1_backgroundBlur_502_3991" result="effect2_dropShadow_502_3991"/>
<feColorMatrix in="SourceAlpha" type="matrix" values="0 0 0 0 0 0 0 0 0 0 0 0 0 0 0 0 0 0 127 0" result="hardAlpha"/>
<feMorphology radius="4" operator="erode" in="SourceAlpha" result="effect3_dropShadow_502_3991"/>
<feOffset/>
<feGaussianBlur stdDeviation="7"/>
<feComposite in2="hardAlpha" operator="out"/>
<feColorMatrix type="matrix" values="0 0 0 0 0 0 0 0 0 0 0 0 0 0 0 0 0 0 0.05 0"/>
<feBlend mode="multiply" in2="effect2_dropShadow_502_3991" result="effect3_dropShadow_502_3991"/>
<feBlend mode="normal" in="SourceGraphic" in2="effect3_dropShadow_502_3991" result="shape"/>
</filter>
</defs>
</svg>
