<svg width="133" height="133" viewBox="0 0 133 133" fill="none" xmlns="http://www.w3.org/2000/svg">
<rect width="132" height="132" transform="translate(0.570312 0.222656)" fill="white"/>
<path d="M66.6453 36.0782C64.1782 36.0862 62.4679 36.3035 60.4006 36.6605C54.2956 37.7235 53.1835 39.9557 53.1835 44.0696V50.3571H67.4623V53.5302H52.6409H45.7394C41.5573 53.5302 37.8972 55.5006 36.7374 60.2238C35.4269 65.645 35.3682 69.0402 36.7374 74.7009C37.7766 78.9227 40.066 82.0879 44.2497 82.0879H50.012V73.9902C50.012 69.2845 54.2734 64.6359 59.1568 64.6359H70.637C74.6398 64.6359 78.5697 61.6818 78.5697 57.6917V44.0696C78.5697 40.2001 75.779 37.3062 71.8777 36.6573C71.9744 36.6478 69.0917 36.0687 66.6453 36.0782ZM58.7379 42.4244C60.0405 42.4244 61.1178 43.4985 61.1178 44.8074C61.1178 46.129 60.0405 47.184 58.7379 47.184C57.41 47.184 56.3581 46.1306 56.3581 44.8074C56.3581 43.5032 57.41 42.4244 58.7379 42.4244Z" fill="#0277BD"/>
<path d="M65.108 96.367C67.5751 96.3591 69.2854 96.1418 71.3526 95.7848C77.4576 94.7218 78.5698 92.4895 78.5698 88.3757V82.0882H64.2909V78.9151H79.114H86.0154C90.1975 78.9151 93.8577 76.9446 95.0174 72.2215C96.3279 66.8003 96.3866 63.4051 95.0174 57.7443C93.9767 53.5226 91.6873 50.3574 87.5036 50.3574H81.7413V58.4551C81.7413 63.1608 77.4798 67.8093 72.5965 67.8093H61.1163C57.1134 67.8093 53.1836 70.7635 53.1836 74.7536V88.3757C53.1836 92.2452 55.9743 95.1391 59.8756 95.788C59.7788 95.7975 62.6616 96.3766 65.108 96.367ZM73.0169 90.0209C71.7144 90.0209 70.6371 88.9468 70.6371 87.6379C70.6371 86.3163 71.7144 85.2613 73.0169 85.2613C74.3448 85.2613 75.3967 86.3147 75.3967 87.6379C75.3967 88.942 74.3433 90.0209 73.0169 90.0209Z" fill="#FFC107"/>
</svg>
