<svg width="133" height="133" viewBox="0 0 133 133" fill="none" xmlns="http://www.w3.org/2000/svg">
<rect width="132" height="132" transform="translate(0.886719 0.222656)" fill="white"/>
<path d="M94.9379 34.873H38.8379L43.7879 90.973L66.8879 97.573L89.9879 90.973L94.9379 34.873Z" fill="#0277BD"/>
<path d="M66.8867 39.8232V92.4582L85.3667 87.1782L89.4917 39.8232H66.8867Z" fill="#039BE5"/>
<path d="M81.9017 48.0732H66.8867V54.6732H74.9717L74.4767 61.2732H66.8867V67.8732H74.1467L73.6517 75.2982L66.8867 77.6082V84.5382L79.9217 80.2482L81.0767 61.2732L81.9017 48.0732Z" fill="white"/>
<path d="M66.887 48.0732V54.6732H52.202L51.707 48.0732H66.887ZM59.297 61.2732L59.627 67.8732H66.887V61.2732H59.297ZM59.957 71.1732H53.357L53.852 80.2482L66.887 84.5382V77.6082L60.122 75.2982L59.957 71.1732Z" fill="#EEEEEE"/>
</svg>
