<svg width="214" height="216" viewBox="0 0 214 216" fill="none" xmlns="http://www.w3.org/2000/svg">
<g filter="url(#filter0_bdd_502_3954)">
<rect width="133.777" height="133.777" transform="translate(40.2227 10.2229)" fill="#26262E"/>
<path d="M109.813 67.6572H99.0082C93.7866 67.6572 89.5537 63.4243 89.5537 58.2027C89.5537 52.9812 93.7866 48.7483 99.0082 48.7483H109.813V67.6572Z" fill="#E64A19"/>
<path d="M108.463 86.5659H99.0082C93.7866 86.5659 89.5537 82.333 89.5537 77.1114C89.5537 71.8899 93.7866 67.657 99.0082 67.657H108.463V86.5659Z" fill="#7C4DFF"/>
<path d="M99.0082 105.475C93.7866 105.475 89.5537 101.242 89.5537 96.0204C89.5537 90.7988 93.7866 86.5659 99.0082 86.5659H108.463V96.0204C108.463 101.242 104.23 105.475 99.0082 105.475Z" fill="#66BB6A"/>
<path d="M117.916 67.6572H108.462V48.7483H117.916C123.138 48.7483 127.371 52.9812 127.371 58.2027C127.371 63.4243 123.138 67.6572 117.916 67.6572Z" fill="#FF7043"/>
<path d="M117.916 86.5659C123.138 86.5659 127.371 82.333 127.371 77.1114C127.371 71.8899 123.138 67.657 117.916 67.657C112.695 67.657 108.462 71.8899 108.462 77.1114C108.462 82.333 112.695 86.5659 117.916 86.5659Z" fill="#29B6F6"/>
</g>
<defs>
<filter id="filter0_bdd_502_3954" x="0.222656" y="-21.7771" width="213.777" height="237.777" filterUnits="userSpaceOnUse" color-interpolation-filters="sRGB">
<feFlood flood-opacity="0" result="BackgroundImageFix"/>
<feGaussianBlur in="BackgroundImageFix" stdDeviation="16"/>
<feComposite in2="SourceAlpha" operator="in" result="effect1_backgroundBlur_502_3954"/>
<feColorMatrix in="SourceAlpha" type="matrix" values="0 0 0 0 0 0 0 0 0 0 0 0 0 0 0 0 0 0 127 0" result="hardAlpha"/>
<feMorphology radius="8" operator="erode" in="SourceAlpha" result="effect2_dropShadow_502_3954"/>
<feOffset dy="32"/>
<feGaussianBlur stdDeviation="24"/>
<feComposite in2="hardAlpha" operator="out"/>
<feColorMatrix type="matrix" values="0 0 0 0 0 0 0 0 0 0 0 0 0 0 0 0 0 0 0.1 0"/>
<feBlend mode="multiply" in2="effect1_backgroundBlur_502_3954" result="effect2_dropShadow_502_3954"/>
<feColorMatrix in="SourceAlpha" type="matrix" values="0 0 0 0 0 0 0 0 0 0 0 0 0 0 0 0 0 0 127 0" result="hardAlpha"/>
<feMorphology radius="4" operator="erode" in="SourceAlpha" result="effect3_dropShadow_502_3954"/>
<feOffset/>
<feGaussianBlur stdDeviation="7"/>
<feComposite in2="hardAlpha" operator="out"/>
<feColorMatrix type="matrix" values="0 0 0 0 0 0 0 0 0 0 0 0 0 0 0 0 0 0 0.05 0"/>
<feBlend mode="multiply" in2="effect2_dropShadow_502_3954" result="effect3_dropShadow_502_3954"/>
<feBlend mode="normal" in="SourceGraphic" in2="effect3_dropShadow_502_3954" result="shape"/>
</filter>
</defs>
</svg>
