<svg width="133" height="133" viewBox="0 0 133 133" fill="none" xmlns="http://www.w3.org/2000/svg">
<rect width="132" height="132" transform="translate(0.457031 0.222656)" fill="#26262E"/>
<path d="M69.1232 56.894H58.4617C53.3095 56.894 49.1328 52.7174 49.1328 47.5652C49.1328 42.413 53.3095 38.2363 58.4617 38.2363H69.1232V56.894Z" fill="#E64A19"/>
<path d="M67.7905 75.5522H58.4617C53.3095 75.5522 49.1328 71.3756 49.1328 66.2234C49.1328 61.0712 53.3095 56.8945 58.4617 56.8945H67.7905V75.5522Z" fill="#7C4DFF"/>
<path d="M58.4617 94.2094C53.3095 94.2094 49.1328 90.0328 49.1328 84.8806C49.1328 79.7284 53.3095 75.5518 58.4617 75.5518H67.7905V84.8806C67.7905 90.0328 63.6138 94.2094 58.4617 94.2094Z" fill="#66BB6A"/>
<path d="M77.1179 56.894H67.7891V38.2363H77.1179C82.2701 38.2363 86.4468 42.413 86.4468 47.5652C86.4468 52.7174 82.2701 56.894 77.1179 56.894Z" fill="#FF7043"/>
<path d="M77.1179 75.5522C82.2701 75.5522 86.4468 71.3756 86.4468 66.2234C86.4468 61.0712 82.2701 56.8945 77.1179 56.8945C71.9657 56.8945 67.7891 61.0712 67.7891 66.2234C67.7891 71.3756 71.9657 75.5522 77.1179 75.5522Z" fill="#29B6F6"/>
</svg>
