<svg width="132" height="133" viewBox="0 0 132 133" fill="none" xmlns="http://www.w3.org/2000/svg">
<rect width="132" height="132" transform="translate(0 0.0517578)" fill="white"/>
<path d="M94.0512 34.7021H37.9512L42.9012 90.8021L66.0012 97.4021L89.1012 90.8021L94.0512 34.7021Z" fill="#E65100"/>
<path d="M66 39.6523V92.2873L84.48 87.0073L88.605 39.6523H66Z" fill="#FF6D00"/>
<path d="M66 67.7023V61.1023H80.19L79.035 80.0774L66 84.3673V77.4373L72.765 75.1273L73.26 67.7023H66V67.7023ZM80.685 54.5023L81.18 47.9023H66V54.5023H80.685Z" fill="white"/>
<path d="M66.0013 77.4373V84.3673L52.9663 80.0774L52.3063 71.0023H58.9063L59.2363 75.1273L66.0013 77.4373ZM57.9163 54.5023H66.0013V47.9023H50.9863L52.1413 67.7023H66.0013V61.1023H58.4113L57.9163 54.5023Z" fill="#EEEEEE"/>
</svg>
