<svg width="214" height="216" viewBox="0 0 214 216" fill="none" xmlns="http://www.w3.org/2000/svg">
<g filter="url(#filter0_bdd_502_4018)">
<rect width="133.777" height="133.777" transform="translate(40 10.0515)" fill="white"/>
<path d="M135.316 45.168H78.4609L83.4776 102.023L106.889 108.712L130.3 102.023L135.316 45.168Z" fill="#E65100"/>
<path d="M106.889 50.1846V103.528L125.617 98.1771L129.798 50.1846H106.889Z" fill="#FF6D00"/>
<path d="M106.889 78.6122V71.9234H121.27L120.099 91.1538L106.889 95.5016V88.4783L113.745 86.1372L114.246 78.6122H106.889ZM121.771 65.2345L122.273 58.5457H106.889V65.2345H121.771Z" fill="white"/>
<path d="M106.889 88.4783V95.5016L93.6785 91.1538L93.0096 81.9567H99.6985L100.033 86.1372L106.889 88.4783ZM98.6952 65.2345H106.889V58.5457H91.6719L92.8424 78.6122H106.889V71.9234H99.1968L98.6952 65.2345Z" fill="#EEEEEE"/>
</g>
<defs>
<filter id="filter0_bdd_502_4018" x="0" y="-21.9485" width="213.777" height="237.777" filterUnits="userSpaceOnUse" color-interpolation-filters="sRGB">
<feFlood flood-opacity="0" result="BackgroundImageFix"/>
<feGaussianBlur in="BackgroundImageFix" stdDeviation="16"/>
<feComposite in2="SourceAlpha" operator="in" result="effect1_backgroundBlur_502_4018"/>
<feColorMatrix in="SourceAlpha" type="matrix" values="0 0 0 0 0 0 0 0 0 0 0 0 0 0 0 0 0 0 127 0" result="hardAlpha"/>
<feMorphology radius="8" operator="erode" in="SourceAlpha" result="effect2_dropShadow_502_4018"/>
<feOffset dy="32"/>
<feGaussianBlur stdDeviation="24"/>
<feComposite in2="hardAlpha" operator="out"/>
<feColorMatrix type="matrix" values="0 0 0 0 0 0 0 0 0 0 0 0 0 0 0 0 0 0 0.1 0"/>
<feBlend mode="multiply" in2="effect1_backgroundBlur_502_4018" result="effect2_dropShadow_502_4018"/>
<feColorMatrix in="SourceAlpha" type="matrix" values="0 0 0 0 0 0 0 0 0 0 0 0 0 0 0 0 0 0 127 0" result="hardAlpha"/>
<feMorphology radius="4" operator="erode" in="SourceAlpha" result="effect3_dropShadow_502_4018"/>
<feOffset/>
<feGaussianBlur stdDeviation="7"/>
<feComposite in2="hardAlpha" operator="out"/>
<feColorMatrix type="matrix" values="0 0 0 0 0 0 0 0 0 0 0 0 0 0 0 0 0 0 0.05 0"/>
<feBlend mode="multiply" in2="effect2_dropShadow_502_4018" result="effect3_dropShadow_502_4018"/>
<feBlend mode="normal" in="SourceGraphic" in2="effect3_dropShadow_502_4018" result="shape"/>
</filter>
</defs>
</svg>
