<svg width="133" height="133" viewBox="0 0 133 133" fill="none" xmlns="http://www.w3.org/2000/svg">
<rect width="132" height="132" transform="translate(0.570312 0.0517578)" fill="black"/>
<path d="M38.3945 94.2288V37.875H94.7484V94.2288H38.3945Z" fill="#FFD600"/>
<path d="M75.2402 80.0572C76.3234 81.8167 77.5006 83.5026 79.9943 83.5026C82.0888 83.5026 83.1877 82.4616 83.1877 81.0214C83.1877 79.298 82.0512 78.6859 79.7469 77.6825L78.4837 77.144C74.8379 75.5974 72.4131 73.6594 72.4131 69.566C72.4131 65.7934 75.3012 62.9225 79.8142 62.9225C83.028 62.9225 85.3369 64.0355 87.0025 66.9502L83.0671 69.4658C82.2015 67.9192 81.2654 67.3102 79.8142 67.3102C78.3334 67.3102 77.3957 68.2448 77.3957 69.4658C77.3957 70.9748 78.335 71.5853 80.503 72.5198L81.7663 73.0583C86.0633 74.8883 88.4865 76.7573 88.4865 80.9588C88.4865 85.4859 84.9111 87.9671 80.1117 87.9671C75.4171 87.9671 72.7512 85.6112 71.2672 82.6948L75.2402 80.0572ZM57.1036 80.1855C57.8957 81.6038 59.0995 82.6948 60.8308 82.6948C62.487 82.6948 63.4403 82.0405 63.4403 79.4968V62.9209H68.6578V80.2982C68.6578 85.5689 65.6006 87.9671 61.1361 87.9671C57.1021 87.9671 54.1905 85.2339 53.0039 82.6948L57.1036 80.1855Z" fill="#000001"/>
</svg>
