<svg width="132" height="132" viewBox="0 0 132 132" fill="none" xmlns="http://www.w3.org/2000/svg">
<rect width="132" height="132" fill="white"/>
<path d="M93.0341 38.9658H38.9648V93.035H93.0341V38.9658Z" fill="#1976D2"/>
<path d="M71.2403 62.9961H51.3203V67.8984H58.465V90.0307H64.1257V67.8984H71.2403V62.9961Z" fill="white"/>
<path d="M88.819 69.1298C88.819 69.1298 86.1351 67.3395 83.1012 67.3395C80.0673 67.3395 78.9754 68.7813 78.9754 70.3223C78.9754 74.2994 90.0611 73.9014 90.0611 81.9052C90.0611 94.2344 73.1585 88.7659 73.1585 88.7659V82.8514C73.1585 82.8514 76.3906 85.2875 80.2671 85.2875C84.1435 85.2875 83.9963 82.7522 83.9963 82.4038C83.9963 78.7256 73.0098 78.7256 73.0098 70.5716C73.0098 59.4859 89.0173 63.8595 89.0173 63.8595L88.819 69.1298Z" fill="white"/>
</svg>
