<svg width="133" height="132" viewBox="0 0 133 132" fill="none" xmlns="http://www.w3.org/2000/svg">
<rect width="132" height="132" transform="translate(0.570312)" fill="white"/>
<path d="M38.0137 43.7885C38.0137 40.2839 40.8552 37.4424 44.3598 37.4424H88.7829C92.2876 37.4424 95.1291 40.2839 95.1291 43.7885V88.2116C95.1291 91.7147 92.2876 94.5578 88.7829 94.5578H44.3598C40.8552 94.5578 38.0137 91.7147 38.0137 88.2116V43.7885Z" fill="#FF6D00"/>
<path d="M38.0137 43.7885V62.7746L44.3598 69.1208C44.3598 69.1208 62.0545 89.557 76.0906 75.5193C90.1267 61.4816 69.7746 45.3751 69.7746 45.3751L61.834 37.4424H44.3598C40.8552 37.4424 38.0137 40.2823 38.0137 43.7885Z" fill="#E64A19"/>
<path d="M69.7741 45.375C87.9067 57.5882 82.0413 71.0563 82.0413 71.0563C82.0413 71.0563 87.1975 76.8218 85.1128 81.8654C85.1128 81.8654 82.9868 78.3338 79.4203 78.3338C75.9838 78.3338 73.9626 81.8654 67.0453 81.8654C51.6432 81.8654 44.3594 69.1207 44.3594 69.1207C58.2368 78.164 67.7116 71.7591 67.7116 71.7591C61.4591 68.164 47.5325 50.1346 47.5325 50.1346C59.1126 59.8998 64.9844 62.8269 64.9844 62.8269C61.9985 60.3805 52.2921 48.5481 52.2921 48.5481C58.9936 55.2718 73.4041 65.0132 73.4041 65.0132C77.1864 54.6309 69.7741 45.375 69.7741 45.375Z" fill="white"/>
</svg>
