<svg width="215" height="216" viewBox="0 0 215 216" fill="none" xmlns="http://www.w3.org/2000/svg">
<g filter="url(#filter0_bdd_502_3995)">
<rect width="133.777" height="133.777" transform="translate(40.8281 10)" fill="white"/>
<path d="M78.7744 54.378C78.7744 50.8262 81.6542 47.9464 85.206 47.9464H130.227C133.779 47.9464 136.659 50.8262 136.659 54.378V99.3992C136.659 102.949 133.779 105.831 130.227 105.831H85.206C81.6542 105.831 78.7744 102.949 78.7744 99.3992V54.378Z" fill="#FF6D00"/>
<path d="M78.7744 54.378V73.6197L85.206 80.0513C85.206 80.0513 103.139 100.763 117.364 86.536C131.589 72.3093 110.963 55.9859 110.963 55.9859L102.915 47.9464H85.206C81.6542 47.9464 78.7744 50.8245 78.7744 54.378Z" fill="#E64A19"/>
<path d="M110.963 55.986C129.34 68.3636 123.395 82.013 123.395 82.013C123.395 82.013 128.621 87.8561 126.508 92.9676C126.508 92.9676 124.354 89.3884 120.739 89.3884C117.256 89.3884 115.208 92.9676 108.197 92.9676C92.5879 92.9676 85.2061 80.0514 85.2061 80.0514C99.2703 89.2164 108.873 82.7253 108.873 82.7253C102.536 79.0818 88.4219 60.8097 88.4219 60.8097C100.158 70.7063 106.109 73.6728 106.109 73.6728C103.083 71.1935 93.2455 59.2018 93.2455 59.2018C100.037 66.016 114.642 75.8885 114.642 75.8885C118.475 65.3664 110.963 55.986 110.963 55.986Z" fill="white"/>
</g>
<defs>
<filter id="filter0_bdd_502_3995" x="0.828125" y="-22" width="213.777" height="237.777" filterUnits="userSpaceOnUse" color-interpolation-filters="sRGB">
<feFlood flood-opacity="0" result="BackgroundImageFix"/>
<feGaussianBlur in="BackgroundImageFix" stdDeviation="16"/>
<feComposite in2="SourceAlpha" operator="in" result="effect1_backgroundBlur_502_3995"/>
<feColorMatrix in="SourceAlpha" type="matrix" values="0 0 0 0 0 0 0 0 0 0 0 0 0 0 0 0 0 0 127 0" result="hardAlpha"/>
<feMorphology radius="8" operator="erode" in="SourceAlpha" result="effect2_dropShadow_502_3995"/>
<feOffset dy="32"/>
<feGaussianBlur stdDeviation="24"/>
<feComposite in2="hardAlpha" operator="out"/>
<feColorMatrix type="matrix" values="0 0 0 0 0 0 0 0 0 0 0 0 0 0 0 0 0 0 0.1 0"/>
<feBlend mode="multiply" in2="effect1_backgroundBlur_502_3995" result="effect2_dropShadow_502_3995"/>
<feColorMatrix in="SourceAlpha" type="matrix" values="0 0 0 0 0 0 0 0 0 0 0 0 0 0 0 0 0 0 127 0" result="hardAlpha"/>
<feMorphology radius="4" operator="erode" in="SourceAlpha" result="effect3_dropShadow_502_3995"/>
<feOffset/>
<feGaussianBlur stdDeviation="7"/>
<feComposite in2="hardAlpha" operator="out"/>
<feColorMatrix type="matrix" values="0 0 0 0 0 0 0 0 0 0 0 0 0 0 0 0 0 0 0.05 0"/>
<feBlend mode="multiply" in2="effect2_dropShadow_502_3995" result="effect3_dropShadow_502_3995"/>
<feBlend mode="normal" in="SourceGraphic" in2="effect3_dropShadow_502_3995" result="shape"/>
</filter>
</defs>
</svg>
