<svg width="133" height="132" viewBox="0 0 133 132" fill="none" xmlns="http://www.w3.org/2000/svg">
<rect width="132" height="132" transform="translate(0.886719)" fill="#C62828"/>
<path d="M100.459 108.583H33.8239C28.5669 108.583 24.3047 104.321 24.3047 99.064V32.4294C24.3047 27.1724 28.5669 22.9102 33.8239 22.9102H100.459C105.716 22.9102 109.978 27.1724 109.978 32.4294V99.064C109.978 104.321 105.716 108.583 100.459 108.583Z" fill="#C62828"/>
<path d="M98.0781 63.5474V65.5655C98.0591 65.6749 98.0353 65.782 98.021 65.8915C97.9163 66.7696 97.8473 67.6525 97.7021 68.5236C97.2262 71.3555 96.1981 73.9876 94.6702 76.4221C92.3499 80.118 89.2133 82.9357 85.2724 84.8609C82.9973 85.9771 80.5437 86.6934 78.0235 86.9813C77.4642 87.0456 76.9026 87.1027 76.3433 87.1646H54.6062C54.4967 87.1456 54.3872 87.1122 54.2778 87.1051C52.086 86.9694 49.9775 86.4744 47.9665 85.6011C43.59 83.7043 40.3273 80.6296 38.1926 76.396C37.2479 74.5302 36.6386 72.5145 36.3864 70.4417C36.3245 69.9372 36.265 69.435 36.2031 68.9305V66.9719C36.2245 66.8624 36.2555 66.7554 36.2626 66.6459C36.3769 64.7635 36.7648 62.9381 37.4525 61.1818C39.2993 56.4579 42.5168 52.9525 47.0907 50.6845C49.4634 49.5065 51.9931 48.8878 54.6371 48.7521C55.9317 48.6855 57.2263 48.7569 58.5138 48.9282C58.6304 48.9449 58.7994 48.8925 58.8803 48.8092C60.7318 46.9363 62.8403 45.4132 65.2154 44.2614C67.5214 43.1429 69.9464 42.4218 72.5 42.1339C73.102 42.0649 73.7041 42.0101 74.3062 41.9482H76.1601C76.2815 41.9673 76.4028 41.9887 76.5242 42.003C77.4428 42.1101 78.3662 42.1767 79.2753 42.3266C82.112 42.7978 84.7536 43.8069 87.1976 45.3062C90.9458 47.605 93.8016 50.7178 95.7531 54.635C96.8811 56.8911 97.6069 59.3232 97.8949 61.8244C97.9591 62.3979 98.0163 62.9738 98.0781 63.5474ZM63.4805 50.4894C63.5186 50.537 63.5257 50.5608 63.5424 50.5679C64.8156 51.189 66.0316 51.9173 67.1787 52.7454C67.2501 52.7978 67.431 52.7764 67.519 52.7216C70.6699 50.744 74.0873 50.061 77.7569 50.7059C81.3528 51.3366 84.28 53.1167 86.5146 55.9606C89.0468 59.1781 90.0106 62.8168 89.3133 66.8648C88.8445 69.5778 87.7474 72.0124 85.884 74.0518C82.4832 77.7691 78.221 79.3065 73.2068 78.6568C70.1201 78.257 67.4548 76.9362 65.2487 74.7277C62.4167 71.8934 59.5681 69.0804 56.729 66.2532C56.3506 65.8772 55.9293 65.575 55.3844 65.5083C54.4325 65.3917 53.5686 65.8629 53.1569 66.7101C52.7904 67.4669 52.838 68.3189 53.6328 69.0947C56.798 72.1742 59.9346 75.2798 63.0973 78.3617C63.6375 78.8924 64.2182 79.3802 64.8322 79.8253C67.1406 81.4864 69.7465 82.405 72.5642 82.7762C74.7774 83.0666 76.974 83.0047 79.1515 82.5192C83.309 81.5935 86.7502 79.4921 89.4632 76.2484C91.7026 73.5687 93.0567 70.4893 93.5279 67.0314C93.8016 65.0586 93.7445 63.0571 93.359 61.1033C92.7307 57.9096 91.3671 55.0515 89.18 52.6193C85.0106 47.9811 79.7655 45.9106 73.5233 46.3723C71.122 46.5508 68.8517 47.2481 66.7146 48.3571C65.5652 48.9473 64.48 49.6636 63.4805 50.4894ZM61.955 82.869C61.8693 82.7905 61.7837 82.712 61.698 82.6311C60.4034 81.4197 59.1016 80.2179 57.8237 78.9923C57.5762 78.7543 57.3477 78.6401 56.9979 78.6473C55.7033 78.6782 54.4063 78.683 53.1307 78.3974C46.7861 76.9766 43.0998 70.1394 45.4392 64.1257C47.2835 59.3827 52.3906 56.496 57.4262 57.3861C59.6823 57.7859 61.6647 58.7306 63.2901 60.3941C65.2725 62.4217 67.3144 64.3922 69.3205 66.4008C69.7775 66.8577 70.301 67.0671 70.9317 66.9767C71.7479 66.8601 72.4 66.4745 72.6951 65.6821C72.9854 64.9015 72.845 64.1614 72.2477 63.5617C70.1439 61.4508 68.0902 59.2851 65.9007 57.2647C61.6552 53.3428 56.6504 52.1743 51.1126 53.8425C43.6662 56.0843 39.3064 63.7044 41.008 71.2223C42.5596 78.0713 48.6043 82.8809 55.6795 82.8857C57.6547 82.8881 59.63 82.8857 61.6052 82.8857C61.7051 82.8857 61.8027 82.8786 61.955 82.869Z" fill="white"/>
</svg>
