<svg width="132" height="132" viewBox="0 0 132 132" fill="none" xmlns="http://www.w3.org/2000/svg">
<rect width="132" height="132" fill="white"/>
<path d="M88.1369 57.127C86.9137 52.7593 84.4577 48.9135 81.1609 45.9736L73.866 53.2685C76.5266 55.4342 78.321 58.6215 78.6478 62.2293V64.6218C78.689 64.6218 78.7271 64.6091 78.7684 64.6091C82.4523 64.6091 85.4509 67.6077 85.4509 71.2916C85.4509 74.9756 82.4523 77.9757 78.7684 77.9757C78.7271 77.9757 78.689 77.9646 78.6478 77.963V77.9757H68.0719H65.6191V88.2882H78.6478V88.2819C78.689 88.2819 78.7271 88.2882 78.7684 88.2882C88.1401 88.2882 95.7634 80.6633 95.7634 71.2932C95.7634 65.3833 92.7267 60.1732 88.1369 57.127Z" fill="#1976D2"/>
<path opacity="0.5" d="M58.5752 68.5999L66.0637 61.1114C66.0573 61.1035 66.051 61.0972 66.0462 61.0908L58.5625 68.5745C58.5657 68.5825 58.5704 68.5904 58.5752 68.5999Z" fill="#FFE082"/>
<path opacity="0.5" d="M58.5752 68.5999L66.0637 61.1114C66.0573 61.1035 66.051 61.0972 66.0462 61.0908L58.5625 68.5745C58.5657 68.5825 58.5704 68.5904 58.5752 68.5999Z" fill="#90CAF9"/>
<path d="M65.6202 40.0195C52.7169 40.0195 42.2188 50.5177 42.2188 63.421C42.2188 63.7906 42.2568 64.1508 42.2743 64.5157H52.5868C52.5566 64.154 52.5313 63.7906 52.5313 63.421C52.5313 56.2038 58.403 50.332 65.6202 50.332C68.7441 50.332 71.6141 51.4363 73.867 53.2687L81.1619 45.9738C77.0242 42.2835 71.5872 40.0195 65.6202 40.0195Z" fill="#FF3D00"/>
<path opacity="0.5" d="M52.4712 77.9756C52.4696 77.9756 52.4696 77.9756 52.468 77.9756C51.4987 77.9756 50.5832 77.7582 49.7519 77.3838L42.2793 84.8564C45.124 86.9998 48.6461 88.2881 52.468 88.2881C52.4696 88.2881 52.4696 88.2881 52.4712 88.2881H65.6205V77.9756H52.4712Z" fill="#90CAF9"/>
<path d="M52.4712 77.9756C52.4696 77.9756 52.4696 77.9756 52.468 77.9756C51.4987 77.9756 50.5832 77.7582 49.7519 77.3838L42.2793 84.8564C45.124 86.9998 48.6461 88.2881 52.468 88.2881C52.4696 88.2881 52.4696 88.2881 52.4712 88.2881H65.6205V77.9756H52.4712Z" fill="#4CAF50"/>
<path d="M45.7891 71.2965C45.7891 67.6157 48.7876 64.6172 52.4684 64.6172C55.1703 64.6172 57.5104 66.2402 58.5623 68.574L66.046 61.0903C62.9348 56.9621 58.0102 54.3047 52.4668 54.3047C43.1078 54.3047 35.4766 61.9201 35.4766 71.2965C35.4766 76.8351 38.1594 81.7518 42.2796 84.8567L49.7522 77.3841C47.4232 76.3401 45.7891 74.0079 45.7891 71.2965Z" fill="#FFC107"/>
</svg>
