<svg width="214" height="216" viewBox="0 0 214 216" fill="none" xmlns="http://www.w3.org/2000/svg">
<g filter="url(#filter0_bdd_502_3978)">
<rect width="133.777" height="133.777" transform="translate(40.2227 10)" fill="white"/>
<path d="M129.932 67.8184C128.693 63.3919 126.204 59.4943 122.862 56.5149L115.469 63.908C118.166 66.1028 119.984 69.3331 120.315 72.9894V75.4141C120.357 75.4141 120.396 75.4013 120.438 75.4013C124.171 75.4013 127.21 78.4402 127.21 82.1737C127.21 85.9073 124.171 88.9478 120.438 88.9478C120.396 88.9478 120.357 88.9366 120.315 88.935V88.9478H109.597H107.111V99.3992H120.315V99.3927C120.357 99.3927 120.396 99.3992 120.438 99.3992C129.935 99.3992 137.661 91.6716 137.661 82.1753C137.661 76.1859 134.584 70.9056 129.932 67.8184Z" fill="#1976D2"/>
<path opacity="0.5" d="M99.9718 79.4453L107.561 71.856C107.555 71.8479 107.548 71.8415 107.543 71.8351L99.959 79.4195C99.9622 79.4276 99.967 79.4356 99.9718 79.4453Z" fill="#FFE082"/>
<path opacity="0.5" d="M99.9718 79.4453L107.561 71.856C107.555 71.8479 107.548 71.8415 107.543 71.8351L99.959 79.4195C99.9622 79.4276 99.967 79.4356 99.9718 79.4453Z" fill="#90CAF9"/>
<path d="M107.111 50.4805C94.034 50.4805 83.3945 61.1199 83.3945 74.197C83.3945 74.5716 83.4331 74.9366 83.4508 75.3064H93.9021C93.8716 74.9398 93.8459 74.5716 93.8459 74.197C93.8459 66.8826 99.7967 60.9318 107.111 60.9318C110.277 60.9318 113.186 62.0509 115.469 63.908L122.862 56.5149C118.669 52.7749 113.158 50.4805 107.111 50.4805Z" fill="#FF3D00"/>
<path opacity="0.5" d="M93.7852 88.9479C93.7836 88.9479 93.7836 88.9479 93.782 88.9479C92.7996 88.9479 91.8718 88.7276 91.0293 88.3481L83.4561 95.9213C86.339 98.0936 89.9086 99.3992 93.782 99.3992C93.7836 99.3992 93.7836 99.3992 93.7852 99.3992H107.111V88.9479H93.7852Z" fill="#90CAF9"/>
<path d="M93.7852 88.9479C93.7836 88.9479 93.7836 88.9479 93.782 88.9479C92.7996 88.9479 91.8718 88.7276 91.0293 88.3481L83.4561 95.9213C86.339 98.0936 89.9086 99.3992 93.782 99.3992C93.7836 99.3992 93.7836 99.3992 93.7852 99.3992H107.111V88.9479H93.7852Z" fill="#4CAF50"/>
<path d="M87.0119 82.1786C87.0119 78.4483 90.0508 75.4093 93.7811 75.4093C96.5194 75.4093 98.891 77.0542 99.9571 79.4194L107.542 71.835C104.388 67.6512 99.3975 64.958 93.7795 64.958C84.2945 64.958 76.5605 72.6759 76.5605 82.1786C76.5605 87.7918 79.2795 92.7747 83.4552 95.9213L91.0284 88.3481C88.668 87.2901 87.0119 84.9265 87.0119 82.1786Z" fill="#FFC107"/>
</g>
<defs>
<filter id="filter0_bdd_502_3978" x="0.222656" y="-22" width="213.777" height="237.777" filterUnits="userSpaceOnUse" color-interpolation-filters="sRGB">
<feFlood flood-opacity="0" result="BackgroundImageFix"/>
<feGaussianBlur in="BackgroundImageFix" stdDeviation="16"/>
<feComposite in2="SourceAlpha" operator="in" result="effect1_backgroundBlur_502_3978"/>
<feColorMatrix in="SourceAlpha" type="matrix" values="0 0 0 0 0 0 0 0 0 0 0 0 0 0 0 0 0 0 127 0" result="hardAlpha"/>
<feMorphology radius="8" operator="erode" in="SourceAlpha" result="effect2_dropShadow_502_3978"/>
<feOffset dy="32"/>
<feGaussianBlur stdDeviation="24"/>
<feComposite in2="hardAlpha" operator="out"/>
<feColorMatrix type="matrix" values="0 0 0 0 0 0 0 0 0 0 0 0 0 0 0 0 0 0 0.1 0"/>
<feBlend mode="multiply" in2="effect1_backgroundBlur_502_3978" result="effect2_dropShadow_502_3978"/>
<feColorMatrix in="SourceAlpha" type="matrix" values="0 0 0 0 0 0 0 0 0 0 0 0 0 0 0 0 0 0 127 0" result="hardAlpha"/>
<feMorphology radius="4" operator="erode" in="SourceAlpha" result="effect3_dropShadow_502_3978"/>
<feOffset/>
<feGaussianBlur stdDeviation="7"/>
<feComposite in2="hardAlpha" operator="out"/>
<feColorMatrix type="matrix" values="0 0 0 0 0 0 0 0 0 0 0 0 0 0 0 0 0 0 0.05 0"/>
<feBlend mode="multiply" in2="effect2_dropShadow_502_3978" result="effect3_dropShadow_502_3978"/>
<feBlend mode="normal" in="SourceGraphic" in2="effect3_dropShadow_502_3978" result="shape"/>
</filter>
</defs>
</svg>
