<svg width="214" height="217" viewBox="0 0 214 217" fill="none" xmlns="http://www.w3.org/2000/svg">
<g filter="url(#filter0_bdd_502_4032)">
<rect width="133.777" height="133.777" transform="translate(40 10.8285)" fill="#222222"/>
<path d="M120.44 48.0709C119.348 48.0342 118.206 48.2244 117.061 48.5957C114.771 49.3382 112.371 50.7853 109.908 52.7888C108.943 53.574 107.969 54.4715 106.991 55.4238C106.035 54.4957 105.081 53.6195 104.138 52.8516C101.676 50.8497 99.2829 49.4049 96.9978 48.664C94.7127 47.9232 92.4389 47.9002 90.5715 48.9784C88.7041 50.0565 87.5874 52.0357 87.0864 54.3851C86.5854 56.7345 86.6379 59.5324 87.1411 62.6646C87.3158 63.7526 87.5678 64.894 87.8517 66.0568C86.7847 66.3802 85.7485 66.7202 84.7876 67.0955C81.8876 68.2282 79.4881 69.5832 77.7408 71.1957C75.9935 72.8081 74.8652 74.7651 74.8652 76.914C74.8652 79.0629 75.9935 81.0172 77.7408 82.6296C79.4881 84.2421 81.8876 85.5998 84.7876 86.7325C85.8151 87.1338 86.9275 87.4951 88.0759 87.8368C87.6628 89.3802 87.3281 90.878 87.1001 92.2977C86.5965 95.4325 86.5433 98.2307 87.0454 100.585C87.5475 102.94 88.6648 104.931 90.5414 106.014C92.4181 107.098 94.702 107.071 96.9923 106.328C99.2827 105.586 101.68 104.142 104.143 102.138C105.099 101.36 106.067 100.473 107.035 99.5304C108.008 100.478 108.98 101.37 109.941 102.152C112.402 104.154 114.798 105.598 117.083 106.339C119.368 107.08 121.639 107.103 123.507 106.025C125.374 104.947 126.491 102.968 126.992 100.618C127.493 98.2689 127.437 95.471 126.934 92.3387C126.706 90.9151 126.371 89.4151 125.956 87.8668C127.142 87.5169 128.29 87.1458 129.348 86.7325C132.248 85.5998 134.647 84.2421 136.395 82.6296C138.142 81.0172 139.27 79.0629 139.27 76.914C139.27 74.7651 138.142 72.8081 136.395 71.1957C134.647 69.5832 132.248 68.2282 129.348 67.0955C128.373 66.7148 127.321 66.3704 126.237 66.0432C126.523 64.8732 126.778 63.7237 126.953 62.6291C127.457 59.4943 127.51 56.6934 127.008 54.3386C126.506 51.9839 125.386 49.9963 123.509 48.9128C122.571 48.371 121.531 48.1076 120.44 48.0709ZM120.311 50.9191C120.996 50.9378 121.58 51.1008 122.08 51.3893C123.079 51.9662 123.818 53.0891 124.212 54.9373C124.606 56.7854 124.592 59.2823 124.127 62.1781C123.968 63.1695 123.737 64.2203 123.474 65.2969C120.612 64.6082 117.476 64.0968 114.134 63.7963C112.455 61.47 110.729 59.3538 108.989 57.4739C109.909 56.5761 110.823 55.7365 111.715 55.0111C113.99 53.1603 116.144 51.901 117.941 51.3182C118.84 51.0268 119.626 50.9004 120.311 50.9191ZM93.7532 50.9273C94.4419 50.9081 95.2299 51.0342 96.1313 51.3264C97.934 51.9108 100.092 53.1696 102.369 55.022C103.243 55.7327 104.136 56.554 105.037 57.4301C103.285 59.3249 101.547 61.4633 99.857 63.81C96.5266 64.116 93.4018 64.6322 90.5524 65.3243C90.2913 64.2528 90.0631 63.2062 89.9046 62.2191C89.439 59.3208 89.4273 56.8208 89.8225 54.9673C90.2178 53.1139 90.9625 51.9852 91.971 51.4029C92.4753 51.1118 93.0645 50.9465 93.7532 50.9273ZM107.035 59.4884C108.175 60.7289 109.315 62.0869 110.446 63.5475C109.335 63.5012 108.21 63.4737 107.068 63.4737C105.903 63.4737 104.756 63.5021 103.624 63.5503C104.755 62.0883 105.895 60.73 107.035 59.4884ZM107.068 66.3001C108.971 66.3001 110.826 66.3783 112.63 66.5106C113.872 68.2938 115.085 70.1856 116.241 72.1879C117.257 73.9473 118.176 75.704 119.013 77.4388C118.167 79.1967 117.233 80.9771 116.203 82.7608C115.296 84.3309 114.35 85.8222 113.387 87.26C111.349 87.4304 109.237 87.5252 107.068 87.5252C104.846 87.5252 102.687 87.4248 100.603 87.2464C99.657 85.8292 98.7263 84.3578 97.8342 82.8127C96.8068 81.0331 95.8766 79.2587 95.0325 77.5044C95.8802 75.7403 96.8145 73.9532 97.8479 72.1633C98.9979 70.1715 100.208 68.2906 101.442 66.516C103.266 66.3808 105.143 66.3001 107.068 66.3001ZM116.236 66.8605C118.542 67.1483 120.707 67.5482 122.722 68.0276C122.124 69.9886 121.387 72.0368 120.494 74.1505C119.915 73.0331 119.314 71.9119 118.666 70.7884C117.88 69.4276 117.063 68.1281 116.236 66.8605ZM97.7522 66.8823C96.9418 68.1269 96.1443 69.3998 95.3741 70.7337C94.7172 71.8717 94.1043 73.0079 93.5181 74.1396C92.6331 72.0386 91.9007 70.002 91.3068 68.0522C93.3077 67.5717 95.4612 67.1735 97.7522 66.8823ZM125.491 68.7711C126.483 69.0713 127.441 69.3846 128.32 69.7278C130.993 70.772 133.108 72.0083 134.479 73.2731C135.849 74.5378 136.444 75.7439 136.444 76.914C136.444 78.0841 135.849 79.2902 134.479 80.5549C133.108 81.8197 130.993 83.0561 128.32 84.1002C127.343 84.4816 126.27 84.8276 125.155 85.1553C124.359 82.6939 123.343 80.1259 122.134 77.5044C123.524 74.4947 124.647 71.5602 125.491 68.7711ZM88.598 68.7848C89.4322 71.5459 90.5407 74.4515 91.9109 77.4306C90.6941 80.0674 89.6733 82.6499 88.874 85.1252C87.7978 84.8061 86.7611 84.4696 85.8153 84.1002C83.1421 83.0561 81.0275 81.8197 79.6569 80.5549C78.2864 79.2902 77.6916 78.0841 77.6916 76.914C77.6916 75.7439 78.2864 74.5378 79.6569 73.2731C81.0275 72.0083 83.1421 70.772 85.8153 69.7278C86.6807 69.3898 87.6228 69.081 88.598 68.7848ZM107.068 70.485C103.22 70.485 100.07 73.6345 100.07 77.4826C100.07 81.3306 103.22 84.4801 107.068 84.4801C110.916 84.4801 114.065 81.3306 114.065 77.4826C114.065 73.6345 110.916 70.485 107.068 70.485ZM120.53 80.79C121.264 82.5271 121.902 84.2269 122.438 85.866C120.755 86.2562 118.963 86.5851 117.078 86.8445C117.62 85.9787 118.156 85.0967 118.679 84.1904C119.335 83.0543 119.944 81.9197 120.53 80.79ZM93.5509 80.7927C94.1395 81.9294 94.7524 83.0691 95.4124 84.2123C95.9291 85.1072 96.4567 85.9809 96.9923 86.8363C95.1128 86.5757 93.3262 86.2458 91.6485 85.855C92.182 84.221 92.8203 82.5247 93.5509 80.7927ZM90.8421 88.5721C93.375 89.1721 96.1203 89.633 99.0315 89.9333C100.975 92.7446 102.999 95.2694 105.037 97.4776C104.126 98.3659 103.223 99.1996 102.339 99.9185C100.064 101.769 97.907 103.026 96.1094 103.609C94.3119 104.191 92.9704 104.115 91.971 103.538C90.9717 102.961 90.2358 101.838 89.8417 99.9896C89.4476 98.1415 89.4585 95.6473 89.9237 92.7515C90.1347 91.4378 90.4501 90.0311 90.8421 88.5721ZM123.247 88.583C123.642 90.0502 123.959 91.4634 124.171 92.7843C124.636 95.6826 124.648 98.1799 124.253 100.033C123.858 101.887 123.116 103.018 122.107 103.6C121.098 104.183 119.747 104.261 117.944 103.677C116.141 103.093 113.984 101.831 111.706 99.9787C110.816 99.2546 109.907 98.4169 108.989 97.5213C111.04 95.3048 113.079 92.7663 115.036 89.9388C117.954 89.6405 120.707 89.1823 123.247 88.583ZM102.683 90.2203C104.12 90.2986 105.576 90.3515 107.068 90.3515C108.51 90.3515 109.919 90.3018 111.31 90.2285C109.888 92.1475 108.438 93.8921 106.994 95.463C105.551 93.8887 104.104 92.141 102.683 90.2203Z" fill="#61DAFB"/>
</g>
<defs>
<filter id="filter0_bdd_502_4032" x="0" y="-21.1715" width="213.777" height="237.777" filterUnits="userSpaceOnUse" color-interpolation-filters="sRGB">
<feFlood flood-opacity="0" result="BackgroundImageFix"/>
<feGaussianBlur in="BackgroundImageFix" stdDeviation="16"/>
<feComposite in2="SourceAlpha" operator="in" result="effect1_backgroundBlur_502_4032"/>
<feColorMatrix in="SourceAlpha" type="matrix" values="0 0 0 0 0 0 0 0 0 0 0 0 0 0 0 0 0 0 127 0" result="hardAlpha"/>
<feMorphology radius="8" operator="erode" in="SourceAlpha" result="effect2_dropShadow_502_4032"/>
<feOffset dy="32"/>
<feGaussianBlur stdDeviation="24"/>
<feComposite in2="hardAlpha" operator="out"/>
<feColorMatrix type="matrix" values="0 0 0 0 0 0 0 0 0 0 0 0 0 0 0 0 0 0 0.1 0"/>
<feBlend mode="multiply" in2="effect1_backgroundBlur_502_4032" result="effect2_dropShadow_502_4032"/>
<feColorMatrix in="SourceAlpha" type="matrix" values="0 0 0 0 0 0 0 0 0 0 0 0 0 0 0 0 0 0 127 0" result="hardAlpha"/>
<feMorphology radius="4" operator="erode" in="SourceAlpha" result="effect3_dropShadow_502_4032"/>
<feOffset/>
<feGaussianBlur stdDeviation="7"/>
<feComposite in2="hardAlpha" operator="out"/>
<feColorMatrix type="matrix" values="0 0 0 0 0 0 0 0 0 0 0 0 0 0 0 0 0 0 0.05 0"/>
<feBlend mode="multiply" in2="effect2_dropShadow_502_4032" result="effect3_dropShadow_502_4032"/>
<feBlend mode="normal" in="SourceGraphic" in2="effect3_dropShadow_502_4032" result="shape"/>
</filter>
</defs>
</svg>
