<svg width="132" height="133" viewBox="0 0 132 133" fill="none" xmlns="http://www.w3.org/2000/svg">
<rect width="132" height="132" transform="translate(0 0.828125)" fill="#222222"/>
<path d="M79.3713 37.5757C78.2947 37.5395 77.1677 37.7272 76.0377 38.0935C73.7778 38.8262 71.4097 40.254 68.9794 42.2309C68.0269 43.0057 67.0659 43.8913 66.1015 44.8309C65.1585 43.9151 64.2172 43.0506 63.2858 42.293C60.8574 40.3176 58.4957 38.892 56.2409 38.161C53.9861 37.43 51.7426 37.4073 49.9 38.4711C48.0574 39.535 46.9555 41.4878 46.4611 43.806C45.9668 46.1242 46.0186 48.8849 46.5151 51.9756C46.6875 53.0491 46.9362 54.1754 47.2163 55.3227C46.1635 55.6418 45.141 55.9773 44.1929 56.3476C41.3315 57.4652 38.9638 58.8023 37.2397 60.3933C35.5156 61.9843 34.4023 63.9153 34.4023 66.0357C34.4023 68.156 35.5156 70.0843 37.2397 71.6753C38.9638 73.2664 41.3315 74.6061 44.1929 75.7237C45.2067 76.1197 46.3044 76.4762 47.4375 76.8133C47.0299 78.3363 46.6997 79.8141 46.4746 81.215C45.9777 84.3082 45.9253 87.0692 46.4207 89.3927C46.9161 91.7162 48.0186 93.6801 49.8703 94.7492C51.722 95.8182 53.9756 95.792 56.2355 95.0593C58.4954 94.3267 60.8609 92.9016 63.2911 90.9246C64.2348 90.157 65.1894 89.2814 66.1447 88.3516C67.1046 89.2865 68.0639 90.1671 69.0117 90.9381C71.4401 92.9135 73.8045 94.3391 76.0593 95.0701C78.3141 95.8011 80.5549 95.8238 82.3975 94.7599C84.2401 93.6961 85.342 91.7433 85.8363 89.4251C86.3307 87.1068 86.2762 84.3462 85.7797 81.2555C85.554 79.8508 85.2236 78.3707 84.8141 76.843C85.9847 76.4977 87.117 76.1316 88.1612 75.7237C91.0227 74.6061 93.3903 73.2664 95.1144 71.6753C96.8385 70.0843 97.9518 68.156 97.9518 66.0357C97.9518 63.9153 96.8385 61.9843 95.1144 60.3933C93.3903 58.8023 91.0227 57.4652 88.1612 56.3476C87.1995 55.972 86.1613 55.6321 85.0919 55.3092C85.3743 54.1549 85.6251 53.0205 85.7986 51.9405C86.2955 48.8474 86.348 46.0837 85.8525 43.7602C85.3571 41.4367 84.2519 39.4755 82.4002 38.4064C81.4743 37.8719 80.448 37.6119 79.3713 37.5757ZM79.2446 40.3861C79.9202 40.4046 80.4966 40.5654 80.9896 40.85C81.9757 41.4193 82.7045 42.5273 83.0934 44.3509C83.4822 46.1744 83.4688 48.6382 83.0098 51.4955C82.8526 52.4738 82.6244 53.5106 82.3651 54.5729C79.5412 53.8933 76.4469 53.3887 73.1491 53.0922C71.4924 50.7968 69.7895 48.7087 68.0731 46.8538C68.9806 45.968 69.8822 45.1395 70.7622 44.4237C73.0071 42.5975 75.1325 41.3549 76.9062 40.7799C77.793 40.4924 78.5689 40.3676 79.2446 40.3861ZM53.0394 40.3942C53.719 40.3752 54.4965 40.4996 55.3859 40.788C57.1647 41.3647 59.2938 42.6067 61.5407 44.4345C62.4028 45.1358 63.2846 45.9462 64.1731 46.8106C62.4444 48.6803 60.7296 50.7902 59.0621 53.1057C55.7759 53.4077 52.6927 53.9171 49.8811 54.5999C49.6235 53.5427 49.3983 52.51 49.2419 51.536C48.7825 48.6762 48.771 46.2093 49.161 44.3805C49.5509 42.5517 50.2857 41.438 51.2809 40.8635C51.7785 40.5762 52.3599 40.4132 53.0394 40.3942ZM66.1447 48.8416C67.2695 50.0656 68.3949 51.4055 69.5107 52.8468C68.4142 52.8011 67.3043 52.7739 66.1771 52.7739C65.0274 52.7739 63.8963 52.8019 62.7787 52.8495C63.8949 51.4069 65.0195 50.0667 66.1447 48.8416ZM66.1771 55.5628C68.055 55.5628 69.8853 55.6399 71.6657 55.7704C72.8907 57.53 74.0879 59.3966 75.2286 61.3724C76.2309 63.1084 77.1379 64.8417 77.9635 66.5535C77.1292 68.288 76.207 70.0448 75.1908 71.8048C74.2963 73.3541 73.3623 74.8255 72.4128 76.2442C70.4017 76.4123 68.3179 76.5059 66.1771 76.5059C63.9847 76.5059 61.854 76.4068 59.7984 76.2308C58.8647 74.8324 57.9464 73.3806 57.0662 71.856C56.0524 70.1001 55.1346 68.3492 54.3017 66.6182C55.1381 64.8775 56.06 63.1142 57.0797 61.3481C58.2144 59.3827 59.4081 57.5268 60.6264 55.7758C62.4259 55.6424 64.2775 55.5628 66.1771 55.5628ZM75.2232 56.1157C77.4986 56.3997 79.6351 56.7942 81.6234 57.2673C81.0332 59.2022 80.3062 61.2232 79.4253 63.3089C78.8533 62.2063 78.261 61.1 77.6209 59.9914C76.8457 58.6487 76.0396 57.3665 75.2232 56.1157ZM56.9853 56.1373C56.1856 57.3653 55.3987 58.6213 54.6388 59.9375C53.9905 61.0603 53.3859 62.1815 52.8075 63.2981C51.9342 61.225 51.2115 59.2155 50.6255 57.2916C52.5998 56.8175 54.7247 56.4245 56.9853 56.1373ZM84.3556 58.001C85.3345 58.2971 86.2799 58.6062 87.1471 58.945C89.7849 59.9752 91.8714 61.1952 93.2237 62.4431C94.576 63.691 95.163 64.8811 95.163 66.0357C95.163 67.1902 94.5761 68.3803 93.2237 69.6282C91.8714 70.8762 89.7849 72.0961 87.1471 73.1264C86.1835 73.5028 85.1246 73.8441 84.0239 74.1675C83.2386 71.7387 82.2364 69.2049 81.0436 66.6182C82.415 63.6485 83.523 60.753 84.3556 58.001ZM47.9527 58.0144C48.7758 60.7389 49.8695 63.6059 51.2216 66.5454C50.0209 69.1472 49.0137 71.6954 48.2251 74.1378C47.1631 73.8229 46.1402 73.4909 45.207 73.1264C42.5692 72.0961 40.4827 70.8762 39.1304 69.6282C37.7781 68.3803 37.1912 67.1902 37.1912 66.0357C37.1912 64.8811 37.7781 63.691 39.1304 62.4431C40.4827 61.1952 42.5692 59.9752 45.207 58.945C46.0608 58.6115 46.9904 58.3068 47.9527 58.0144ZM66.1771 59.6921C62.3801 59.6921 59.2724 62.7997 59.2724 66.5967C59.2724 70.3936 62.3801 73.5013 66.1771 73.5013C69.974 73.5013 73.0817 70.3936 73.0817 66.5967C73.0817 62.7997 69.974 59.6921 66.1771 59.6921ZM79.4604 69.8602C80.1846 71.5742 80.8141 73.2514 81.3429 74.8687C79.6822 75.2538 77.9139 75.5783 76.0539 75.8343C76.5893 74.9799 77.1181 74.1097 77.6344 73.2154C78.2816 72.0944 78.8827 70.9749 79.4604 69.8602ZM52.8398 69.8629C53.4205 70.9845 54.0253 72.109 54.6766 73.237C55.1864 74.12 55.707 74.9821 56.2355 75.8262C54.381 75.569 52.6181 75.2435 50.9626 74.8579C51.4891 73.2455 52.1189 71.5719 52.8398 69.8629ZM50.167 77.5389C52.6662 78.1309 55.3751 78.5857 58.2475 78.882C60.1654 81.656 62.1623 84.1472 64.1731 86.3261C63.2741 87.2026 62.3831 88.0253 61.511 88.7346C59.2661 90.5608 57.138 91.8007 55.3643 92.3757C53.5907 92.9507 52.2669 92.8749 51.2809 92.3056C50.2948 91.7363 49.5687 90.6283 49.1798 88.8047C48.791 86.9812 48.8017 84.5201 49.2608 81.6628C49.469 80.3665 49.7802 78.9785 50.167 77.5389ZM82.1413 77.5497C82.531 78.9973 82.8435 80.3918 83.0529 81.6951C83.5123 84.5549 83.5238 87.0191 83.1338 88.8479C82.7439 90.6767 82.0118 91.793 81.0166 92.3676C80.0214 92.9422 78.6877 93.0198 76.9089 92.4431C75.1301 91.8664 73.001 90.6217 70.7541 88.7939C69.8758 88.0795 68.9786 87.2529 68.0731 86.3692C70.097 84.1822 72.1088 81.6774 74.0391 78.8874C76.9188 78.5931 79.6352 78.141 82.1413 77.5497ZM61.8509 79.1652C63.2688 79.2425 64.7053 79.2947 66.1771 79.2947C67.6001 79.2947 68.9901 79.2456 70.363 79.1733C68.9596 81.0668 67.529 82.7882 66.1042 84.3383C64.6803 82.7849 63.2525 81.0604 61.8509 79.1652Z" fill="#61DAFB"/>
</svg>
