<svg width="215" height="217" viewBox="0 0 215 217" fill="none" xmlns="http://www.w3.org/2000/svg">
<g filter="url(#filter0_bdd_502_3987)">
<rect width="133.777" height="133.777" transform="translate(40.8281 10.8285)" fill="white"/>
<g clip-path="url(#clip0_502_3987)">
<path d="M92.8178 73.8841C92.8178 74.748 92.9104 75.4469 93.0725 75.9607C93.2577 76.4744 93.4878 77.0344 93.8119 77.6408C93.9277 77.8274 93.974 78.0141 93.974 78.1776C93.974 78.4106 93.8351 78.6436 93.5355 78.878L92.0797 79.8577C91.8714 79.9981 91.6644 80.0676 91.4792 80.0676C91.2477 80.0676 91.0176 79.9503 90.786 79.7405C90.4619 79.3903 90.1855 79.017 89.9539 78.6436C89.7224 78.2471 89.4923 77.8043 89.2376 77.2674C87.436 79.4135 85.1712 80.4872 82.4449 80.4872C80.5043 80.4872 78.9559 79.9272 77.8243 78.8071C76.6926 77.6871 76.1152 76.1936 76.1152 74.3269C76.1152 72.3443 76.8084 70.7337 78.2179 69.521C79.6274 68.3084 81.4985 67.7006 83.8775 67.7006C84.6633 67.7006 85.4722 67.77 86.326 67.8872C87.1798 68.0045 88.0582 68.1911 88.9829 68.401V66.6977C88.9829 64.925 88.6139 63.6877 87.8976 62.9642C87.1581 62.2406 85.9107 61.8904 84.1322 61.8904C83.3233 61.8904 82.4926 61.983 81.6374 62.1943C80.7822 62.4042 79.9515 62.6603 79.1426 62.9873C78.7736 63.1509 78.4957 63.2435 78.3337 63.2912C78.1716 63.3375 78.0558 63.3607 77.9646 63.3607C77.6405 63.3607 77.4799 63.1277 77.4799 62.6371V61.4939C77.4799 61.1206 77.5262 60.8413 77.6419 60.6778C77.7577 60.5142 77.9661 60.3507 78.2888 60.1872C79.0977 59.7675 80.0673 59.4173 81.2004 59.1366C82.332 58.8327 83.5331 58.6938 84.8037 58.6938C87.5532 58.6938 89.5632 59.3233 90.8569 60.5837C92.1275 61.8441 92.7743 63.7572 92.7743 66.3229V73.8826H92.8178V73.8841ZM83.4376 77.4295C84.2002 77.4295 84.986 77.2891 85.8167 77.0098C86.6487 76.7305 87.3882 76.2168 88.0119 75.5164C88.3809 75.0736 88.6588 74.583 88.7977 74.023C88.9366 73.463 89.0292 72.7857 89.0292 71.9927V71.013C88.3592 70.8495 87.6429 70.7091 86.9034 70.6165C86.164 70.5239 85.4476 70.4761 84.7313 70.4761C83.1829 70.4761 82.0513 70.78 81.2886 71.4095C80.526 72.039 80.157 72.9261 80.157 74.0924C80.157 75.1894 80.4349 76.0055 81.0122 76.5656C81.5665 77.1502 82.3754 77.4295 83.4376 77.4295ZM101.99 79.9503C101.574 79.9503 101.296 79.8809 101.111 79.7174C100.926 79.577 100.765 79.2514 100.626 78.8071L95.1968 60.7718C95.0579 60.3058 94.9884 60.002 94.9884 59.8384C94.9884 59.4651 95.1737 59.2552 95.5427 59.2552H97.8074C98.2459 59.2552 98.5469 59.3247 98.7089 59.4882C98.8942 59.6286 99.0316 59.9542 99.1706 60.3985L103.052 75.8449L106.655 60.3985C106.771 59.9325 106.91 59.6286 107.093 59.4882C107.279 59.3479 107.601 59.2552 108.018 59.2552H109.866C110.305 59.2552 110.606 59.3247 110.791 59.4882C110.976 59.6286 111.137 59.9542 111.229 60.3985L114.879 76.0316L118.876 60.3985C119.015 59.9325 119.177 59.6286 119.337 59.4882C119.523 59.3479 119.822 59.2552 120.239 59.2552H122.388C122.757 59.2552 122.965 59.4419 122.965 59.8384C122.965 59.9556 122.942 60.0714 122.919 60.2118C122.896 60.3522 122.85 60.5388 122.757 60.795L117.19 78.8303C117.051 79.2963 116.889 79.6001 116.705 79.7405C116.521 79.8809 116.22 79.9735 115.827 79.9735H113.84C113.401 79.9735 113.1 79.904 112.915 79.7405C112.73 79.577 112.569 79.2745 112.477 78.8071L108.897 63.7572L105.34 78.784C105.224 79.2499 105.085 79.5538 104.901 79.7174C104.716 79.8809 104.393 79.9503 103.976 79.9503H101.99ZM131.676 80.5798C130.474 80.5798 129.273 80.4395 128.119 80.1602C126.964 79.8809 126.062 79.577 125.462 79.2268C125.093 79.017 124.838 78.784 124.745 78.5741C124.653 78.3643 124.606 78.1313 124.606 77.9215V76.732C124.606 76.2414 124.792 76.0084 125.137 76.0084C125.276 76.0084 125.415 76.0316 125.553 76.0779C125.692 76.1242 125.899 76.2183 126.13 76.3109C126.916 76.6611 127.77 76.9404 128.671 77.127C129.596 77.3137 130.496 77.4063 131.421 77.4063C132.877 77.4063 134.008 77.1502 134.794 76.6365C135.58 76.1227 135.995 75.376 135.995 74.4195C135.995 73.7668 135.787 73.23 135.371 72.7857C134.956 72.3429 134.17 71.9464 133.039 71.573L129.689 70.5224C128.003 69.9856 126.755 69.1925 125.993 68.1419C125.23 67.1159 124.838 65.9727 124.838 64.7586C124.838 63.7789 125.046 62.915 125.462 62.1683C125.877 61.4216 126.433 60.7689 127.124 60.2552C127.818 59.7183 128.603 59.3218 129.527 59.0425C130.451 58.7647 131.421 58.6475 132.438 58.6475C132.946 58.6475 133.477 58.6706 133.987 58.7401C134.518 58.8095 135.002 58.9036 135.489 58.9962C135.95 59.1134 136.39 59.2292 136.806 59.3696C137.221 59.5099 137.545 59.6489 137.777 59.7892C138.101 59.9759 138.331 60.1626 138.47 60.3724C138.609 60.5591 138.678 60.8152 138.678 61.1423V62.2392C138.678 62.7298 138.493 62.9859 138.147 62.9859C137.962 62.9859 137.662 62.8933 137.269 62.7066C135.952 62.1003 134.473 61.7964 132.833 61.7964C131.516 61.7964 130.477 62.0062 129.761 62.449C129.045 62.8918 128.676 63.5691 128.676 64.5256C128.676 65.1783 128.907 65.7383 129.369 66.1826C129.83 66.6254 130.686 67.0696 131.91 67.4661L135.191 68.5167C136.853 69.0536 138.056 69.8003 138.771 70.7569C139.486 71.7134 139.833 72.8103 139.833 74.023C139.833 75.0258 139.624 75.9361 139.232 76.7291C138.817 77.5221 138.261 78.2225 137.546 78.7825C136.83 79.3657 135.975 79.7854 134.982 80.0893C133.939 80.4163 132.853 80.5798 131.676 80.5798Z" fill="#252F3E"/>
<path d="M136.042 91.9194C128.442 97.5891 117.399 100.599 107.903 100.599C94.5967 100.599 82.606 95.6297 73.55 87.3696C72.8337 86.717 73.4805 85.8299 74.3358 86.3436C84.1313 92.0829 96.2132 95.5603 108.712 95.5603C117.144 95.5603 126.409 93.7876 134.932 90.1466C136.204 89.5635 137.289 90.986 136.042 91.9194ZM139.207 88.2799C138.236 87.0194 132.784 87.6735 130.313 87.976C129.573 88.0686 129.458 87.416 130.128 86.9254C134.47 83.8459 141.609 84.7316 142.441 85.759C143.273 86.8096 142.209 94.0191 138.145 97.4719C137.521 98.0088 136.92 97.728 137.197 97.0291C138.121 94.7195 140.178 89.5157 139.207 88.2799Z" fill="#FF9900"/>
</g>
</g>
<defs>
<filter id="filter0_bdd_502_3987" x="0.828125" y="-21.1715" width="213.777" height="237.777" filterUnits="userSpaceOnUse" color-interpolation-filters="sRGB">
<feFlood flood-opacity="0" result="BackgroundImageFix"/>
<feGaussianBlur in="BackgroundImageFix" stdDeviation="16"/>
<feComposite in2="SourceAlpha" operator="in" result="effect1_backgroundBlur_502_3987"/>
<feColorMatrix in="SourceAlpha" type="matrix" values="0 0 0 0 0 0 0 0 0 0 0 0 0 0 0 0 0 0 127 0" result="hardAlpha"/>
<feMorphology radius="8" operator="erode" in="SourceAlpha" result="effect2_dropShadow_502_3987"/>
<feOffset dy="32"/>
<feGaussianBlur stdDeviation="24"/>
<feComposite in2="hardAlpha" operator="out"/>
<feColorMatrix type="matrix" values="0 0 0 0 0 0 0 0 0 0 0 0 0 0 0 0 0 0 0.1 0"/>
<feBlend mode="multiply" in2="effect1_backgroundBlur_502_3987" result="effect2_dropShadow_502_3987"/>
<feColorMatrix in="SourceAlpha" type="matrix" values="0 0 0 0 0 0 0 0 0 0 0 0 0 0 0 0 0 0 127 0" result="hardAlpha"/>
<feMorphology radius="4" operator="erode" in="SourceAlpha" result="effect3_dropShadow_502_3987"/>
<feOffset/>
<feGaussianBlur stdDeviation="7"/>
<feComposite in2="hardAlpha" operator="out"/>
<feColorMatrix type="matrix" values="0 0 0 0 0 0 0 0 0 0 0 0 0 0 0 0 0 0 0.05 0"/>
<feBlend mode="multiply" in2="effect2_dropShadow_502_3987" result="effect3_dropShadow_502_3987"/>
<feBlend mode="normal" in="SourceGraphic" in2="effect3_dropShadow_502_3987" result="shape"/>
</filter>
<clipPath id="clip0_502_3987">
<rect width="69.4612" height="69.4612" fill="white" transform="translate(73.2432 42.7292)"/>
</clipPath>
</defs>
</svg>
