<svg width="133" height="133" viewBox="0 0 133 133" fill="none" xmlns="http://www.w3.org/2000/svg">
<rect width="132" height="132" transform="translate(0.570312 0.828125)" fill="white"/>
<g clip-path="url(#clip0_931_5963)">
<path d="M51.8693 63.0459C51.8693 63.8984 51.9607 64.588 52.1206 65.0949C52.3034 65.6018 52.5304 66.1544 52.8503 66.7527C52.9645 66.9369 53.0102 67.1211 53.0102 67.2824C53.0102 67.5123 52.8731 67.7422 52.5775 67.9735L51.1411 68.9402C50.9355 69.0787 50.7313 69.1473 50.5485 69.1473C50.3201 69.1473 50.093 69.0316 49.8646 68.8246C49.5447 68.479 49.272 68.1106 49.0435 67.7422C48.8151 67.351 48.588 66.9141 48.3367 66.3843C46.559 68.5019 44.3244 69.5613 41.6342 69.5613C39.7194 69.5613 38.1916 69.0088 37.075 67.9036C35.9584 66.7984 35.3887 65.3248 35.3887 63.4828C35.3887 61.5266 36.0726 59.9374 37.4634 58.7408C38.8541 57.5443 40.7004 56.9446 43.0478 56.9446C43.8232 56.9446 44.6214 57.0131 45.4638 57.1288C46.3063 57.2444 47.173 57.4286 48.0854 57.6357V55.955C48.0854 54.2059 47.7213 52.985 47.0145 52.2711C46.2849 51.5572 45.054 51.2116 43.2992 51.2116C42.501 51.2116 41.6814 51.303 40.8375 51.5115C39.9936 51.7185 39.174 51.9712 38.3758 52.2939C38.0117 52.4553 37.7375 52.5467 37.5776 52.5938C37.4177 52.6395 37.3035 52.6623 37.2135 52.6623C36.8937 52.6623 36.7352 52.4324 36.7352 51.9484V50.8204C36.7352 50.452 36.7809 50.1764 36.8951 50.015C37.0093 49.8537 37.2149 49.6923 37.5334 49.531C38.3315 49.1169 39.2882 48.7714 40.4063 48.4943C41.5229 48.1945 42.708 48.0574 43.9617 48.0574C46.6747 48.0574 48.658 48.6785 49.9345 49.9222C51.1882 51.1659 51.8265 53.0536 51.8265 55.5852V63.0445H51.8693V63.0459ZM42.6138 66.5442C43.3663 66.5442 44.1416 66.4057 44.9612 66.1301C45.7822 65.8546 46.5119 65.3477 47.1273 64.6566C47.4914 64.2196 47.7656 63.7356 47.9027 63.183C48.0397 62.6304 48.1311 61.9621 48.1311 61.1797V60.213C47.47 60.0516 46.7632 59.9131 46.0336 59.8217C45.3039 59.7304 44.5971 59.6832 43.8903 59.6832C42.3625 59.6832 41.2459 59.9831 40.4934 60.6042C39.7409 61.2254 39.3768 62.1007 39.3768 63.2515C39.3768 64.3339 39.6509 65.1392 40.2206 65.6918C40.7675 66.2686 41.5657 66.5442 42.6138 66.5442ZM60.9192 69.0316C60.5094 69.0316 60.2353 68.9631 60.0525 68.8017C59.8698 68.6632 59.7113 68.3419 59.5742 67.9036L54.2168 50.1079C54.0797 49.6481 54.0111 49.3482 54.0111 49.1869C54.0111 48.8185 54.1939 48.6114 54.558 48.6114H56.7927C57.2253 48.6114 57.5223 48.68 57.6822 48.8413C57.865 48.9798 58.0007 49.3011 58.1377 49.7395L61.9673 64.9807L65.5228 49.7395C65.637 49.2797 65.7741 48.9798 65.9554 48.8413C66.1382 48.7028 66.4566 48.6114 66.8678 48.6114H68.6912C69.1239 48.6114 69.4209 48.68 69.6036 48.8413C69.7864 48.9798 69.9449 49.3011 70.0363 49.7395L73.6374 65.1649L77.5812 49.7395C77.7183 49.2797 77.8782 48.9798 78.0367 48.8413C78.2195 48.7028 78.5151 48.6114 78.9263 48.6114H81.0467C81.4108 48.6114 81.6164 48.7956 81.6164 49.1869C81.6164 49.3025 81.5936 49.4168 81.5707 49.5553C81.5479 49.6938 81.5022 49.878 81.4108 50.1307L75.9177 67.9264C75.7807 68.3862 75.6208 68.6861 75.4394 68.8246C75.2581 68.9631 74.9611 69.0544 74.5727 69.0544H72.6122C72.1795 69.0544 71.8825 68.9859 71.6998 68.8246C71.517 68.6632 71.3585 68.3648 71.2671 67.9036L67.7345 53.0536L64.2248 67.8807C64.1106 68.3405 63.9735 68.6404 63.7922 68.8017C63.6094 68.9631 63.291 69.0316 62.8797 69.0316H60.9192ZM90.2109 69.6527C89.0257 69.6527 87.8406 69.5142 86.7011 69.2386C85.5617 68.9631 84.6721 68.6632 84.0795 68.3177C83.7154 68.1106 83.4641 67.8807 83.3727 67.6737C83.2814 67.4666 83.2357 67.2368 83.2357 67.0297V65.856C83.2357 65.3719 83.4184 65.142 83.7597 65.142C83.8968 65.142 84.0338 65.1649 84.1695 65.2106C84.3066 65.2563 84.5108 65.3491 84.7392 65.4405C85.5146 65.786 86.357 66.0616 87.2466 66.2458C88.159 66.43 89.0471 66.5214 89.9596 66.5214C91.396 66.5214 92.5126 66.2686 93.288 65.7617C94.0633 65.2548 94.4731 64.5181 94.4731 63.5742C94.4731 62.9303 94.2675 62.4005 93.8577 61.9621C93.4479 61.5252 92.6725 61.134 91.5559 60.7656L88.2504 59.7289C86.5869 59.1992 85.3561 58.4167 84.6036 57.3801C83.8511 56.3677 83.4641 55.2397 83.4641 54.0417C83.4641 53.075 83.6697 52.2225 84.0795 51.4858C84.4893 50.749 85.0377 50.105 85.7202 49.5981C86.4041 49.0684 87.1795 48.6771 88.0905 48.4015C89.0029 48.1274 89.9596 48.0117 90.9634 48.0117C91.4646 48.0117 91.9886 48.0346 92.4912 48.1031C93.0152 48.1716 93.4936 48.2645 93.9734 48.3558C94.4288 48.4715 94.8629 48.5857 95.2727 48.7242C95.6825 48.8627 96.0024 48.9998 96.2308 49.1383C96.5507 49.3225 96.7777 49.5067 96.9148 49.7138C97.0519 49.898 97.1204 50.1507 97.1204 50.4734V51.5557C97.1204 52.0398 96.9376 52.2925 96.5964 52.2925C96.4136 52.2925 96.118 52.2011 95.7296 52.0169C94.4303 51.4187 92.971 51.1188 91.3532 51.1188C90.0538 51.1188 89.0286 51.3258 88.3218 51.7628C87.615 52.1997 87.2509 52.868 87.2509 53.8118C87.2509 54.4558 87.4793 55.0084 87.9348 55.4467C88.3903 55.8836 89.2342 56.322 90.4422 56.7132L93.6792 57.7499C95.3198 58.2796 96.5064 59.0164 97.2118 59.9603C97.9172 60.9041 98.2599 61.9864 98.2599 63.183C98.2599 64.1725 98.0542 65.0707 97.6673 65.8531C97.2575 66.6356 96.7092 67.3267 96.0038 67.8793C95.297 68.4547 94.4531 68.8688 93.4736 69.1687C92.4441 69.4914 91.3732 69.6527 90.2109 69.6527Z" fill="#252F3E"/>
<path d="M94.5182 80.8409C87.019 86.4353 76.1228 89.4053 66.753 89.4053C53.6236 89.4053 41.7922 84.502 32.8565 76.3516C32.1497 75.7076 32.7879 74.8324 33.6318 75.3393C43.2971 81.0022 55.2186 84.4335 67.5512 84.4335C75.8715 84.4335 85.0128 82.6843 93.423 79.0917C94.6781 78.5163 95.7491 79.9199 94.5182 80.8409ZM97.641 77.2498C96.6829 76.0061 91.304 76.6515 88.8652 76.9499C88.1356 77.0413 88.0213 76.3973 88.6825 75.9133C92.9675 72.8747 100.011 73.7486 100.832 74.7624C101.653 75.799 100.604 82.9128 96.5929 86.3197C95.9775 86.8494 95.3849 86.5724 95.6577 85.8828C96.5701 83.6038 98.5991 78.4692 97.641 77.2498Z" fill="#FF9900"/>
</g>
<defs>
<clipPath id="clip0_931_5963">
<rect width="68.5385" height="68.5385" fill="white" transform="translate(32.5547 32.3047)"/>
</clipPath>
</defs>
</svg>
