<svg width="215" height="217" viewBox="0 0 215 217" fill="none" xmlns="http://www.w3.org/2000/svg">
<g filter="url(#filter0_bdd_502_4048)">
<rect width="133.777" height="133.777" transform="translate(40.3945 10.8285)" fill="white"/>
<g clip-path="url(#clip0_502_4048)">
<path d="M133.91 62.9244L130.951 101.385L92.4902 104.344L133.91 62.9244Z" fill="#9B1010"/>
<path d="M113.2 83.6342L130.951 101.385L133.91 62.9244L113.2 83.6342Z" fill="#B71C1C"/>
<path d="M95.082 65.5167C91.9748 68.6241 89.2136 72.0166 86.956 75.5005C84.6985 78.9844 82.9888 82.4915 81.9246 85.8217C80.8604 89.1518 80.4625 92.2397 80.7537 94.909C81.0449 97.5783 82.0194 99.7769 83.6216 101.379C85.2239 102.981 87.4224 103.956 90.0918 104.247C92.7611 104.538 95.849 104.14 99.1791 103.076C102.509 102.011 106.016 100.301 109.5 98.0437C112.984 95.7861 116.376 93.0247 119.484 89.9174C122.591 86.8101 125.352 83.4176 127.61 79.9337C129.867 76.4497 131.577 72.9426 132.641 69.6125C133.705 66.2823 134.103 63.1945 133.812 60.5251C133.521 57.8558 132.546 55.6573 130.944 54.0551C129.342 52.4529 127.143 51.4785 124.474 51.1874C121.804 50.8963 118.717 51.2943 115.387 52.3586C112.056 53.4229 108.549 55.1327 105.065 57.3904C101.582 59.6481 98.1893 62.4094 95.082 65.5167Z" fill="#C62828"/>
<path d="M86.5733 67.3623L96.9282 57.0074L108.762 51.0903L117.638 57.0074L113.2 70.3208L99.8867 82.1549L86.5733 86.5927L80.6562 77.7171L86.5733 67.3623Z" fill="#E53935"/>
<path d="M117.638 57.0074L108.762 51.0903H125.034L117.638 57.0074ZM133.91 64.4037L117.638 57.0074L113.2 70.3208L133.91 64.4037ZM99.8867 82.1549L119.465 89.8989L113.2 70.3208L99.8867 82.1549ZM86.5733 86.5927L92.4904 104.344L99.8867 82.1549L86.5733 86.5927ZM80.6562 77.7171V93.9891L86.5733 86.5927L80.6562 77.7171Z" fill="#FF5252"/>
</g>
</g>
<defs>
<filter id="filter0_bdd_502_4048" x="0.394531" y="-21.1715" width="213.777" height="237.777" filterUnits="userSpaceOnUse" color-interpolation-filters="sRGB">
<feFlood flood-opacity="0" result="BackgroundImageFix"/>
<feGaussianBlur in="BackgroundImageFix" stdDeviation="16"/>
<feComposite in2="SourceAlpha" operator="in" result="effect1_backgroundBlur_502_4048"/>
<feColorMatrix in="SourceAlpha" type="matrix" values="0 0 0 0 0 0 0 0 0 0 0 0 0 0 0 0 0 0 127 0" result="hardAlpha"/>
<feMorphology radius="8" operator="erode" in="SourceAlpha" result="effect2_dropShadow_502_4048"/>
<feOffset dy="32"/>
<feGaussianBlur stdDeviation="24"/>
<feComposite in2="hardAlpha" operator="out"/>
<feColorMatrix type="matrix" values="0 0 0 0 0 0 0 0 0 0 0 0 0 0 0 0 0 0 0.1 0"/>
<feBlend mode="multiply" in2="effect1_backgroundBlur_502_4048" result="effect2_dropShadow_502_4048"/>
<feColorMatrix in="SourceAlpha" type="matrix" values="0 0 0 0 0 0 0 0 0 0 0 0 0 0 0 0 0 0 127 0" result="hardAlpha"/>
<feMorphology radius="4" operator="erode" in="SourceAlpha" result="effect3_dropShadow_502_4048"/>
<feOffset/>
<feGaussianBlur stdDeviation="7"/>
<feComposite in2="hardAlpha" operator="out"/>
<feColorMatrix type="matrix" values="0 0 0 0 0 0 0 0 0 0 0 0 0 0 0 0 0 0 0.05 0"/>
<feBlend mode="multiply" in2="effect2_dropShadow_502_4048" result="effect3_dropShadow_502_4048"/>
<feBlend mode="normal" in="SourceGraphic" in2="effect3_dropShadow_502_4048" result="shape"/>
</filter>
<clipPath id="clip0_502_4048">
<rect width="71.0048" height="71.0048" fill="white" transform="translate(71.7803 42.2147)"/>
</clipPath>
</defs>
</svg>
