<svg width="133" height="133" viewBox="0 0 133 133" fill="none" xmlns="http://www.w3.org/2000/svg">
<rect width="132" height="132" transform="translate(0.886719 0.828125)" fill="white"/>
<g clip-path="url(#clip0_931_6024)">
<path d="M93.1602 52.2314L90.241 90.1814L52.291 93.1007L93.1602 52.2314Z" fill="#9B1010"/>
<path d="M72.7246 72.6661L90.24 90.1814L93.1592 52.2314L72.7246 72.6661Z" fill="#B71C1C"/>
<path d="M54.8468 54.7891C51.7809 57.8551 49.0563 61.2026 46.8288 64.6402C44.6012 68.0778 42.9142 71.5384 41.8642 74.8243C40.8141 78.1102 40.4215 81.157 40.7088 83.7909C40.9962 86.4248 41.9577 88.5941 43.5387 90.175C45.1196 91.7559 47.289 92.7174 49.9228 93.0046C52.5567 93.2918 55.6036 92.8991 58.8894 91.8489C62.1753 90.7988 65.6358 89.1117 69.0733 86.884C72.5109 84.6563 75.8582 81.9316 78.9242 78.8656C81.9901 75.7995 84.7146 72.4521 86.9422 69.0145C89.1698 65.5768 90.8568 62.1163 91.9068 58.8304C92.9569 55.5445 93.3494 52.4976 93.0621 49.8638C92.7748 47.2299 91.8133 45.0606 90.2323 43.4797C88.6514 41.8988 86.482 40.9373 83.8481 40.6501C81.2143 40.3629 78.1674 40.7556 74.8816 41.8057C71.5957 42.8559 68.1352 44.543 64.6976 46.7707C61.2601 48.9984 57.9128 51.723 54.8468 54.7891V54.7891Z" fill="#C62828"/>
<path d="M46.4517 56.6105L56.6691 46.3931L68.346 40.5547L77.1037 46.3931L72.7248 59.5297L59.5883 71.2066L46.4517 75.5855L40.6133 66.8278L46.4517 56.6105Z" fill="#E53935"/>
<path d="M77.1037 46.3931L68.346 40.5547H84.4017L77.1037 46.3931ZM93.1594 53.6912L77.1037 46.3931L72.7248 59.5297L93.1594 53.6912ZM59.5883 71.2066L78.9063 78.8477L72.7248 59.5297L59.5883 71.2066ZM46.4517 75.5855L52.2902 93.1008L59.5883 71.2066L46.4517 75.5855ZM40.6133 66.8278V82.8835L46.4517 75.5855L40.6133 66.8278Z" fill="#FF5252"/>
</g>
<defs>
<clipPath id="clip0_931_6024">
<rect width="70.0615" height="70.0615" fill="white" transform="translate(31.8555 31.7969)"/>
</clipPath>
</defs>
</svg>
