<svg width="133" height="133" viewBox="0 0 133 133" fill="none" xmlns="http://www.w3.org/2000/svg">
<rect width="132" height="132" transform="translate(0.457031 0.828125)" fill="black"/>
<path d="M66.4566 38.3652C50.7607 38.3652 37.9941 51.134 37.9941 66.8277H48.9413C48.9413 57.1549 56.7838 49.3124 66.4566 49.3124C76.1295 49.3124 83.972 57.1549 83.972 66.8277C83.972 76.5006 76.1295 84.3431 66.4566 84.3431V95.2902C82.1526 95.2902 94.9191 82.5215 94.9191 66.8277C94.9191 51.134 82.1526 38.3652 66.4566 38.3652ZM66.4566 84.3431V71.2066H53.3201V84.3431H66.4566ZM53.3201 84.3431H44.5624V93.1008H53.3201V84.3431ZM44.5624 84.3431V77.7749H37.9941V84.3431H44.5624Z" fill="#0080FF"/>
</svg>
