<svg width="132" height="133" viewBox="0 0 132 133" fill="none" xmlns="http://www.w3.org/2000/svg">
<rect width="132" height="132" transform="translate(0 0.394531)" fill="white"/>
<path d="M67.5596 42.5597C66.9635 41.3969 65.2958 41.3938 64.7059 42.5597L61.0816 49.3945L52.7257 33.2665C51.9984 31.9168 49.9492 32.2581 49.7114 33.7684L41.2969 88.0095L75.6514 58.2877L67.5596 42.5597Z" fill="#FFA000"/>
<path d="M68.7718 64.2387L61.0816 49.3955L41.2969 88.009L68.7718 64.2387Z" fill="#F57F17"/>
<path d="M84.313 47.6131C84.1122 46.3747 82.5911 45.8836 81.7032 46.7731L41.2969 88.0164L63.6558 99.7742C65.0719 100.565 66.7968 100.565 68.2128 99.7757L90.7076 88.021L84.313 47.6131Z" fill="#FFCA28"/>
</svg>
