<svg width="215" height="216" viewBox="0 0 215 216" fill="none" xmlns="http://www.w3.org/2000/svg">
<g filter="url(#filter0_bdd_502_4055)">
<rect width="133.777" height="133.777" transform="translate(40.3945 10)" fill="#C62828"/>
<path d="M141.306 120.045H73.7743C68.4466 120.045 64.127 115.725 64.127 110.397V42.8654C64.127 37.5376 68.4466 33.218 73.7743 33.218H141.306C146.634 33.218 150.953 37.5376 150.953 42.8654V110.397C150.953 115.725 146.634 120.045 141.306 120.045Z" fill="#C62828"/>
<path d="M138.895 74.4027V76.448C138.875 76.5589 138.851 76.6675 138.837 76.7784C138.731 77.6684 138.661 78.5632 138.513 79.4459C138.031 82.316 136.989 84.9835 135.441 87.4508C133.089 91.1964 129.91 94.0521 125.916 96.0033C123.611 97.1344 121.124 97.8604 118.57 98.1522C118.003 98.2173 117.434 98.2752 116.867 98.3379H94.8373C94.7264 98.3186 94.6154 98.2849 94.5045 98.2776C92.2832 98.1401 90.1463 97.6385 88.1083 96.7533C83.6729 94.8311 80.3663 91.715 78.2028 87.4243C77.2453 85.5334 76.6279 83.4906 76.3722 81.3899C76.3095 80.8786 76.2492 80.3697 76.1865 79.8583V77.8734C76.2082 77.7624 76.2396 77.6539 76.2468 77.543C76.3626 75.6352 76.7557 73.7853 77.4527 72.0054C79.3243 67.2179 82.5852 63.6652 87.2207 61.3667C89.6253 60.1728 92.1891 59.5458 94.8687 59.4083C96.1807 59.3408 97.4928 59.4131 98.7976 59.5868C98.9158 59.6037 99.087 59.5506 99.169 59.4662C101.045 57.568 103.182 56.0245 105.589 54.8571C107.926 53.7236 110.384 52.9928 112.972 52.7009C113.582 52.631 114.192 52.5755 114.803 52.5128H116.681C116.804 52.5321 116.927 52.5538 117.05 52.5683C117.981 52.6768 118.917 52.7444 119.839 52.8963C122.713 53.3738 125.391 54.3965 127.868 55.9159C131.666 58.2458 134.56 61.4005 136.538 65.3704C137.681 67.6568 138.417 70.1217 138.709 72.6566C138.774 73.2378 138.832 73.8215 138.895 74.4027ZM103.831 61.1689C103.87 61.2172 103.877 61.2413 103.894 61.2485C105.184 61.878 106.417 62.616 107.579 63.4554C107.651 63.5084 107.835 63.4867 107.924 63.4313C111.117 61.427 114.581 60.7348 118.3 61.3884C121.944 62.0276 124.911 63.8316 127.175 66.7138C129.742 69.9746 130.718 73.6623 130.012 77.7649C129.537 80.5144 128.425 82.9817 126.536 85.0486C123.09 88.8159 118.77 90.374 113.688 89.7156C110.56 89.3104 107.859 87.9718 105.623 85.7336C102.753 82.8611 99.866 80.0103 96.9887 77.145C96.6052 76.7639 96.1783 76.4576 95.626 76.3901C94.6613 76.2719 93.7858 76.7495 93.3685 77.6081C92.9971 78.3751 93.0453 79.2385 93.8509 80.0248C97.0587 83.1457 100.237 86.2932 103.443 89.4165C103.99 89.9543 104.579 90.4488 105.201 90.8998C107.541 92.5833 110.182 93.5142 113.037 93.8905C115.28 94.1847 117.506 94.122 119.713 93.63C123.927 92.6918 127.414 90.5621 130.164 87.2748C132.433 84.559 133.806 81.4381 134.283 77.9337C134.56 75.9343 134.503 73.9059 134.112 71.9258C133.475 68.6891 132.093 65.7924 129.877 63.3275C125.651 58.6268 120.335 56.5285 114.009 56.9964C111.576 57.1773 109.275 57.884 107.109 59.0079C105.944 59.6061 104.844 60.332 103.831 61.1689ZM102.285 93.9845C102.198 93.9049 102.111 93.8254 102.025 93.7434C100.713 92.5157 99.3933 91.2977 98.0982 90.0556C97.8473 89.8145 97.6158 89.6987 97.2612 89.7059C95.9492 89.7373 94.6347 89.7421 93.342 89.4527C86.912 88.0128 83.1761 81.0836 85.5469 74.9888C87.4161 70.182 92.5919 67.2564 97.6954 68.1585C99.9818 68.5637 101.991 69.5212 103.638 71.207C105.647 73.2619 107.717 75.259 109.75 77.2945C110.213 77.7576 110.743 77.9699 111.383 77.8782C112.21 77.76 112.871 77.3693 113.17 76.5662C113.464 75.7751 113.322 75.025 112.716 74.4172C110.584 72.2779 108.503 70.0831 106.284 68.0355C101.981 64.0607 96.9091 62.8765 91.2967 64.5672C83.7501 66.8392 79.3316 74.5619 81.056 82.181C82.6286 89.1223 88.7547 93.9966 95.9251 94.0014C97.9269 94.0038 99.9288 94.0014 101.931 94.0014C102.032 94.0014 102.131 93.9942 102.285 93.9845Z" fill="white"/>
</g>
<defs>
<filter id="filter0_bdd_502_4055" x="0.394531" y="-22" width="213.777" height="237.777" filterUnits="userSpaceOnUse" color-interpolation-filters="sRGB">
<feFlood flood-opacity="0" result="BackgroundImageFix"/>
<feGaussianBlur in="BackgroundImageFix" stdDeviation="16"/>
<feComposite in2="SourceAlpha" operator="in" result="effect1_backgroundBlur_502_4055"/>
<feColorMatrix in="SourceAlpha" type="matrix" values="0 0 0 0 0 0 0 0 0 0 0 0 0 0 0 0 0 0 127 0" result="hardAlpha"/>
<feMorphology radius="8" operator="erode" in="SourceAlpha" result="effect2_dropShadow_502_4055"/>
<feOffset dy="32"/>
<feGaussianBlur stdDeviation="24"/>
<feComposite in2="hardAlpha" operator="out"/>
<feColorMatrix type="matrix" values="0 0 0 0 0 0 0 0 0 0 0 0 0 0 0 0 0 0 0.1 0"/>
<feBlend mode="multiply" in2="effect1_backgroundBlur_502_4055" result="effect2_dropShadow_502_4055"/>
<feColorMatrix in="SourceAlpha" type="matrix" values="0 0 0 0 0 0 0 0 0 0 0 0 0 0 0 0 0 0 127 0" result="hardAlpha"/>
<feMorphology radius="4" operator="erode" in="SourceAlpha" result="effect3_dropShadow_502_4055"/>
<feOffset/>
<feGaussianBlur stdDeviation="7"/>
<feComposite in2="hardAlpha" operator="out"/>
<feColorMatrix type="matrix" values="0 0 0 0 0 0 0 0 0 0 0 0 0 0 0 0 0 0 0.05 0"/>
<feBlend mode="multiply" in2="effect2_dropShadow_502_4055" result="effect3_dropShadow_502_4055"/>
<feBlend mode="normal" in="SourceGraphic" in2="effect3_dropShadow_502_4055" result="shape"/>
</filter>
</defs>
</svg>
