<svg width="326" height="376" viewBox="0 0 326 376" fill="none" xmlns="http://www.w3.org/2000/svg">
<g clip-path="url(#clip0_430_737)">
<g filter="url(#filter0_d_430_737)">
<path d="M65.0942 333.14C65.1026 332.916 65.1511 332.68 65.2395 332.432C65.328 332.184 65.4444 331.952 65.5889 331.737C65.7413 331.521 65.9056 331.357 66.0818 331.246C66.6332 331.558 67.2606 331.851 67.9641 332.125C68.6676 332.39 69.4314 332.519 70.2554 332.512C70.6874 332.505 71.0875 332.434 71.4558 332.298C71.8241 332.155 72.1205 331.955 72.3449 331.7C72.5694 331.444 72.682 331.14 72.6827 330.788C72.6834 330.396 72.5321 330.048 72.2287 329.744C71.9333 329.431 71.4898 329.174 70.8981 328.973L68.6318 328.118C68.0002 327.901 67.4487 327.636 66.9773 327.323C66.5059 327.01 66.1386 326.638 65.8754 326.205C65.6122 325.765 65.4812 325.253 65.4823 324.669C65.4837 323.949 65.6729 323.301 66.05 322.725C66.4352 322.142 66.984 321.679 67.6967 321.336C68.4094 320.993 69.2737 320.819 70.2897 320.812C71.1217 320.806 71.9455 320.907 72.7611 321.117C73.5847 321.318 74.2843 321.547 74.8598 321.804C74.8591 322.172 74.7784 322.536 74.6177 322.896C74.4571 323.247 74.2445 323.531 73.9801 323.747C73.4046 323.482 72.777 323.269 72.0973 323.107C71.4176 322.938 70.7978 322.853 70.2378 322.852C69.5738 322.859 69.0535 323.014 68.6769 323.318C68.3084 323.613 68.1236 323.989 68.1228 324.445C68.122 324.829 68.2655 325.121 68.5531 325.322C68.8407 325.522 69.2563 325.719 69.8 325.912L71.9944 326.743C72.9617 327.089 73.7648 327.574 74.4036 328.199C75.0504 328.824 75.3729 329.609 75.3711 330.553C75.3696 331.353 75.1563 332.052 74.7311 332.652C74.314 333.243 73.7211 333.702 72.9525 334.029C72.1839 334.348 71.2796 334.514 70.2395 334.528C69.0875 334.534 68.0718 334.389 67.1924 334.091C66.313 333.786 65.6136 333.469 65.0942 333.14ZM95.9929 323.243C95.9532 323.059 95.9256 322.879 95.9099 322.703C95.9022 322.527 95.8985 322.367 95.8988 322.223C95.8991 322.079 95.9034 321.911 95.9118 321.719C95.9281 321.527 95.9565 321.343 95.9968 321.167L105.981 321.183C106.021 321.327 106.052 321.491 106.076 321.675C106.1 321.859 106.111 322.012 106.111 322.132C106.11 322.5 106.014 322.779 105.821 322.971C105.629 323.163 105.281 323.258 104.777 323.257L103.505 323.255C103.361 323.255 103.153 323.251 102.881 323.242C102.609 323.234 102.401 323.229 102.257 323.229L99.7849 323.225C99.6249 323.225 99.4089 323.228 99.1369 323.236C98.8729 323.244 98.6649 323.247 98.5129 323.247L95.9929 323.243ZM99.7582 324.665C99.7587 324.409 99.7631 324.173 99.7715 323.957C99.7799 323.733 99.7844 323.489 99.7849 323.225L99.7868 322.217L102.259 322.221L102.257 323.229C102.256 323.493 102.26 323.737 102.268 323.961C102.275 324.177 102.279 324.413 102.278 324.669L102.26 334.269C102.1 334.301 101.896 334.325 101.648 334.34C101.408 334.356 101.192 334.363 101 334.363C100.824 334.363 100.612 334.354 100.364 334.338C100.124 334.322 99.9158 334.297 99.7399 334.265L99.7582 324.665ZM130.045 321.223C130.253 321.183 130.501 321.156 130.789 321.14C131.077 321.125 131.329 321.117 131.545 321.117C131.737 321.118 131.965 321.126 132.229 321.143C132.493 321.159 132.733 321.187 132.949 321.228L137.664 334.208C137.472 334.303 137.24 334.375 136.968 334.422C136.696 334.47 136.448 334.494 136.224 334.493C135.88 334.493 135.588 334.424 135.348 334.288C135.108 334.143 134.909 333.827 134.75 333.339L132.566 327.083C132.446 326.739 132.319 326.343 132.184 325.895C132.049 325.438 131.914 324.986 131.779 324.538C131.643 324.09 131.524 323.681 131.421 323.313L131.313 323.313C131.168 323.833 130.999 324.409 130.806 325.04C130.612 325.672 130.447 326.2 130.311 326.623L127.572 334.323C127.42 334.363 127.248 334.39 127.056 334.406C126.864 334.422 126.676 334.429 126.492 334.429C126.276 334.429 126.06 334.412 125.844 334.38C125.636 334.348 125.464 334.307 125.328 334.259L125.232 334.127L130.045 321.223ZM129.882 331.399C129.81 331.399 129.674 331.398 129.474 331.398C129.274 331.39 129.074 331.385 128.874 331.385C128.682 331.377 128.546 331.373 128.466 331.372L127.398 331.371L128.205 329.368L129.141 329.37C129.221 329.37 129.345 329.37 129.513 329.37C129.689 329.362 129.861 329.359 130.029 329.359C130.205 329.351 130.329 329.347 130.401 329.348L132.417 329.351C132.497 329.351 132.613 329.355 132.765 329.363C132.917 329.364 133.069 329.368 133.221 329.376C133.373 329.376 133.489 329.377 133.569 329.377L134.565 329.378L135.306 331.384L134.19 331.382C134.118 331.382 133.99 331.386 133.806 331.393C133.622 331.393 133.434 331.397 133.241 331.404C133.057 331.404 132.933 331.404 132.869 331.404L129.882 331.399ZM169.756 325.116C169.755 325.7 169.626 326.228 169.369 326.7C169.112 327.163 168.771 327.559 168.346 327.886C167.922 328.205 167.461 328.421 166.965 328.532C167.365 328.685 167.684 328.901 167.924 329.181C168.163 329.454 168.375 329.794 168.558 330.203L169.454 332.22C169.598 332.532 169.749 332.828 169.908 333.109C170.068 333.381 170.239 333.601 170.423 333.77C170.255 333.993 170.014 334.177 169.702 334.32C169.39 334.464 169.07 334.535 168.742 334.535C168.318 334.534 167.994 334.43 167.77 334.221C167.547 334.005 167.339 333.681 167.148 333.248L165.989 330.582C165.79 330.118 165.543 329.778 165.247 329.561C164.952 329.345 164.512 329.236 163.928 329.235L161.384 329.231L161.387 327.299C161.74 327.291 162.12 327.284 162.528 327.277C162.936 327.269 163.324 327.266 163.692 327.266C164.068 327.259 164.376 327.256 164.616 327.256C165.28 327.257 165.792 327.154 166.152 326.947C166.521 326.731 166.777 326.464 166.922 326.144C167.066 325.816 167.139 325.488 167.14 325.16C167.14 324.824 167.069 324.5 166.925 324.188C166.782 323.868 166.531 323.607 166.171 323.407C165.819 323.206 165.328 323.105 164.696 323.104C164.368 323.104 164 323.103 163.592 323.102C163.192 323.094 162.816 323.085 162.464 323.076L162.442 334.368C162.25 334.4 162.042 334.424 161.818 334.439C161.594 334.455 161.386 334.463 161.194 334.462C161.018 334.462 160.81 334.454 160.57 334.437C160.338 334.421 160.126 334.397 159.934 334.364L159.959 321.392L160.091 321.261C160.931 321.238 161.731 321.223 162.491 321.217C163.251 321.202 164.019 321.195 164.795 321.196C165.779 321.198 166.643 321.339 167.386 321.621C168.138 321.902 168.721 322.335 169.136 322.919C169.551 323.504 169.757 324.236 169.756 325.116ZM191.284 323.4C191.244 323.216 191.217 323.036 191.201 322.86C191.193 322.684 191.19 322.524 191.19 322.38C191.19 322.236 191.195 322.068 191.203 321.876C191.219 321.684 191.248 321.5 191.288 321.324L201.272 321.34C201.312 321.485 201.343 321.649 201.367 321.833C201.391 322.017 201.402 322.169 201.402 322.289C201.401 322.657 201.305 322.937 201.113 323.128C200.92 323.32 200.572 323.415 200.068 323.414L198.796 323.412C198.652 323.412 198.444 323.408 198.172 323.399C197.9 323.391 197.692 323.387 197.548 323.386L195.076 323.382C194.916 323.382 194.7 323.386 194.428 323.393C194.164 323.401 193.956 323.404 193.804 323.404L191.284 323.4ZM195.049 324.822C195.05 324.566 195.054 324.33 195.063 324.114C195.071 323.89 195.076 323.646 195.076 323.382L195.078 322.374L197.55 322.378L197.548 323.386C197.548 323.65 197.551 323.894 197.559 324.118C197.566 324.334 197.57 324.57 197.569 324.826L197.551 334.426C197.391 334.458 197.187 334.482 196.939 334.497C196.699 334.513 196.483 334.521 196.291 334.52C196.115 334.52 195.903 334.512 195.655 334.495C195.415 334.479 195.207 334.454 195.031 334.422L195.049 324.822ZM234.147 329.819C234.144 331.427 233.654 332.658 232.676 333.512C231.707 334.367 230.37 334.792 228.666 334.79C226.978 334.787 225.647 334.357 224.672 333.499C223.698 332.641 223.212 331.409 223.215 329.801L223.231 321.413L223.352 321.281L224.3 321.282C224.812 321.283 225.179 321.412 225.403 321.668C225.634 321.917 225.75 322.329 225.748 322.905L225.735 329.793C225.733 330.753 225.976 331.489 226.463 332.002C226.958 332.515 227.694 332.772 228.67 332.774C229.662 332.775 230.398 332.521 230.879 332.009C231.368 331.498 231.613 330.763 231.615 329.803L231.631 321.391C231.823 321.351 232.027 321.327 232.243 321.32C232.468 321.304 232.672 321.296 232.856 321.297C233.04 321.297 233.252 321.305 233.491 321.322C233.739 321.338 233.963 321.362 234.163 321.395L234.147 329.819ZM267.478 325.674C267.477 326.642 267.259 327.445 266.826 328.085C266.393 328.716 265.796 329.191 265.035 329.51C264.283 329.82 263.418 329.975 262.442 329.973C262.25 329.973 261.986 329.973 261.65 329.972C261.314 329.971 260.97 329.971 260.618 329.97C260.266 329.97 259.97 329.969 259.73 329.969C259.49 329.968 259.374 329.968 259.382 329.968L259.386 328.06C259.618 328.053 259.93 328.045 260.322 328.038C260.714 328.031 261.098 328.027 261.474 328.028C261.85 328.028 262.134 328.029 262.326 328.029C263.022 328.03 263.55 327.907 263.911 327.66C264.279 327.412 264.528 327.105 264.656 326.737C264.785 326.369 264.85 326.009 264.851 325.657C264.851 325.305 264.788 324.949 264.661 324.589C264.533 324.229 264.286 323.924 263.918 323.676C263.559 323.427 263.031 323.302 262.335 323.301C262.047 323.301 261.743 323.3 261.423 323.3C261.103 323.299 260.767 323.291 260.415 323.274L260.394 334.53C260.202 334.562 259.993 334.585 259.769 334.601C259.545 334.617 259.337 334.624 259.145 334.624C258.969 334.624 258.761 334.615 258.521 334.599C258.281 334.583 258.066 334.558 257.874 334.526L257.898 321.554L258.031 321.422C258.751 321.407 259.479 321.392 260.215 321.378C260.959 321.363 261.707 321.356 262.459 321.357C263.427 321.359 264.286 321.512 265.038 321.818C265.797 322.123 266.392 322.596 266.823 323.237C267.262 323.869 267.48 324.682 267.478 325.674Z" fill="black"/>
</g>
<g filter="url(#filter1_d_430_737)">
<path d="M56.7861 295.827C56.7914 293.053 57.3695 290.588 58.5203 288.429C59.6978 286.245 61.3544 284.554 63.4901 283.358C65.6257 282.134 68.0802 281.525 70.8536 281.53C74.3736 281.535 77.3317 282.487 79.7281 284.384C82.1245 286.255 83.6663 288.804 84.3534 292.032L75.9135 292.018C75.4088 290.95 74.7037 290.136 73.7981 289.574C72.9192 289.013 71.8931 288.731 70.7198 288.729C68.9064 288.726 67.4518 289.377 66.356 290.682C65.2869 291.961 64.7502 293.68 64.7461 295.84C64.7419 298.026 65.2719 299.774 66.336 301.082C67.4269 302.364 68.879 303.006 70.6924 303.009C71.8657 303.011 72.8929 302.733 73.774 302.174C74.6817 301.616 75.3899 300.804 75.8986 299.738L84.3386 299.752C83.6391 302.977 82.0875 305.535 79.6839 307.424C77.2803 309.287 74.3185 310.215 70.7985 310.21C68.0252 310.205 65.573 309.601 63.442 308.398C61.311 307.167 59.6609 305.471 58.4918 303.309C57.3493 301.121 56.7807 298.627 56.7861 295.827ZM119.48 305.489L109.48 305.473L107.951 310.07L99.7114 310.057L110.045 281.874L119.085 281.889L129.271 310.105L120.991 310.092L119.48 305.489ZM117.532 299.486L114.509 290.361L111.492 299.476L117.532 299.486ZM159.707 310.155L154.127 299.746L153.287 299.745L153.267 310.145L145.427 310.132L145.481 281.932L157.841 281.952C160.107 281.956 162.027 282.359 163.598 283.162C165.17 283.938 166.355 285.019 167.152 286.407C167.95 287.769 168.347 289.303 168.343 291.009C168.34 292.929 167.803 294.622 166.734 296.087C165.691 297.525 164.156 298.549 162.128 299.159L168.467 310.17L159.707 310.155ZM153.297 294.385L157.177 294.391C158.244 294.393 159.044 294.141 159.578 293.635C160.113 293.129 160.381 292.396 160.383 291.436C160.384 290.53 160.106 289.823 159.547 289.315C159.014 288.781 158.228 288.513 157.188 288.511L153.308 288.505L153.297 294.385ZM193.366 282.01L193.312 310.21L185.472 310.198L185.526 281.998L193.366 282.01ZM229.404 295.789C231.057 296.166 232.362 296.994 233.32 298.276C234.304 299.531 234.794 300.972 234.791 302.598C234.787 304.998 233.956 306.877 232.3 308.234C230.644 309.592 228.323 310.268 225.337 310.263L211.377 310.24L211.431 282.04L224.951 282.062C227.831 282.067 230.083 282.711 231.707 283.993C233.358 285.276 234.181 287.077 234.177 289.397C234.173 291.051 233.731 292.437 232.849 293.555C231.993 294.647 230.845 295.392 229.404 295.789ZM219.249 293.253L223.209 293.259C225.182 293.263 226.171 292.451 226.174 290.824C226.177 289.144 225.192 288.303 223.219 288.299L219.259 288.293L219.249 293.253ZM223.789 303.94C225.762 303.944 226.75 303.118 226.753 301.465C226.755 300.612 226.49 299.958 225.957 299.504C225.451 299.05 224.718 298.822 223.758 298.82L219.238 298.813L219.229 303.933L223.789 303.94ZM259.694 288.399L259.686 292.999L268.686 293.014L268.674 298.974L259.674 298.959L259.664 304.039L269.864 304.056L269.852 310.336L251.812 310.306L251.867 282.106L269.907 282.136L269.894 288.416L259.694 288.399Z" fill="black"/>
</g>
<g filter="url(#filter2_d_430_737)">
<rect x="60.9995" y="29" width="126" height="62" rx="5" fill="black"/>
<rect x="60.9995" y="204" width="215" height="62" rx="5" fill="black"/>
<rect x="60.9995" y="29" width="62" height="237" rx="5" fill="black"/>
<rect x="214.109" y="128.383" width="62" height="137.526" rx="5" fill="black"/>
</g>
<g filter="url(#filter3_d_430_737)">
<rect width="60.0231" height="60" rx="5" transform="matrix(0.686849 0.7268 -0.692577 0.721344 238.884 16)" fill="url(#paint0_linear_430_737)"/>
</g>
</g>
<defs>
<filter id="filter0_d_430_737" x="61.0913" y="320.789" width="210.396" height="22.0781" filterUnits="userSpaceOnUse" color-interpolation-filters="sRGB">
<feFlood flood-opacity="0" result="BackgroundImageFix"/>
<feColorMatrix in="SourceAlpha" type="matrix" values="0 0 0 0 0 0 0 0 0 0 0 0 0 0 0 0 0 0 127 0" result="hardAlpha"/>
<feOffset dy="4"/>
<feGaussianBlur stdDeviation="2"/>
<feComposite in2="hardAlpha" operator="out"/>
<feColorMatrix type="matrix" values="0 0 0 0 0 0 0 0 0 0 0 0 0 0 0 0 0 0 0.25 0"/>
<feBlend mode="normal" in2="BackgroundImageFix" result="effect1_dropShadow_430_737"/>
<feBlend mode="normal" in="SourceGraphic" in2="effect1_dropShadow_430_737" result="shape"/>
</filter>
<filter id="filter1_d_430_737" x="52.7588" y="281.508" width="221.148" height="37.0312" filterUnits="userSpaceOnUse" color-interpolation-filters="sRGB">
<feFlood flood-opacity="0" result="BackgroundImageFix"/>
<feColorMatrix in="SourceAlpha" type="matrix" values="0 0 0 0 0 0 0 0 0 0 0 0 0 0 0 0 0 0 127 0" result="hardAlpha"/>
<feOffset dy="4"/>
<feGaussianBlur stdDeviation="2"/>
<feComposite in2="hardAlpha" operator="out"/>
<feColorMatrix type="matrix" values="0 0 0 0 0 0 0 0 0 0 0 0 0 0 0 0 0 0 0.25 0"/>
<feBlend mode="normal" in2="BackgroundImageFix" result="effect1_dropShadow_430_737"/>
<feBlend mode="normal" in="SourceGraphic" in2="effect1_dropShadow_430_737" result="shape"/>
</filter>
<filter id="filter2_d_430_737" x="56.9995" y="29" width="223.109" height="245" filterUnits="userSpaceOnUse" color-interpolation-filters="sRGB">
<feFlood flood-opacity="0" result="BackgroundImageFix"/>
<feColorMatrix in="SourceAlpha" type="matrix" values="0 0 0 0 0 0 0 0 0 0 0 0 0 0 0 0 0 0 127 0" result="hardAlpha"/>
<feOffset dy="4"/>
<feGaussianBlur stdDeviation="2"/>
<feComposite in2="hardAlpha" operator="out"/>
<feColorMatrix type="matrix" values="0 0 0 0 0 0 0 0 0 0 0 0 0 0 0 0 0 0 0.25 0"/>
<feBlend mode="normal" in2="BackgroundImageFix" result="effect1_dropShadow_430_737"/>
<feBlend mode="normal" in="SourceGraphic" in2="effect1_dropShadow_430_737" result="shape"/>
</filter>
<filter id="filter3_d_430_737" x="195.35" y="18.1172" width="86.7412" height="90.6641" filterUnits="userSpaceOnUse" color-interpolation-filters="sRGB">
<feFlood flood-opacity="0" result="BackgroundImageFix"/>
<feColorMatrix in="SourceAlpha" type="matrix" values="0 0 0 0 0 0 0 0 0 0 0 0 0 0 0 0 0 0 127 0" result="hardAlpha"/>
<feOffset dy="4"/>
<feGaussianBlur stdDeviation="2"/>
<feComposite in2="hardAlpha" operator="out"/>
<feColorMatrix type="matrix" values="0 0 0 0 0 0 0 0 0 0 0 0 0 0 0 0 0 0 0.25 0"/>
<feBlend mode="normal" in2="BackgroundImageFix" result="effect1_dropShadow_430_737"/>
<feBlend mode="normal" in="SourceGraphic" in2="effect1_dropShadow_430_737" result="shape"/>
</filter>
<linearGradient id="paint0_linear_430_737" x1="-6.05623" y1="-6.17122" x2="60.0397" y2="70.1761" gradientUnits="userSpaceOnUse">
<stop stop-color="#F6A202"/>
<stop offset="1" stop-color="#FCBE02"/>
</linearGradient>
<clipPath id="clip0_430_737">
<rect width="326" height="376" fill="white"/>
</clipPath>
</defs>
</svg>
