<svg width="1200" height="300" xmlns="http://www.w3.org/2000/svg">
 <g>
  <title>Layer 1</title>
  <g stroke="null">

   <g stroke="null">
    <g stroke="null">
     <path stroke="null" fill="#3305c4" d="m114.66728,190.56208l0,32.75453l-23.3332,10.58799c0.09906,-0.39622 0.13207,-0.83647 0.13207,-1.26572l0,-22.00144l23.20112,-20.07535z" class="cls-2"/>
     <path stroke="null" fill="#3305c4" d="m153.11203,123.4241l0,93.82807l-6.29556,-2.86162c-3.99526,-1.79401 -8.55184,-1.79401 -12.5471,0l-6.29556,2.86162l0,-93.82807l12.58012,-24.36778l12.5471,24.36778l0.01101,0z" class="cls-2"/>
     <path stroke="null" fill="#3305c4" d="m189.79578,233.90459l-23.36622,-10.58799l0,-32.75453l23.23414,20.07535l0,22.00144c0,0.42924 0.03302,0.86949 0.13207,1.26572z" class="cls-2"/>
     <path stroke="null" fill="#3305c4" d="m255.70105,263.86354l-56.05471,-25.46841c1.99213,-1.16666 3.32388,-3.29086 3.32388,-5.75626l0,-25.02816c0,-1.92609 -0.86949,-3.76413 -2.33332,-5.02984l-34.21835,-29.62876l0,-51.12392c0,-1.0676 -0.26415,-2.09118 -0.73742,-3.05973l-19.23888,-37.3111c-1.13364,-2.20125 -3.42294,-3.59904 -5.88833,-3.59904s-4.78771,1.39779 -5.92135,3.59904l-19.23888,37.3111c-0.46226,0.96855 -0.73742,1.99213 -0.73742,3.05973l0,51.0909l-34.21835,29.66178c-1.46383,1.26572 -2.3003,3.09275 -2.3003,5.02984l0,25.02816c0,2.43238 1.29873,4.5896 3.29086,5.75626l-56.05471,25.46841c-13.41659,6.08644 -26.76714,-8.61787 -19.40398,-21.37409l55.48238,-96.06233l65.9383,-114.23361c5.82229,-10.11472 20.43856,-10.11472 26.26085,0l65.9383,114.23361l55.48238,96.06233c7.35216,12.74521 -5.98739,27.46053 -19.40398,21.37409l0.03302,0z" class="cls-2"/>
    </g>
    <path stroke="null" fill="#3305c4" d="m153.4202,240.87153c0.1761,-1.16666 0.22012,-2.32231 0.11006,-3.44495c-0.40723,-4.01727 -2.94967,-7.71536 -6.40562,-9.75152c-2.02515,-1.19968 -4.35847,-1.82703 -6.70279,-1.82703c-3.94023,0 -7.72637,1.80502 -10.22478,4.84274c-2.36634,2.89464 -3.03772,6.5377 -2.53143,10.18076s2.17923,6.79084 3.23583,10.2468c0.84748,2.76256 1.95911,5.47009 2.93866,8.17763c1.80502,5.02984 3.62105,10.04868 5.42607,15.07853l0.09906,0.27516c0.3522,0.99056 1.74999,0.99056 2.10219,0c1.63993,-4.55658 3.27986,-9.12416 4.93079,-13.68074c1.28773,-3.57702 2.60848,-7.05499 3.99526,-10.59899c1.14465,-2.91665 2.54244,-6.21852 3.02671,-9.48737l0,-0.01101z" class="cls-2"/>
   </g>
   <g stroke="null">
    <path stroke="null" fill="#fff" d="m345.37978,207.51166l6.91191,0c5.27198,0 8.86001,3.33489 8.86001,8.21064s-3.58803,8.21064 -8.86001,8.21064l-6.91191,0l0,-16.41028l0,-0.01101zm6.77983,14.37413c4.0613,0 6.65877,-2.48741 6.65877,-6.16349s-2.59747,-6.16349 -6.65877,-6.16349l-4.43551,0l0,12.32697l4.43551,0z" class="cls-1"/>
    <path stroke="null" fill="#fff" d="m383.04308,221.88579l0,2.03615l-11.90874,0l0,-16.41028l11.57855,0l0,2.03615l-9.23422,0l0,5.04085l8.23266,0l0,1.99213l-8.23266,0l0,5.29399l9.56441,0l0,0.01101z" class="cls-1"/>
    <path stroke="null" fill="#fff" d="m391.72699,222.05089l0.86949,-1.82703c1.22169,1.10062 3.30187,1.89307 5.41506,1.89307c2.83961,0 4.0613,-1.10062 4.0613,-2.53143c0,-4.00627 -9.93862,-1.47483 -9.93862,-7.57228c0,-2.53143 1.97011,-4.68865 6.28455,-4.68865c1.92609,0 3.91822,0.51729 5.27198,1.45282l-0.77044,1.87106c-1.43081,-0.91352 -3.04872,-1.33175 -4.50155,-1.33175c-2.78457,0 -3.98425,1.16666 -3.98425,2.59747c0,4.00627 9.93862,1.49685 9.93862,7.52826c0,2.50942 -2.01414,4.66664 -6.35059,4.66664c-2.50942,0 -4.97481,-0.84748 -6.28455,-2.05816l-0.01101,0z" class="cls-1"/>
    <path stroke="null" fill="#fff" d="m424.6246,219.81662l-8.71693,0l-1.80502,4.10532l-2.41036,0l7.4292,-16.41028l2.32231,0l7.45121,16.41028l-2.46539,0l-1.80502,-4.10532zm-0.82547,-1.87106l-3.544,-8.04555l-3.544,8.04555l7.077,0l0.01101,0z" class="cls-1"/>
    <path stroke="null" fill="#fff" d="m448.68421,223.92194l-3.544,-5.04085c-0.33019,0.02201 -0.68239,0.04402 -1.03459,0.04402l-4.0613,0l0,4.99683l-2.34433,0l0,-16.41028l6.40562,0c4.27042,0 6.84587,2.15722 6.84587,5.72324c0,2.53143 -1.30974,4.35847 -3.61004,5.18393l3.8962,5.51412l-2.55344,0l0,-0.01101zm-0.06604,-10.68704c0,-2.34433 -1.57389,-3.67608 -4.56758,-3.67608l-3.98425,0l0,7.38518l3.98425,0c3.0047,0 4.56758,-1.36477 4.56758,-3.7091z" class="cls-1"/>
    <path stroke="null" fill="#fff" d="m472.10545,223.92194l-3.544,-5.04085c-0.33019,0.02201 -0.68239,0.04402 -1.03459,0.04402l-4.0613,0l0,4.99683l-2.34433,0l0,-16.41028l6.39462,0c4.27042,0 6.84587,2.15722 6.84587,5.72324c0,2.53143 -1.30974,4.35847 -3.61004,5.18393l3.8962,5.51412l-2.55344,0l0.01101,-0.01101zm-0.06604,-10.68704c0,-2.34433 -1.57389,-3.67608 -4.56758,-3.67608l-3.98425,0l0,7.38518l3.98425,0c3.0047,0 4.56758,-1.36477 4.56758,-3.7091z" class="cls-1"/>
    <path stroke="null" fill="#fff" d="m483.23275,215.72231c0,-4.80972 3.7091,-8.39775 8.74995,-8.39775s8.69492,3.56602 8.69492,8.39775s-3.7091,8.38674 -8.69492,8.38674s-8.74995,-3.58803 -8.74995,-8.38674zm15.10054,0c0,-3.63205 -2.71854,-6.30657 -6.35059,-6.30657s-6.40562,2.67451 -6.40562,6.30657s2.71854,6.30657 6.40562,6.30657s6.35059,-2.67451 6.35059,-6.30657z" class="cls-1"/>
    <path stroke="null" fill="#fff" d="m510.63825,207.51166l2.34433,0l0,14.37413l8.88202,0l0,2.03615l-11.22635,0l0,-16.41028z" class="cls-1"/>
    <path stroke="null" fill="#fff" d="m530.95574,207.51166l2.34433,0l0,14.37413l8.88202,0l0,2.03615l-11.22635,0l0,-16.41028z" class="cls-1"/>
    <path stroke="null" fill="#fff" d="m549.6223,215.72231c0,-4.80972 3.7091,-8.39775 8.74995,-8.39775s8.69492,3.56602 8.69492,8.39775s-3.7091,8.38674 -8.69492,8.38674s-8.74995,-3.58803 -8.74995,-8.38674zm15.10054,0c0,-3.63205 -2.71854,-6.30657 -6.35059,-6.30657s-6.40562,2.67451 -6.40562,6.30657s2.71854,6.30657 6.40562,6.30657s6.35059,-2.67451 6.35059,-6.30657z" class="cls-1"/>
    <path stroke="null" fill="#fff" d="m601.72577,224.18609l-2.17923,-2.17923c-1.43081,1.38678 -3.30187,2.1132 -5.4811,2.1132c-3.32388,0 -5.74525,-1.761 -5.74525,-4.27042c0,-2.01414 1.14465,-3.42294 3.98425,-5.04085c-1.47483,-1.47483 -1.97011,-2.53143 -1.97011,-3.75312c0,-2.20125 1.73898,-3.67608 4.43551,-3.67608c2.48741,0 4.08331,1.28773 4.08331,3.42294c0,1.66194 -0.97955,2.86162 -3.48897,4.29243l4.0613,4.02828c0.44025,-0.84748 0.79245,-1.82703 1.01257,-2.98269l1.80502,0.58333c-0.28616,1.45282 -0.77044,2.71854 -1.43081,3.75312l2.20125,2.20125l-1.26572,1.49685l-0.02201,0.01101zm-3.52199,-3.48897l-4.66664,-4.64463c-2.3003,1.28773 -3.02671,2.24527 -3.02671,3.56602c0,1.57389 1.47483,2.63049 3.67608,2.63049c1.57389,0 2.94967,-0.51729 4.00627,-1.55188l0.01101,0zm-5.78927,-9.68548c0,0.84748 0.33019,1.45282 1.66194,2.81759c2.15722,-1.22169 2.86162,-1.97011 2.86162,-3.0047s-0.77044,-1.80502 -2.17923,-1.80502c-1.47483,0 -2.34433,0.82547 -2.34433,1.99213z" class="cls-1"/>
    <path stroke="null" fill="#fff" d="m623.37501,222.05089l0.86949,-1.82703c1.22169,1.10062 3.30187,1.89307 5.41506,1.89307c2.83961,0 4.0613,-1.10062 4.0613,-2.53143c0,-4.00627 -9.93862,-1.47483 -9.93862,-7.57228c0,-2.53143 1.97011,-4.68865 6.28455,-4.68865c1.92609,0 3.91822,0.51729 5.27198,1.45282l-0.77044,1.87106c-1.43081,-0.91352 -3.04872,-1.33175 -4.50155,-1.33175c-2.78457,0 -3.98425,1.16666 -3.98425,2.59747c0,4.00627 9.93862,1.49685 9.93862,7.52826c0,2.50942 -2.01414,4.66664 -6.35059,4.66664c-2.50942,0 -4.97481,-0.84748 -6.28455,-2.05816l-0.01101,0z" class="cls-1"/>
    <path stroke="null" fill="#fff" d="m644.47395,215.72231c0,-4.80972 3.7091,-8.39775 8.74995,-8.39775s8.69492,3.56602 8.69492,8.39775s-3.7091,8.38674 -8.69492,8.38674s-8.74995,-3.58803 -8.74995,-8.38674zm15.10054,0c0,-3.63205 -2.71854,-6.30657 -6.35059,-6.30657s-6.39462,2.67451 -6.39462,6.30657s2.71854,6.30657 6.39462,6.30657s6.35059,-2.67451 6.35059,-6.30657z" class="cls-1"/>
    <path stroke="null" fill="#fff" d="m671.89045,207.51166l2.34433,0l0,14.37413l8.88202,0l0,2.03615l-11.22635,0l0,-16.41028z" class="cls-1"/>
    <path stroke="null" fill="#fff" d="m691.7787,216.84494l0,-9.33328l2.34433,0l0,9.23422c0,3.63205 1.66194,5.27198 4.62261,5.27198s4.64463,-1.63993 4.64463,-5.27198l0,-9.23422l2.27829,0l0,9.33328c0,4.75469 -2.59747,7.26411 -6.94493,7.26411s-6.94493,-2.50942 -6.94493,-7.26411z" class="cls-1"/>
    <path stroke="null" fill="#fff" d="m715.50812,215.72231c0,-4.85375 3.7091,-8.39775 8.69492,-8.39775c2.53143,0 4.73268,0.86949 6.24053,2.55344l-1.51886,1.47483c-1.26572,-1.33175 -2.81759,-1.9481 -4.62261,-1.9481c-3.7091,0 -6.44965,2.67451 -6.44965,6.30657s2.74055,6.30657 6.44965,6.30657c1.80502,0 3.3569,-0.63836 4.62261,-1.97011l1.51886,1.47483c-1.49685,1.68395 -3.7091,2.57546 -6.26254,2.57546c-4.97481,0 -8.67291,-3.544 -8.67291,-8.38674l0,0.01101z" class="cls-1"/>
    <path stroke="null" fill="#fff" d="m740.18408,207.51166l2.34433,0l0,16.41028l-2.34433,0l0,-16.41028z" class="cls-1"/>
    <path stroke="null" fill="#fff" d="m752.48904,215.72231c0,-4.80972 3.7091,-8.39775 8.74995,-8.39775s8.69492,3.56602 8.69492,8.39775s-3.7091,8.38674 -8.69492,8.38674s-8.74995,-3.58803 -8.74995,-8.38674zm15.10054,0c0,-3.63205 -2.71854,-6.30657 -6.35059,-6.30657s-6.39462,2.67451 -6.39462,6.30657s2.71854,6.30657 6.39462,6.30657s6.35059,-2.67451 6.35059,-6.30657z" class="cls-1"/>
    <path stroke="null" fill="#fff" d="m794.02653,207.51166l0,16.41028l-1.92609,0l-9.85057,-12.23892l0,12.23892l-2.34433,0l0,-16.41028l1.92609,0l9.85057,12.23892l0,-12.23892l2.34433,0z" class="cls-1"/>
    <path stroke="null" fill="#fff" d="m817.23866,221.88579l0,2.03615l-11.90874,0l0,-16.41028l11.57855,0l0,2.03615l-9.23422,0l0,5.04085l8.23266,0l0,1.99213l-8.23266,0l0,5.29399l9.56441,0l0,0.01101z" class="cls-1"/>
    <path stroke="null" fill="#fff" d="m825.92257,222.05089l0.86949,-1.82703c1.22169,1.10062 3.30187,1.89307 5.41506,1.89307c2.83961,0 4.0613,-1.10062 4.0613,-2.53143c0,-4.00627 -9.93862,-1.47483 -9.93862,-7.57228c0,-2.53143 1.97011,-4.68865 6.28455,-4.68865c1.92609,0 3.91822,0.51729 5.27198,1.45282l-0.77044,1.87106c-1.43081,-0.91352 -3.04872,-1.33175 -4.50155,-1.33175c-2.78457,0 -3.98425,1.16666 -3.98425,2.59747c0,4.00627 9.93862,1.49685 9.93862,7.52826c0,2.50942 -2.01414,4.66664 -6.35059,4.66664c-2.50942,0 -4.97481,-0.84748 -6.28455,-2.05816l-0.01101,0z" class="cls-1"/>
    <path stroke="null" fill="#fff" d="m864.31229,209.54781l-5.62418,0l0,-2.03615l13.57068,0l0,2.03615l-5.62418,0l0,14.37413l-2.32231,0l0,-14.37413z" class="cls-1"/>
    <path stroke="null" fill="#fff" d="m893.10457,221.88579l0,2.03615l-11.90874,0l0,-16.41028l11.57855,0l0,2.03615l-9.23422,0l0,5.04085l8.23266,0l0,1.99213l-8.23266,0l0,5.29399l9.56441,0l0,0.01101z" class="cls-1"/>
    <path stroke="null" fill="#fff" d="m901.87653,215.72231c0,-4.85375 3.7091,-8.39775 8.69492,-8.39775c2.53143,0 4.73268,0.86949 6.24053,2.55344l-1.51886,1.47483c-1.26572,-1.33175 -2.81759,-1.9481 -4.62261,-1.9481c-3.7091,0 -6.44965,2.67451 -6.44965,6.30657s2.74055,6.30657 6.44965,6.30657c1.80502,0 3.3569,-0.63836 4.62261,-1.97011l1.51886,1.47483c-1.49685,1.68395 -3.7091,2.57546 -6.26254,2.57546c-4.97481,0 -8.67291,-3.544 -8.67291,-8.38674l0,0.01101z" class="cls-1"/>
    <path stroke="null" fill="#fff" d="m940.66247,207.51166l0,16.41028l-1.92609,0l-9.85057,-12.23892l0,12.23892l-2.34433,0l0,-16.41028l1.92609,0l9.85057,12.23892l0,-12.23892l2.34433,0z" class="cls-1"/>
    <path stroke="null" fill="#fff" d="m950.63411,215.72231c0,-4.80972 3.7091,-8.39775 8.74995,-8.39775s8.69492,3.56602 8.69492,8.39775s-3.7091,8.38674 -8.69492,8.38674s-8.74995,-3.58803 -8.74995,-8.38674zm15.10054,0c0,-3.63205 -2.71854,-6.30657 -6.35059,-6.30657s-6.39462,2.67451 -6.39462,6.30657s2.71854,6.30657 6.39462,6.30657s6.35059,-2.67451 6.35059,-6.30657z" class="cls-1"/>
    <path stroke="null" fill="#fff" d="m978.05062,207.51166l2.34433,0l0,14.37413l8.88202,0l0,2.03615l-11.22635,0l0,-16.41028z" class="cls-1"/>
    <path stroke="null" fill="#fff" d="m996.71718,215.72231c0,-4.80972 3.7091,-8.39775 8.74995,-8.39775s8.69492,3.56602 8.69492,8.39775s-3.7091,8.38674 -8.69492,8.38674s-8.74995,-3.58803 -8.74995,-8.38674zm15.10054,0c0,-3.63205 -2.71854,-6.30657 -6.35059,-6.30657s-6.39462,2.67451 -6.39462,6.30657s2.71854,6.30657 6.39462,6.30657s6.35059,-2.67451 6.35059,-6.30657zm-4.91978,-12.59112l2.86162,0l-3.94023,3.04872l-2.1132,0l3.19181,-3.04872z" class="cls-1"/>
    <path stroke="null" fill="#fff" d="m1035.50312,215.62325l2.24527,0l0,6.40562c-1.63993,1.38678 -3.91822,2.09118 -6.20751,2.09118c-5.04085,0 -8.74995,-3.544 -8.74995,-8.38674s3.7091,-8.39775 8.79397,-8.39775c2.59747,0 4.80972,0.86949 6.30657,2.53143l-1.45282,1.45282c-1.36477,-1.30974 -2.90564,-1.90408 -4.75469,-1.90408c-3.79715,0 -6.5377,2.6525 -6.5377,6.30657s2.74055,6.30657 6.51569,6.30657c1.38678,0 2.67451,-0.30817 3.84117,-1.0566l0,-5.34903z" class="cls-1"/>
    <path stroke="null" fill="#fff" d="m1048.61153,207.51166l2.34433,0l0,16.41028l-2.34433,0l0,-16.41028z" class="cls-1"/>
    <path stroke="null" fill="#fff" d="m1060.9275,215.72231c0,-4.85375 3.7091,-8.39775 8.69492,-8.39775c2.53143,0 4.73268,0.86949 6.24053,2.55344l-1.51886,1.47483c-1.26572,-1.33175 -2.81759,-1.9481 -4.62261,-1.9481c-3.7091,0 -6.44965,2.67451 -6.44965,6.30657s2.74055,6.30657 6.44965,6.30657c1.80502,0 3.3569,-0.63836 4.62261,-1.97011l1.51886,1.47483c-1.49685,1.68395 -3.7091,2.57546 -6.26254,2.57546c-4.97481,0 -8.67291,-3.544 -8.67291,-8.38674l0,0.01101z" class="cls-1"/>
    <path stroke="null" fill="#fff" d="m1095.65214,219.81662l-8.71693,0l-1.80502,4.10532l-2.41036,0l7.4292,-16.41028l2.32231,0l7.45121,16.41028l-2.46539,0l-1.80502,-4.10532zm-0.82547,-1.87106l-3.544,-8.04555l-3.544,8.04555l7.077,0l0.01101,0z" class="cls-1"/>
    <path stroke="null" fill="#fff" d="m1107.24169,222.05089l0.86949,-1.82703c1.22169,1.10062 3.30187,1.89307 5.41506,1.89307c2.83961,0 4.0613,-1.10062 4.0613,-2.53143c0,-4.00627 -9.93862,-1.47483 -9.93862,-7.57228c0,-2.53143 1.97011,-4.68865 6.28455,-4.68865c1.92609,0 3.91822,0.51729 5.27198,1.45282l-0.77044,1.87106c-1.43081,-0.91352 -3.04872,-1.33175 -4.50155,-1.33175c-2.78457,0 -3.98425,1.16666 -3.98425,2.59747c0,4.00627 9.93862,1.49685 9.93862,7.52826c0,2.50942 -2.01414,4.66664 -6.35059,4.66664c-2.50942,0 -4.97481,-0.84748 -6.28455,-2.05816l-0.01101,0z" class="cls-1"/>
   </g>
   <g stroke="null">
    <path stroke="null" fill="#3305c4" d="m283.10655,120.85965l0,36.71677l-13.9669,0l0,-86.49792l89.4696,0l-9.17919,11.89773l-66.33452,0l0,26.76714l70.726,0l-8.52982,11.11629l-62.19618,0l0.01101,0z" class="cls-2"/>
    <path stroke="null" fill="#3305c4" d="m367.15009,157.58743l0,-86.49792l91.80292,0l-9.17919,11.89773l-68.65683,0l0,25.9857l73.82976,0l-8.01253,10.34585l-65.81723,0l0,26.50299l78.48539,0l-9.17919,11.76565l-83.2731,0z" class="cls-2"/>
    <path stroke="null" fill="#3305c4" d="m495.29557,157.58743l8.52982,-11.76565l60.25908,0l-39.82052,-59.99493l-48.48242,71.76059l-16.55336,0l56.12074,-82.35958c1.80502,-2.71854 4.90878,-5.305 9.17919,-5.305s7.2421,2.32231 9.17919,5.305l55.3393,82.35958l-93.74002,0l-0.01101,0z" class="cls-2"/>
    <path stroke="null" fill="#3305c4" d="m610.24459,89.31581l0,68.27162l-12.66817,0l0,-78.87061c0,-6.20751 3.62105,-8.79397 7.75939,-8.79397c1.80502,0 3.87419,0.51729 6.07544,2.71854l69.42727,66.45559l0,-68.00747l12.80024,0l0,78.48539c0,6.20751 -3.75312,8.79397 -7.89146,8.79397c-1.80502,0 -3.75312,-0.38522 -5.94336,-2.58646l-69.55934,-66.45559l0,-0.01101z" class="cls-2"/>
    <path stroke="null" fill="#3305c4" d="m777.56122,85.56269l-30.77341,68.00747c-1.4198,2.97168 -4.13834,5.17293 -8.01253,5.17293c-3.62105,0 -6.59273,-2.32231 -8.01253,-6.59273l-28.18694,-81.07185l13.9669,0l24.31275,69.55934l28.83631,-65.29993c2.06917,-4.65563 5.04085,-5.42607 8.14461,-5.42607c3.48897,0 6.33959,0.78144 8.40876,5.42607l28.83631,65.29993l24.18068,-69.55934l13.70275,0l-28.31902,81.07185c-1.55188,4.27042 -4.39148,6.59273 -8.14461,6.59273s-6.46065,-2.06917 -7.89146,-5.17293l-31.02655,-68.00747l-0.02201,0z" class="cls-2"/>
    <path stroke="null" fill="#3305c4" d="m878.42227,157.58743l8.52982,-11.76565l60.25908,0l-39.82052,-59.99493l-48.48242,71.76059l-16.55336,0l56.12074,-82.35958c1.80502,-2.71854 4.90878,-5.305 9.17919,-5.305s7.2421,2.32231 9.17919,5.305l55.3393,82.35958l-93.74002,0l-0.01101,0z" class="cls-2"/>
    <path stroke="null" fill="#3305c4" d="m1075.6098,157.58743l-30.90548,-28.57216l-49.64908,0l0,28.57216l-13.9669,0l0,-39.82052l61.93203,0c16.15714,0 30.77341,-4.65563 30.77341,-17.07066c0,-13.70275 -12.80024,-17.70902 -30.77341,-17.70902l-146.94411,0l9.17919,-11.89773l142.93785,0c20.17441,0 39.9526,7.75939 39.9526,28.83631c0,15.51878 -11.38044,24.95111 -28.96838,26.50299l35.42904,31.15862l-19.00775,0l0.01101,0z" class="cls-2"/>
    <path stroke="null" fill="#3305c4" d="m1103.67567,157.58743l0,-86.49792l91.80292,0l-9.17919,11.89773l-68.65683,0l0,25.9857l73.82976,0l-8.01253,10.34585l-65.81723,0l0,26.50299l78.48539,0l-9.17919,11.76565l-83.2731,0z" class="cls-2"/>
   </g>
  </g>
 </g>

</svg>