<svg width="354" height="387" viewBox="0 0 354 387" fill="none" xmlns="http://www.w3.org/2000/svg">
<g clip-path="url(#clip0_259_8662)">
<path d="M84.1488 278.11C54.5272 249.318 71.0845 194.708 41.9828 202.817C12.2357 211.105 -21.7395 351.822 18.2102 372.788C36.5498 382.413 86.5049 379.944 51.9954 307.715C51.8986 307.514 52.1675 307.36 52.311 307.532C111.396 378.708 118.856 281.069 119.63 288.566C135.23 439.27 217.536 379.428 193.785 351.328C130.206 276.107 176.564 196.474 147.911 179.12C106.996 154.341 98.3141 249.737 84.1524 278.11H84.1488Z" fill="#F95F2E"/>
<path d="M333.336 25.9935C321.362 13.2333 303.209 7.85825 285.96 10.8432C245.519 17.8378 256.736 63.8443 228.463 72.5912C153.609 95.7467 144.697 180.145 196.75 193.292C305.454 220.744 396.237 93.0305 333.34 25.9935H333.336ZM223.396 152.224C197.79 149.228 207.566 112.545 245.483 109.102C290.822 104.985 276.532 62.1314 295.04 64.0843C296.854 64.2743 298.673 64.8404 300.118 65.9513C319.788 81.0944 288.728 159.87 223.396 152.224Z" fill="#F95F2E"/>
<path d="M165.006 94.8795C168.894 89.7697 173.276 85.0325 178.081 80.6895C179.071 79.7937 178.422 78.1561 177.088 78.1776L91.3503 79.4783C90.4573 79.4927 89.7652 78.7079 89.8943 77.8264C90.4286 74.0747 91.5439 64.5609 90.7873 54.7712C90.7227 53.9399 91.3539 53.2197 92.1894 53.2017C101.976 52.976 157.314 51.7505 221.779 51.3707C225.903 51.3456 229.661 48.9555 231.382 45.2109C232.279 43.2652 233.24 41.0112 234.323 38.4169C238.264 28.9641 243.421 16.6231 253.789 7.04483C256.521 4.51858 254.804 -0.0179248 251.088 -8.12317e-06L51.067 0.956742C33.9539 1.07141 21.0079 10.6353 21.2876 27.735C22.2774 88.7807 27.5598 115.713 9.69356 201.871C9.37439 203.419 11.4257 204.3 12.3079 202.989C19.6846 192.002 27.8072 185.344 36.8443 182.825C49.1735 179.392 57.9811 182.514 63.199 185.735C71.0419 190.58 75.2592 197.965 77.9954 206.264C78.4867 207.754 80.6492 207.532 80.8213 205.974C89.5751 125.273 77.9524 122.041 149.869 120.862C150.468 120.852 150.999 120.475 151.207 119.916C154.431 111.162 159.064 102.691 165.01 94.8723L165.006 94.8795Z" fill="#F95F2E"/>
<path d="M303.105 196.911C279.548 210.539 236.152 229.122 179.117 208.063C160.52 252.664 192.756 375.315 279.408 378.468C412.081 383.295 316.679 189.06 303.105 196.915V196.911ZM242.435 302.845C228.187 277.379 231.529 247.938 257.034 250.303C271.149 251.611 288.614 261.616 296.998 283.649C310.27 318.519 267.032 346.813 242.435 302.845Z" fill="#F95F2E"/>
</g>
<defs>
<clipPath id="clip0_259_8662">
<rect width="354" height="387" fill="white"/>
</clipPath>
</defs>
</svg>
