<svg width="299" height="101" viewBox="0 0 299 101" fill="none" xmlns="http://www.w3.org/2000/svg">
<path d="M36.1497 75.7923C30.6947 77.7181 24.8307 78.1342 19.1637 76.9974C9.91979 75.1612 3.99496 69.6182 1.35545 60.5471C-0.382888 54.6138 -0.450508 48.3068 1.16021 42.3366C3.16143 34.8395 7.72708 29.3155 14.9735 26.6467C26.7593 22.305 38.2898 22.8829 49.1933 29.6159C52.6814 31.7715 54.4836 34.8243 54.4273 39.2116C54.2621 51.5673 54.0781 63.9231 54.4273 76.2827C54.8516 90.7295 45.6001 97.8844 35.5677 99.8955C27.4877 101.507 19.4003 101.508 11.4892 98.8729C4.57693 96.5918 2.93991 91.3302 4.45303 85.8556C4.62454 85.3124 4.85896 84.7918 5.15139 84.3045C6.65325 81.6052 7.02871 81.4873 9.74332 82.7305C15.8183 85.5134 22.1336 86.6463 28.738 85.3233C29.4128 85.1883 30.0777 85.0066 30.728 84.7797C35.1472 83.259 36.6754 80.7536 36.1497 75.7923ZM36.0596 50.8602C36.0596 47.8188 36.0896 44.7774 36.0296 41.7359C36.0296 41.1885 35.8005 40.4091 35.41 40.1392C31.0321 37.1358 22.6443 39.5423 20.3915 44.4238C19.0173 47.3854 18.9797 50.5066 19.2651 53.7153C20.1024 63.4897 28.8169 64.7443 34.7192 61.969C35.7855 61.471 36.1159 60.7372 36.0859 59.5815C36.0183 56.6883 36.0596 53.7724 36.0596 50.8602Z" fill="#250C71"/>
<path d="M189.805 80.86C189.805 86.673 189.756 92.1779 189.835 97.6791C189.853 99.0858 189.515 99.7777 188.04 99.8423C184.619 99.9944 181.191 100.515 177.786 100.371C173.108 100.173 170.754 97.3674 170.693 92.5619C170.656 89.6498 170.675 86.7376 170.675 83.8178C170.675 68.6107 170.761 53.4036 170.618 38.1965C170.577 33.794 172.436 30.8134 175.946 28.692C180.369 26.0004 185.258 24.761 190.349 24.2858C197.077 23.6509 203.738 23.9854 210.117 26.4414C219.785 30.1595 225.106 37.4665 226.574 47.6971C227.479 53.9967 227.066 60.243 224.772 66.208C221.148 75.6402 213.988 80.419 204.35 81.8409C199.49 82.6209 194.519 82.2857 189.805 80.86ZM189.621 53.1071C189.621 56.0839 189.621 59.0606 189.621 62.0412C189.621 65.9571 189.587 66.0635 193.45 66.7935C199.019 67.8466 205.529 66.1434 206.851 58.1482C207.274 55.4059 207.37 52.622 207.136 49.8565C206.46 41.0288 199.251 36.7062 191.119 40.0479C190.06 40.4813 189.572 41.0402 189.617 42.272C189.673 45.8685 189.624 49.484 189.624 53.0957L189.621 53.1071Z" fill="#250C71"/>
<path d="M107.732 26.4718C112.294 25.4187 116.871 25.0499 121.459 26.0118C124.838 26.7189 126.715 29.5702 126.738 33.7674C126.772 41.7511 126.738 49.7349 126.76 57.7186C126.76 65.0637 129.903 67.9074 137.195 67.1851C142.173 66.6908 142.173 66.6908 142.173 61.7181C142.173 50.6929 142.173 39.6678 142.173 28.6426V26.506C146.266 25.4458 150.521 25.1877 154.71 25.7457C159.103 26.3691 161.217 29.0266 161.258 33.7826C161.314 40.3711 161.277 46.9634 161.277 53.5519C161.277 58.5588 161.239 63.5658 161.277 68.5689C161.314 72.6482 159.538 75.568 156.077 77.5639C151.537 80.1833 146.607 81.4911 141.464 81.9968C135.205 82.6127 128.968 82.4872 122.886 80.6091C113.709 77.7692 108.243 71.4431 107.83 61.5204C107.356 49.9022 107.732 38.2383 107.732 26.4718Z" fill="#250C71"/>
<path d="M263.456 26.5706C267.826 25.6278 271.952 25.1678 276.154 25.8863C277.112 26.0398 278.029 26.3884 278.85 26.9112C279.671 27.434 280.378 28.12 280.93 28.9277C281.168 29.2176 281.461 29.4562 281.792 29.6293C282.123 29.8023 282.485 29.9064 282.856 29.9352C287.046 30.0265 291.236 30.0189 295.426 29.958C296.669 29.958 297.364 30.3382 297.811 31.5434C298.76 34.1438 299.335 36.7404 298.787 39.5271C298.137 42.8194 296.324 44.534 293.012 44.6443C290.076 44.7393 287.132 44.7546 284.196 44.6443C282.769 44.5987 282.379 45.0853 282.402 46.4882C282.473 51.4305 282.402 56.3728 282.435 61.3151C282.435 64.7367 283.562 66.3524 286.9 66.744C289.393 67.0368 291.995 66.744 294.499 66.3639C295.847 66.1662 296.519 66.4665 297.172 67.5766C300.356 73.0094 297.961 79.5788 291.878 81.2326C285.495 82.9662 279.112 82.7229 272.929 80.2023C267.421 77.9517 264.604 73.5226 263.861 67.6945C263.602 65.4955 263.477 63.2825 263.486 61.068C263.441 50.2975 263.448 39.5309 263.437 28.7529L263.456 26.5706Z" fill="#250C71"/>
<path d="M63.8439 55.6276C63.8439 50.2443 63.9491 44.8572 63.8139 39.4739C63.6975 35.0106 65.4922 31.6878 69.2619 29.6083C77.1466 25.259 85.5795 23.2479 94.5419 24.5063C101.191 25.4377 104.214 31.9235 100.974 37.9646C100.707 38.4626 99.8472 38.7896 99.2164 38.8998C94.5494 39.6982 89.8673 40.4205 85.1928 41.1809C83.5257 41.4508 82.8912 42.3214 82.9062 44.1615C83.0001 55.5668 82.9062 66.9722 82.9888 78.3775C82.9888 80.0161 82.6134 80.8753 80.89 80.8943C77.2818 80.9323 73.6548 81.3163 70.0766 81.0349C66.4985 80.7536 64.2194 78.3167 64.088 74.6213C63.8852 68.299 64.0317 61.9614 64.0317 55.6124L63.8439 55.6276Z" fill="#250C71"/>
<path d="M234.511 25.9205C239.017 25.9205 243.327 25.681 247.581 26.0004C250.87 26.2475 252.898 28.7529 253.284 32.0832C253.407 33.1521 253.47 34.2272 253.472 35.3033C253.472 49.617 253.45 63.9307 253.51 78.2634C253.51 79.9552 253.209 80.8486 251.317 80.8486C247.656 80.8486 243.973 81.3201 240.342 81.0273C236.869 80.7422 234.849 78.1836 234.541 74.6327C234.406 73.0588 234.383 71.4735 234.383 69.8919C234.383 56.2055 234.383 42.5191 234.383 28.8327C234.383 28.0837 234.447 27.3386 234.511 25.9205Z" fill="#250C71"/>
<path d="M243.916 22.0503C249.93 22.0503 254.805 17.1142 254.805 11.0252C254.805 4.93613 249.93 0 243.916 0C237.903 0 233.028 4.93613 233.028 11.0252C233.028 17.1142 237.903 22.0503 243.916 22.0503Z" fill="#00FFBC"/>
<path d="M273.203 22.0503C279.216 22.0503 284.091 17.1142 284.091 11.0252C284.091 4.93613 279.216 0 273.203 0C267.189 0 262.314 4.93613 262.314 11.0252C262.314 17.1142 267.189 22.0503 273.203 22.0503Z" fill="#00FFBC"/>
</svg>
