<svg width="664" height="300" viewBox="0 0 664 300" fill="none" xmlns="http://www.w3.org/2000/svg">
<path d="M197.506 289.9C195.373 289.9 193.493 289.487 191.866 288.66C190.24 287.807 188.986 286.607 188.106 285.06C187.226 283.513 186.786 281.713 186.786 279.66C186.786 277.633 187.226 275.86 188.106 274.34C188.986 272.793 190.24 271.607 191.866 270.78C193.493 269.927 195.373 269.5 197.506 269.5C199.506 269.5 201.24 269.78 202.706 270.34C204.173 270.9 205.333 271.727 206.186 272.82C206.4 273.113 206.506 273.393 206.506 273.66C206.506 274.06 206.306 274.42 205.906 274.74C205.72 274.9 205.48 274.98 205.186 274.98C204.733 274.98 204.306 274.78 203.906 274.38C202.493 272.807 200.36 272.02 197.506 272.02C195.026 272.02 193.106 272.687 191.746 274.02C190.413 275.327 189.746 277.207 189.746 279.66C189.746 282.087 190.426 283.98 191.786 285.34C193.146 286.7 195.053 287.38 197.506 287.38C198.866 287.38 200.12 287.18 201.266 286.78C202.413 286.353 203.36 285.753 204.106 284.98C204.56 284.527 204.986 284.3 205.386 284.3C205.626 284.3 205.893 284.407 206.186 284.62C206.56 284.94 206.746 285.287 206.746 285.66C206.746 286.007 206.6 286.3 206.306 286.54C205 287.713 203.64 288.567 202.226 289.1C200.813 289.633 199.24 289.9 197.506 289.9Z" fill="black"/>
<path d="M230.062 289.9C227.742 289.9 225.755 289.433 224.102 288.5C222.449 287.567 221.195 286.327 220.342 284.78C219.515 283.207 219.102 281.513 219.102 279.7C219.102 277.887 219.515 276.207 220.342 274.66C221.195 273.087 222.449 271.833 224.102 270.9C225.755 269.967 227.742 269.5 230.062 269.5C232.382 269.5 234.355 269.967 235.982 270.9C237.635 271.833 238.875 273.087 239.702 274.66C240.555 276.207 240.982 277.887 240.982 279.7C240.982 281.513 240.555 283.207 239.702 284.78C238.875 286.327 237.635 287.567 235.982 288.5C234.355 289.433 232.382 289.9 230.062 289.9ZM230.062 287.38C232.462 287.38 234.382 286.7 235.822 285.34C237.289 283.98 238.022 282.1 238.022 279.7C238.022 277.3 237.289 275.42 235.822 274.06C234.382 272.7 232.462 272.02 230.062 272.02C227.635 272.02 225.689 272.7 224.222 274.06C222.782 275.42 222.062 277.3 222.062 279.7C222.062 282.1 222.782 283.98 224.222 285.34C225.689 286.7 227.635 287.38 230.062 287.38Z" fill="black"/>
<path d="M255.265 289.9C254.811 289.9 254.451 289.767 254.185 289.5C253.945 289.207 253.825 288.807 253.825 288.3V271.1C253.825 270.593 253.945 270.207 254.185 269.94C254.425 269.647 254.785 269.5 255.265 269.5C255.718 269.5 256.065 269.647 256.305 269.94C256.571 270.207 256.705 270.593 256.705 271.1V273.46C257.691 272.153 258.878 271.167 260.265 270.5C261.678 269.833 263.225 269.5 264.905 269.5C267.438 269.5 269.385 270.207 270.745 271.62C272.131 273.033 272.825 275.06 272.825 277.7V288.3C272.825 288.807 272.691 289.207 272.425 289.5C272.158 289.767 271.798 289.9 271.345 289.9C270.865 289.9 270.505 289.767 270.265 289.5C270.025 289.207 269.905 288.807 269.905 288.3V277.7C269.905 273.913 268.118 272.02 264.545 272.02C262.198 272.02 260.305 272.713 258.865 274.1C257.451 275.487 256.745 277.327 256.745 279.62V288.3C256.745 288.78 256.611 289.167 256.345 289.46C256.105 289.753 255.745 289.9 255.265 289.9Z" fill="black"/>
<path d="M295.558 289.9C293.691 289.9 291.931 289.553 290.278 288.86C288.624 288.14 287.318 287.153 286.358 285.9C286.171 285.633 286.078 285.367 286.078 285.1C286.078 284.833 286.144 284.607 286.278 284.42C286.438 284.207 286.638 284.047 286.878 283.94C287.091 283.86 287.264 283.82 287.398 283.82C287.638 283.82 287.838 283.887 287.998 284.02C288.184 284.127 288.398 284.313 288.638 284.58C290.371 286.42 292.678 287.34 295.558 287.34C296.944 287.34 298.064 287.1 298.918 286.62C299.771 286.14 300.198 285.473 300.198 284.62C300.198 284.007 300.024 283.513 299.678 283.14C299.358 282.74 298.798 282.38 297.998 282.06C297.224 281.713 295.944 281.233 294.158 280.62C292.424 280.033 291.064 279.473 290.078 278.94C289.091 278.407 288.358 277.807 287.878 277.14C287.398 276.447 287.158 275.607 287.158 274.62C287.158 273.073 287.824 271.833 289.158 270.9C290.518 269.967 292.318 269.5 294.558 269.5C296.211 269.5 297.744 269.793 299.158 270.38C300.571 270.94 301.638 271.7 302.358 272.66C302.571 272.953 302.678 273.233 302.678 273.5C302.678 273.9 302.464 274.22 302.038 274.46C301.771 274.62 301.504 274.7 301.238 274.7C300.784 274.7 300.358 274.5 299.958 274.1C299.264 273.407 298.504 272.9 297.678 272.58C296.851 272.233 295.798 272.06 294.518 272.06C293.104 272.06 292.024 272.287 291.278 272.74C290.531 273.193 290.158 273.833 290.158 274.66C290.158 275.273 290.304 275.767 290.598 276.14C290.918 276.487 291.411 276.807 292.078 277.1C292.771 277.367 293.971 277.78 295.678 278.34C297.598 278.98 299.078 279.593 300.118 280.18C301.184 280.74 301.944 281.367 302.398 282.06C302.878 282.753 303.118 283.607 303.118 284.62C303.118 286.22 302.411 287.5 300.998 288.46C299.611 289.42 297.798 289.9 295.558 289.9Z" fill="black"/>
<path d="M324.702 289.9C322.089 289.9 320.035 289.153 318.542 287.66C317.075 286.167 316.342 284.087 316.342 281.42V271.1C316.342 270.593 316.475 270.207 316.742 269.94C317.009 269.647 317.369 269.5 317.822 269.5C318.275 269.5 318.622 269.647 318.862 269.94C319.129 270.207 319.262 270.593 319.262 271.1V281.42C319.262 283.313 319.769 284.78 320.782 285.82C321.795 286.86 323.209 287.38 325.022 287.38C326.462 287.38 327.742 287.06 328.862 286.42C329.982 285.78 330.849 284.887 331.462 283.74C332.102 282.593 332.422 281.273 332.422 279.78V271.1C332.422 270.593 332.542 270.207 332.782 269.94C333.049 269.647 333.422 269.5 333.902 269.5C334.355 269.5 334.702 269.647 334.942 269.94C335.209 270.207 335.342 270.593 335.342 271.1V288.3C335.342 288.807 335.209 289.207 334.942 289.5C334.702 289.767 334.355 289.9 333.902 289.9C333.422 289.9 333.049 289.753 332.782 289.46C332.542 289.167 332.422 288.78 332.422 288.3V285.94C331.435 287.22 330.289 288.207 328.982 288.9C327.675 289.567 326.249 289.9 324.702 289.9Z" fill="black"/>
<path d="M352.035 289.9C351.582 289.9 351.222 289.767 350.955 289.5C350.715 289.207 350.595 288.807 350.595 288.3V260.74C350.595 260.233 350.715 259.847 350.955 259.58C351.222 259.287 351.582 259.14 352.035 259.14C352.488 259.14 352.848 259.287 353.115 259.58C353.382 259.847 353.515 260.233 353.515 260.74V288.3C353.515 288.78 353.382 289.167 353.115 289.46C352.875 289.753 352.515 289.9 352.035 289.9Z" fill="black"/>
<path d="M382.11 285.54C382.404 285.78 382.55 286.06 382.55 286.38C382.55 286.647 382.43 286.967 382.19 287.34C381.63 288.113 380.857 288.74 379.87 289.22C378.884 289.673 377.87 289.9 376.83 289.9C375.07 289.9 373.684 289.38 372.67 288.34C371.657 287.3 371.15 285.873 371.15 284.06V272.34H368.99C367.924 272.34 367.39 271.927 367.39 271.1C367.39 270.727 367.524 270.433 367.79 270.22C368.084 270.007 368.484 269.9 368.99 269.9H371.15V263.06C371.15 262.553 371.27 262.167 371.51 261.9C371.777 261.607 372.15 261.46 372.63 261.46C373.084 261.46 373.43 261.607 373.67 261.9C373.937 262.167 374.07 262.553 374.07 263.06V269.9H379.51C379.99 269.9 380.364 270.007 380.63 270.22C380.924 270.407 381.07 270.7 381.07 271.1C381.07 271.927 380.55 272.34 379.51 272.34H374.07V284.3C374.07 286.353 375.03 287.38 376.95 287.38C377.564 287.38 378.124 287.26 378.63 287.02C379.137 286.78 379.644 286.393 380.15 285.86C380.55 285.433 380.937 285.22 381.31 285.22C381.55 285.22 381.817 285.327 382.11 285.54Z" fill="black"/>
<path d="M397.796 265.26C397.21 265.26 396.703 265.073 396.276 264.7C395.876 264.3 395.676 263.82 395.676 263.26C395.676 262.7 395.876 262.22 396.276 261.82C396.703 261.42 397.21 261.22 397.796 261.22C398.383 261.22 398.89 261.433 399.316 261.86C399.77 262.26 399.996 262.727 399.996 263.26C399.996 263.793 399.77 264.26 399.316 264.66C398.89 265.06 398.383 265.26 397.796 265.26ZM397.796 289.9C397.343 289.9 396.983 289.767 396.716 289.5C396.476 289.207 396.356 288.807 396.356 288.3V271.1C396.356 270.593 396.476 270.207 396.716 269.94C396.983 269.647 397.343 269.5 397.796 269.5C398.276 269.5 398.636 269.647 398.876 269.94C399.143 270.207 399.276 270.593 399.276 271.1V288.3C399.276 288.807 399.143 289.207 398.876 289.5C398.636 289.767 398.276 289.9 397.796 289.9Z" fill="black"/>
<path d="M415.916 289.9C415.463 289.9 415.103 289.767 414.836 289.5C414.596 289.207 414.476 288.807 414.476 288.3V271.1C414.476 270.593 414.596 270.207 414.836 269.94C415.076 269.647 415.436 269.5 415.916 269.5C416.37 269.5 416.716 269.647 416.956 269.94C417.223 270.207 417.356 270.593 417.356 271.1V273.46C418.343 272.153 419.53 271.167 420.916 270.5C422.33 269.833 423.876 269.5 425.556 269.5C428.09 269.5 430.036 270.207 431.396 271.62C432.783 273.033 433.476 275.06 433.476 277.7V288.3C433.476 288.807 433.343 289.207 433.076 289.5C432.81 289.767 432.45 289.9 431.996 289.9C431.516 289.9 431.156 289.767 430.916 289.5C430.676 289.207 430.556 288.807 430.556 288.3V277.7C430.556 273.913 428.77 272.02 425.196 272.02C422.85 272.02 420.956 272.713 419.516 274.1C418.103 275.487 417.396 277.327 417.396 279.62V288.3C417.396 288.78 417.263 289.167 416.996 289.46C416.756 289.753 416.396 289.9 415.916 289.9Z" fill="black"/>
<path d="M458.049 299.54C456.129 299.54 454.396 299.26 452.849 298.7C451.303 298.14 450.049 297.327 449.089 296.26C448.876 296.047 448.769 295.78 448.769 295.46C448.769 295.06 448.983 294.713 449.409 294.42C449.676 294.233 449.929 294.14 450.169 294.14C450.569 294.14 450.969 294.353 451.369 294.78C452.009 295.473 452.863 296.033 453.929 296.46C454.996 296.887 456.276 297.1 457.769 297.1C460.383 297.1 462.383 296.473 463.769 295.22C465.156 293.967 465.849 292.153 465.849 289.78V286.02C464.943 287.22 463.756 288.207 462.289 288.98C460.823 289.727 459.116 290.1 457.169 290.1C453.783 290.1 451.169 289.193 449.329 287.38C447.489 285.567 446.569 283.14 446.569 280.1C446.569 278.047 446.969 276.233 447.769 274.66C448.596 273.06 449.823 271.807 451.449 270.9C453.076 269.967 455.076 269.5 457.449 269.5C459.209 269.5 460.796 269.86 462.209 270.58C463.623 271.3 464.836 272.327 465.849 273.66V271.02C465.849 270.593 465.983 270.233 466.249 269.94C466.543 269.647 466.903 269.5 467.329 269.5C467.756 269.5 468.103 269.647 468.369 269.94C468.636 270.207 468.769 270.567 468.769 271.02V289.78C468.769 291.78 468.316 293.513 467.409 294.98C466.529 296.447 465.276 297.567 463.649 298.34C462.023 299.14 460.156 299.54 458.049 299.54ZM457.449 287.5C458.889 287.5 460.236 287.22 461.489 286.66C462.769 286.1 463.809 285.247 464.609 284.1C465.409 282.927 465.809 281.5 465.809 279.82C465.809 278.327 465.489 276.993 464.849 275.82C464.209 274.647 463.276 273.727 462.049 273.06C460.823 272.367 459.356 272.02 457.649 272.02C455.063 272.02 453.063 272.727 451.649 274.14C450.236 275.527 449.529 277.513 449.529 280.1C449.529 282.393 450.196 284.207 451.529 285.54C452.889 286.847 454.863 287.5 457.449 287.5Z" fill="black"/>
<path d="M0.000244141 196.5C0.000244141 194.291 1.79111 192.5 4.00024 192.5C6.20938 192.5 8.00024 194.291 8.00024 196.5V228.5C8.00024 230.709 6.20938 232.5 4.00024 232.5C1.79111 232.5 0.000244141 230.709 0.000244141 228.5V196.5Z" fill="black"/>
<path d="M91.0402 232.5C88.8311 232.5 87.0402 230.709 87.0402 228.5V212.5C87.0402 209.167 85.8736 206.333 83.5402 204C81.2069 201.667 78.3736 200.5 75.0402 200.5C71.7069 200.5 68.8736 201.667 66.5402 204C64.2069 206.333 63.0402 209.167 63.0402 212.5V228.5C63.0402 230.709 61.2494 232.5 59.0402 232.5C56.8311 232.5 55.0402 230.709 55.0402 228.5V212.5C55.0402 206.917 56.9986 202.208 60.9152 198.375C64.8319 194.458 69.5402 192.5 75.0402 192.5C80.5402 192.5 85.2486 194.458 89.1652 198.375C93.0819 202.208 95.0402 206.917 95.0402 212.5V228.5C95.0402 230.709 93.2494 232.5 91.0402 232.5Z" fill="black"/>
<path d="M162.08 232.5C159.871 232.5 158.08 230.709 158.08 228.5V212.5C158.08 209.167 156.914 206.333 154.58 204C152.247 201.667 149.414 200.5 146.08 200.5C142.747 200.5 139.914 201.667 137.58 204C135.247 206.333 134.08 209.167 134.08 212.5V228.5C134.08 230.709 132.289 232.5 130.08 232.5C127.871 232.5 126.08 230.709 126.08 228.5V212.5C126.08 206.917 128.039 202.208 131.955 198.375C135.872 194.458 140.58 192.5 146.08 192.5C151.58 192.5 156.289 194.458 160.205 198.375C164.122 202.208 166.08 206.917 166.08 212.5V228.5C166.08 230.709 164.289 232.5 162.08 232.5Z" fill="black"/>
<path d="M217.12 232.5C211.62 232.5 206.912 230.542 202.995 226.625C199.079 222.708 197.12 218 197.12 212.5C197.12 207 199.079 202.292 202.995 198.375C206.912 194.458 211.62 192.5 217.12 192.5C222.62 192.5 227.329 194.458 231.245 198.375C235.162 202.292 237.12 207 237.12 212.5C237.12 218 235.162 222.708 231.245 226.625C227.329 230.542 222.62 232.5 217.12 232.5ZM217.12 224.5C220.454 224.5 223.287 223.333 225.62 221C227.954 218.667 229.12 215.833 229.12 212.5C229.12 209.167 227.954 206.333 225.62 204C223.287 201.667 220.454 200.5 217.12 200.5C213.787 200.5 210.954 201.667 208.62 204C206.287 206.333 205.12 209.167 205.12 212.5C205.12 215.833 206.287 218.667 208.62 221C210.954 223.333 213.787 224.5 217.12 224.5Z" fill="black"/>
<path d="M304.16 208.5C306.369 208.5 308.16 210.291 308.16 212.5V228.5C308.16 230.709 306.369 232.5 304.16 232.5H288.16C282.577 232.5 277.827 230.542 273.91 226.625C270.077 222.708 268.16 218 268.16 212.5C268.16 207 270.077 202.292 273.91 198.375C277.827 194.458 282.577 192.5 288.16 192.5H304.16C306.369 192.5 308.16 194.291 308.16 196.5C308.16 198.709 306.369 200.5 304.16 200.5H288.16C284.827 200.5 281.994 201.667 279.66 204C277.327 206.333 276.16 209.167 276.16 212.5C276.16 215.833 277.327 218.667 279.66 221C281.994 223.333 284.827 224.5 288.16 224.5H296.16C298.369 224.5 300.16 222.709 300.16 220.5C300.16 218.291 298.369 216.5 296.16 216.5C293.951 216.5 292.16 214.709 292.16 212.5C292.16 210.291 293.951 208.5 296.16 208.5H304.16Z" fill="black"/>
<path d="M347.2 204.5C347.2 206.709 348.991 208.5 351.2 208.5H363.2C368.534 208.5 371.2 207.167 371.2 204.5C371.2 201.833 368.534 200.5 363.2 200.5H351.2C348.991 200.5 347.2 202.291 347.2 204.5ZM374.18 232.5C373.452 232.5 372.742 232.286 372.137 231.889C371.956 231.77 371.777 231.645 371.587 231.54L353.966 221.778C353.776 221.673 353.597 221.549 353.416 221.427C350.807 219.672 347.2 221.526 347.2 224.758V228.5C347.2 230.709 345.409 232.5 343.2 232.5C340.991 232.5 339.2 230.709 339.2 228.5V196.5C339.2 194.291 340.991 192.5 343.2 192.5H363.2C373.867 192.5 379.2 196.5 379.2 204.5C379.2 212.5 373.867 216.5 363.2 216.5C362.142 216.5 361.594 217.658 362.095 218.463C362.249 218.711 362.516 218.857 362.777 218.988L376.14 225.695C376.401 225.826 376.653 225.981 376.858 226.189C379.109 228.474 377.532 232.5 374.18 232.5Z" fill="black"/>
<path d="M430.24 232.5C424.74 232.5 420.032 230.542 416.115 226.625C412.199 222.708 410.24 218 410.24 212.5C410.24 207 412.199 202.292 416.115 198.375C420.032 194.458 424.74 192.5 430.24 192.5C435.74 192.5 440.449 194.458 444.365 198.375C448.282 202.292 450.24 207 450.24 212.5C450.24 218 448.282 222.708 444.365 226.625C440.449 230.542 435.74 232.5 430.24 232.5ZM430.24 224.5C433.574 224.5 436.407 223.333 438.74 221C441.074 218.667 442.24 215.833 442.24 212.5C442.24 209.167 441.074 206.333 438.74 204C436.407 201.667 433.574 200.5 430.24 200.5C426.907 200.5 424.074 201.667 421.74 204C419.407 206.333 418.24 209.167 418.24 212.5C418.24 215.833 419.407 218.667 421.74 221C424.074 223.333 426.907 224.5 430.24 224.5Z" fill="black"/>
<path d="M485.28 192.5C487.489 192.5 489.28 194.291 489.28 196.5V220.5C489.28 222.709 491.071 224.5 493.28 224.5C495.489 224.5 497.28 222.709 497.28 220.5V196.5C497.28 194.291 499.071 192.5 501.28 192.5C503.489 192.5 505.28 194.291 505.28 196.5V220.5C505.28 222.709 507.071 224.5 509.28 224.5C511.489 224.5 513.28 222.709 513.28 220.5V196.5C513.28 194.291 515.071 192.5 517.28 192.5C519.489 192.5 521.28 194.291 521.28 196.5V220.5C521.28 228.5 517.28 232.5 509.28 232.5H493.28C485.28 232.5 481.28 228.5 481.28 220.5V196.5C481.28 194.291 483.071 192.5 485.28 192.5Z" fill="black"/>
<path d="M556.32 200.5C554.111 200.5 552.32 198.709 552.32 196.5C552.32 194.291 554.111 192.5 556.32 192.5H588.32C590.529 192.5 592.32 194.291 592.32 196.5C592.32 198.709 590.529 200.5 588.32 200.5H580.32C578.111 200.5 576.32 202.291 576.32 204.5V228.5C576.32 230.709 574.529 232.5 572.32 232.5C570.111 232.5 568.32 230.709 568.32 228.5V204.5C568.32 202.291 566.529 200.5 564.32 200.5H556.32Z" fill="black"/>
<path d="M623.36 196.5C623.36 194.291 625.151 192.5 627.36 192.5C629.569 192.5 631.36 194.291 631.36 196.5V204.5C631.36 206.709 633.151 208.5 635.36 208.5H651.36C653.569 208.5 655.36 206.709 655.36 204.5V196.5C655.36 194.291 657.151 192.5 659.36 192.5C661.569 192.5 663.36 194.291 663.36 196.5V228.5C663.36 230.709 661.569 232.5 659.36 232.5C657.151 232.5 655.36 230.709 655.36 228.5V220.5C655.36 218.291 653.569 216.5 651.36 216.5H635.36C633.151 216.5 631.36 218.291 631.36 220.5V228.5C631.36 230.709 629.569 232.5 627.36 232.5C625.151 232.5 623.36 230.709 623.36 228.5V196.5Z" fill="black"/>
<path d="M430.24 232.5C424.74 232.5 420.032 230.542 416.115 226.625C412.199 222.708 410.24 218 410.24 212.5C410.24 207 412.199 202.292 416.115 198.375C420.032 194.458 424.74 192.5 430.24 192.5C435.74 192.5 440.449 194.458 444.365 198.375C448.282 202.292 450.24 207 450.24 212.5C450.24 218 448.282 222.708 444.365 226.625C440.449 230.542 435.74 232.5 430.24 232.5ZM430.24 224.5C433.574 224.5 436.407 223.333 438.74 221C441.074 218.667 442.24 215.833 442.24 212.5C442.24 209.167 441.074 206.333 438.74 204C436.407 201.667 433.574 200.5 430.24 200.5C426.907 200.5 424.074 201.667 421.74 204C419.407 206.333 418.24 209.167 418.24 212.5C418.24 215.833 419.407 218.667 421.74 221C424.074 223.333 426.907 224.5 430.24 224.5Z" fill="black"/>
<path d="M326.604 62.4288L322.214 90.5617L338.677 81.0623L355.871 94.5807L414.587 0.5L326.604 62.4288Z" fill="black"/>
<path d="M371.601 107.186L356.968 95.4941L415.867 0.865362L408.368 73.9377H401.6L395.381 78.3221L371.601 107.186Z" fill="black"/>
<path d="M401.966 75.3992L397.393 78.5047L438 90.379L408.733 75.3992H401.966Z" fill="black"/>
<path d="M399.771 86.5427L401.6 81.0623L434.342 90.5617L399.771 86.5427Z" fill="black"/>
<path d="M405.441 88.3695L399.405 87.8215L377.821 154.135L387.881 145.183L405.441 88.3695Z" fill="black"/>
<path d="M396.112 79.6008L365.748 116.137L376.723 129.29L377.455 150.664L400.319 80.6969L396.112 79.6008Z" fill="black"/>
<path d="M365.016 115.041L340.323 83.8025L370.687 108.099L365.016 115.041Z" fill="black"/>
<path d="M330.179 112.118L338.311 83.8025L374.777 129.655L330.179 112.118Z" fill="black"/>
<path d="M336.299 83.8025L304.471 102.071L328.982 111.387L336.299 83.8025Z" fill="black"/>
<path d="M375.26 131.3L352.212 141.164L349.834 141.53L376.174 154.135L375.26 131.3Z" fill="black"/>
<path d="M373.796 130.386L329.531 113.214L228.195 154.5L351.481 139.886L373.796 130.386Z" fill="black"/>
<path d="M275.936 102.436L226 153.952L327.702 112.666L302.642 102.984L275.936 102.436Z" fill="black"/>
<path d="M276.851 100.974L238.073 35.9401L300.813 101.34L276.851 100.974Z" fill="black"/>
<path d="M310.69 96.5902L243.926 39.9591L302.642 101.34L310.69 96.5902Z" fill="black"/>
</svg>
