<svg xmlns="http://www.w3.org/2000/svg" width="91" height="37" viewBox="0 0 91 37" fill="none"><path d="M18.7881 28.5854C13.6013 28.5827 9.40012 24.3751 9.4065 19.1901C9.41288 13.9942 13.6022 9.83765 18.8227 9.84767C24.0533 9.85769 28.2117 14.0152 28.2026 19.2238C28.1934 24.417 23.9977 28.5891 18.7881 28.5854ZM18.8455 13.3666C15.5671 13.3502 12.9482 15.9081 12.93 19.1446C12.9117 22.3975 15.4787 24.9955 18.7453 25.0292C21.9809 25.062 24.6672 22.4421 24.6754 19.2448C24.6846 16.0064 22.082 13.383 18.8455 13.3666Z" fill="#52BDC2"></path><path d="M39.4853 9.84802C37.2754 9.84347 35.2504 10.5868 33.649 11.8384V0.708701C33.649 0.317002 33.332 0 32.9403 0H30.8006C30.4089 0 30.0919 0.317002 30.0919 0.708701V18.5519C30.0773 18.7623 30.0691 18.9755 30.0691 19.1896C30.0691 19.4118 30.0764 19.6323 30.0919 19.8509C30.2777 22.5764 31.6277 24.9822 33.649 26.5754C35.245 27.8334 37.2599 28.5849 39.4507 28.5858C44.6603 28.5885 48.8551 24.4174 48.8651 19.2242C48.8743 14.0155 44.7159 9.85804 39.4853 9.84802ZM39.4079 25.0295C36.4328 24.9995 34.038 22.8406 33.649 19.9976V18.3752C34.0407 15.5131 36.4957 13.3524 39.5081 13.3678C42.7455 13.3842 45.3471 16.0077 45.338 19.246C45.3289 22.4434 42.6426 25.0632 39.4079 25.0304V25.0295Z" fill="#2D3F50"></path><path d="M60.0933 9.84802C57.8833 9.84347 55.8584 10.5868 54.2569 11.8384V0.708701C54.2569 0.317002 53.9399 0 53.5482 0H51.4085C51.0168 0 50.6998 0.317002 50.6998 0.708701V18.5519C50.6852 18.7623 50.677 18.9755 50.677 19.1896C50.677 19.4118 50.6843 19.6323 50.6998 19.8509C50.8856 22.5764 52.2356 24.9822 54.2569 26.5754C55.8529 27.8334 57.8679 28.5849 60.0586 28.5858C65.2682 28.5885 69.463 24.4174 69.4731 19.2242C69.4822 14.0155 65.3238 9.85804 60.0933 9.84802ZM60.0158 25.0295C57.0407 24.9995 54.6459 22.8406 54.2569 19.9976V18.3752C54.6486 15.5131 57.1036 13.3524 60.116 13.3678C63.3535 13.3842 65.9551 16.0077 65.946 19.246C65.9368 22.4434 63.2505 25.0632 60.0158 25.0304V25.0295Z" fill="#2D3F50"></path><path d="M8.174 25.0502C8.0747 25.0192 7.96904 24.9991 7.86246 24.9873C7.74131 24.9727 7.62106 24.9536 7.50264 24.9326C6.38129 24.6876 4.2725 23.7366 4.2725 20.041V0.731161C4.2725 0.339463 3.9555 0.0224609 3.5638 0.0224609H1.42403C1.03233 0.0224609 0.715332 0.339463 0.715332 0.731161V20.5065C0.715332 25.6687 4.20964 27.5197 4.656 27.7356C5.2144 28.0052 5.82016 28.1992 6.4232 28.3404C6.73291 28.4124 7.04627 28.4689 7.36145 28.5099C7.65112 28.5472 7.98908 28.6474 8.27055 28.5253C8.52379 28.416 8.69049 28.151 8.69049 27.8777V25.696C8.69049 25.3243 8.46276 25.1403 8.17309 25.0502H8.174Z" fill="#2D3F50"></path><path d="M89.9078 17.3992C89.7776 17.248 89.5853 17.1523 89.3713 17.1523H87.2315C86.8398 17.1523 86.5228 17.4693 86.5228 17.861V18.6271C86.5228 19.5344 86.5019 20.4153 86.1703 21.2725C85.8597 22.0768 85.3659 22.8065 84.741 23.4004C83.6689 24.4188 82.2123 25.0446 80.6227 25.0282C79.0459 25.0118 77.634 24.3969 76.5946 23.4004C75.9169 22.75 75.3968 21.932 75.1044 21.0384C74.812 20.1447 74.8539 19.3331 74.8539 18.4468V17.8738C74.8539 17.4821 74.5368 17.1651 74.1452 17.1651H72.0054C71.7795 17.1651 71.5791 17.2708 71.4488 17.4356C71.3532 17.5559 71.2967 17.708 71.2967 17.8738V18.7018C71.2885 18.8631 71.2839 19.0261 71.2839 19.1892C71.2839 19.3586 71.2885 19.5271 71.2967 19.6947C71.3659 21.0238 71.7112 22.279 72.2768 23.4049C72.8771 24.601 73.7261 25.6513 74.7564 26.4875C74.8019 26.524 74.8466 26.5604 74.8921 26.5968C76.4835 27.8412 78.4875 28.5836 80.6646 28.5854C82.8545 28.5863 84.8649 27.8503 86.4609 26.6105C86.4864 26.7526 86.5073 26.8956 86.5219 27.0414C86.5429 27.2445 86.5529 27.4495 86.5529 27.6581C86.5529 27.7646 86.5492 27.8712 86.5429 27.9769C86.3634 31.0276 83.75 33.4743 80.6227 33.4424C78.2835 33.4188 76.3022 32.0779 75.3731 30.1239C75.3357 30.0447 75.3002 29.9645 75.2656 29.8834C75.1372 29.6994 74.9249 29.5792 74.6835 29.5792H72.5228C72.1311 29.5792 71.8141 29.8962 71.8141 30.2879C71.8141 31.3072 72.5046 32.3502 73.0885 33.1482C73.7225 34.0154 74.505 34.7715 75.3922 35.3763C76.8943 36.3993 78.7098 36.9978 80.6646 36.9996C85.7913 37.0023 89.9361 32.9615 90.0754 27.884C90.0782 27.8603 90.0791 27.8366 90.0791 27.812V17.862C90.0791 17.6852 90.0144 17.524 89.9069 17.4001L89.9078 17.3992Z" fill="#2D3F50"></path><path d="M76.5519 14.2932C77.6662 14.2932 78.5696 13.3899 78.5696 12.2755C78.5696 11.1612 77.6662 10.2578 76.5519 10.2578C75.4375 10.2578 74.5342 11.1612 74.5342 12.2755C74.5342 13.3899 75.4375 14.2932 76.5519 14.2932Z" fill="#52BDC2"></path><path d="M84.813 14.2932C85.9273 14.2932 86.8307 13.3899 86.8307 12.2755C86.8307 11.1612 85.9273 10.2578 84.813 10.2578C83.6986 10.2578 82.7953 11.1612 82.7953 12.2755C82.7953 13.3899 83.6986 14.2932 84.813 14.2932Z" fill="#52BDC2"></path></svg>