<svg width="64" height="64" viewBox="0 0 64 64" fill="none" xmlns="http://www.w3.org/2000/svg">
<path d="M18.6673 23.9997C23.822 23.9997 28.0007 19.821 28.0007 14.6663C28.0007 9.51169 23.822 5.33301 18.6673 5.33301C13.5127 5.33301 9.33398 9.51169 9.33398 14.6663C9.33398 19.821 13.5127 23.9997 18.6673 23.9997Z" stroke="#F3A44D" stroke-width="5" stroke-linejoin="round"/>
<path d="M45.3333 23.9997C50.488 23.9997 54.6667 19.821 54.6667 14.6663C54.6667 9.51169 50.488 5.33301 45.3333 5.33301C40.1787 5.33301 36 9.51169 36 14.6663C36 19.821 40.1787 23.9997 45.3333 23.9997Z" stroke="#F3A44D" stroke-width="5" stroke-linejoin="round"/>
<path d="M5.33398 58.6663C5.33398 57.4811 5.33398 53.4811 5.33398 46.6663C5.33398 39.3026 10.361 33.333 16.5621 33.333C19.5563 33.333 21.8019 33.333 23.2989 33.333C28.7456 33.333 32.0008 38.7022 32.0008 38.7022" stroke="#F3A44D" stroke-width="5" stroke-linecap="round" stroke-linejoin="round"/>
<path d="M58.6668 58.6663C58.6668 57.4811 58.6668 53.4811 58.6668 46.6663C58.6668 39.3026 53.58 33.333 47.3051 33.333C44.2754 33.333 42.0031 33.333 40.4882 33.333C35.2066 33.333 31.9898 38.7022 32 38.7022" stroke="#F3A44D" stroke-width="5" stroke-linecap="round" stroke-linejoin="round"/>
<path d="M14.666 53.333H50.666" stroke="#F3A44D" stroke-width="5" stroke-linecap="round" stroke-linejoin="round"/>
<path d="M45.7266 48.3447L47.3794 50.0077L50.6848 53.3334L47.3794 56.7487L45.7266 58.4565" stroke="#F3A44D" stroke-width="5" stroke-linecap="round" stroke-linejoin="round"/>
<path d="M19.1052 48.3096L17.4262 49.981L14.0684 53.3238L17.4262 56.7221L19.1052 58.4213" stroke="#F3A44D" stroke-width="5" stroke-linecap="round" stroke-linejoin="round"/>
</svg>
