<svg width="53" height="48" viewBox="0 0 53 48" fill="none" xmlns="http://www.w3.org/2000/svg">
<path d="M4.18655 4.18836C4.18655 1.74486 5.93095 0 8.37311 0H12.9085C13.2939 0 13.6063 0.312568 13.6063 0.698142V3.14115C13.6063 3.52672 13.2939 3.83929 12.9085 3.83929H9.76862C8.72199 3.83929 8.37311 4.18836 8.37311 5.23557V19.6366C8.37311 21.962 6.79328 23.497 4.5357 23.64C4.34341 23.6522 4.18655 23.8072 4.18655 24C4.18655 24.1928 4.3434 24.3478 4.5357 24.36C6.79328 24.503 8.37311 26.038 8.37311 28.3634V42.7644C8.37311 43.8116 8.6015 44.1607 9.76862 44.1607H12.9085C13.2939 44.1607 13.6063 44.4733 13.6063 44.8589V47.3019C13.6063 47.6874 13.2939 48 12.9085 48H8.37311C5.93095 48.0005 4.18655 46.2551 4.18655 43.779V28.3634C4.18655 27.3162 3.83767 26.9671 2.79104 26.9671H0.697759C0.312397 26.9671 0 26.6545 0 26.269V21.731C0 21.3455 0.312397 21.0329 0.697759 21.0329H2.79104C3.83767 21.0329 4.18655 20.6838 4.18655 19.6366V4.18836Z" fill="#F3A44D"/>
<path fill-rule="evenodd" clip-rule="evenodd" d="M16.6385 0.611463C16.6385 0.273761 16.9098 0 17.2444 0H49.1286C50.8015 0 52.1577 1.36881 52.1577 3.05732V44.9427C52.1577 46.6312 50.8015 48 49.1286 48H17.2444C16.9098 48 16.6385 47.7262 16.6385 47.3885V41.1294H12.3226C11.988 41.1294 11.7168 40.8557 11.7168 40.518V7.48202C11.7168 7.14432 11.988 6.87056 12.3226 6.87056H16.6385V0.611463ZM31.1758 41.168C30.8412 41.168 30.57 41.4417 30.57 41.7794V43.9196C30.57 44.2573 30.8412 44.531 31.1758 44.531H48.1392C48.4738 44.531 48.7451 44.2573 48.7451 43.9196V41.7794C48.7451 41.4417 48.4738 41.168 48.1392 41.168H31.1758Z" fill="#F3A44D"/>
</svg>
