<svg width="64" height="64" viewBox="0 0 64 64" fill="none" xmlns="http://www.w3.org/2000/svg">
<path d="M10.6667 10.667C12.0342 10.667 13.1614 11.6964 13.3154 13.0227L13.3333 13.3337V48.0003H53.3333C54.8061 48.0003 56 49.1942 56 50.667C56 52.0346 54.9706 53.1617 53.6443 53.3157L53.3333 53.3337H10.6667C9.29912 53.3337 8.17198 52.3043 8.01794 50.978L8 50.667V13.3337C8 11.8609 9.19392 10.667 10.6667 10.667ZM53.8493 18.182C56.2488 18.182 57.4504 21.0832 55.7536 22.7798L40.9029 37.6307C39.7573 38.7763 37.9 38.7763 36.7544 37.6307L29.4005 30.2769L19.9725 39.7049C18.9311 40.7462 17.2427 40.7462 16.2013 39.7049C15.1599 38.6635 15.1599 36.975 16.2013 35.9337L27.3264 24.8085C28.472 23.6629 30.3293 23.6629 31.4747 24.8085L38.8288 32.1625L47.4757 23.5153H46.3712C44.8984 23.5153 43.7045 22.3214 43.7045 20.8487C43.7045 19.3759 44.8984 18.182 46.3712 18.182H53.8493Z" fill="#5EA496"/>
</svg>
