<svg width="20" height="70" viewBox="0 0 20 70" fill="none" xmlns="http://www.w3.org/2000/svg">
<path d="M6.15385 6.10803C6.15385 2.54459 8.71795 0 12.3077 0H18.9744C19.5408 0 20 0.455829 20 1.01812V4.58084C20 5.14314 19.5408 5.59896 18.9744 5.59896H14.359C12.8205 5.59896 12.3077 6.10803 12.3077 7.63521V28.6367C12.3077 32.0279 9.98549 34.2665 6.66706 34.475C6.3844 34.4927 6.15385 34.7188 6.15385 35C6.15385 35.2811 6.3844 35.5072 6.66706 35.525C9.98549 35.7335 12.3077 37.9721 12.3077 41.3633V62.3648C12.3077 63.892 12.6434 64.401 14.359 64.401H18.9744C19.5408 64.401 20 64.8569 20 65.4192V68.9819C20 69.5442 19.5408 70 18.9744 70H12.3077C8.71795 70.0007 6.15385 67.4554 6.15385 63.8443V41.3633C6.15385 39.8361 5.64103 39.327 4.10256 39.327H1.02564C0.459195 39.327 0 38.8712 0 38.3089V31.6911C0 31.1288 0.459195 30.673 1.02564 30.673H4.10256C5.64103 30.673 6.15385 30.1639 6.15385 28.6367V6.10803Z" fill="#F3A44D"/>
</svg>
