<svg width="20" height="20" viewBox="0 0 20 20" fill="none" xmlns="http://www.w3.org/2000/svg">
<g id="Frame">
<path id="Vector" fill-rule="evenodd" clip-rule="evenodd" d="M14.8617 5.13833C13.9001 4.17693 12.6751 3.52224 11.3415 3.25704C10.0079 2.99183 8.62566 3.12803 7.36947 3.64841C6.11327 4.16879 5.0396 5.04998 4.2842 6.18054C3.5288 7.31111 3.12562 8.64029 3.12562 10C3.12562 11.3597 3.5288 12.6889 4.2842 13.8195C5.0396 14.95 6.11327 15.8312 7.36947 16.3516C8.62566 16.872 10.0079 17.0082 11.3415 16.743C12.6751 16.4778 13.9001 15.8231 14.8617 14.8617C14.9801 14.7513 15.1369 14.6912 15.2988 14.694C15.4607 14.6969 15.6152 14.7625 15.7297 14.877C15.8442 14.9915 15.9098 15.146 15.9126 15.3079C15.9155 15.4698 15.8554 15.6265 15.745 15.745C12.5725 18.9183 7.42833 18.9183 4.255 15.745C1.08167 12.5725 1.08167 7.42833 4.255 4.255C7.4275 1.08167 12.5717 1.08167 15.745 4.255C16.5005 5.00866 17.0997 5.90416 17.5081 6.89006C17.9166 7.87596 18.1262 8.93284 18.125 10C18.125 10.8125 17.8783 11.5725 17.4508 12.1425C17.0225 12.7133 16.3842 13.125 15.625 13.125C14.8717 13.125 14.2367 12.7192 13.8083 12.155C13.3565 12.9537 12.6649 13.5901 11.8315 13.9741C10.9981 14.3582 10.0651 14.4704 9.16434 14.2951C8.26362 14.1197 7.44085 13.6655 6.81242 12.9968C6.184 12.3281 5.78174 11.4788 5.66255 10.5689C5.54337 9.65907 5.7133 8.73476 6.14829 7.92678C6.58329 7.1188 7.26133 6.46805 8.08649 6.06659C8.91165 5.66514 9.84215 5.53331 10.7464 5.68975C11.6506 5.84619 12.4827 6.28298 13.125 6.93833V6.875C13.125 6.70924 13.1908 6.55027 13.3081 6.43306C13.4253 6.31585 13.5842 6.25 13.75 6.25C13.9158 6.25 14.0747 6.31585 14.1919 6.43306C14.3092 6.55027 14.375 6.70924 14.375 6.875V10C14.375 10.5683 14.5483 11.0583 14.7992 11.3925C15.0492 11.7267 15.3483 11.875 15.625 11.875C15.9017 11.875 16.2 11.7267 16.4508 11.3925C16.7008 11.0592 16.875 10.5675 16.875 10C16.8764 9.09694 16.6992 8.20253 16.3537 7.36818C16.0081 6.53384 15.5011 5.77603 14.8617 5.13833ZM13.125 10C13.125 9.1712 12.7958 8.37634 12.2097 7.79029C11.6237 7.20424 10.8288 6.875 10 6.875C9.1712 6.875 8.37634 7.20424 7.79029 7.79029C7.20424 8.37634 6.875 9.1712 6.875 10C6.875 10.8288 7.20424 11.6237 7.79029 12.2097C8.37634 12.7958 9.1712 13.125 10 13.125C10.8288 13.125 11.6237 12.7958 12.2097 12.2097C12.7958 11.6237 13.125 10.8288 13.125 10Z" fill="black"/>
</g>
</svg>
