<svg width="20" height="14" viewBox="0 0 20 14" fill="none" xmlns="http://www.w3.org/2000/svg">
<g id="Frame" clip-path="url(#clip0_3191_582)">
<g id="Group">
<g id="Group_2">
<path id="Vector" fill-rule="evenodd" clip-rule="evenodd" d="M12.7799 2.83584H18.0762V1.31845H12.7799V2.83584ZM14.0346 6.14675C13.6971 6.49014 13.4843 6.95533 13.3973 7.54234H17.5165C17.473 6.91589 17.259 6.44257 16.8803 6.11659C16.497 5.79292 16.0254 5.63167 15.461 5.63167C14.8495 5.63167 14.3721 5.80337 14.0346 6.14675ZM17.6094 4.10963C18.2479 4.39037 18.7736 4.83585 19.1875 5.44374C19.565 5.9797 19.8072 6.60151 19.9177 7.308C19.9824 7.721 20.0083 8.3196 19.9977 9.09803H13.3385C13.3785 10.0017 13.6936 10.6363 14.2957 10.9994C14.6602 11.2256 15.0988 11.3393 15.6139 11.3393C16.156 11.3393 16.5993 11.2013 16.9391 10.9263C17.1261 10.7767 17.2907 10.5702 17.4318 10.3057H19.8719C19.8072 10.8393 19.5109 11.3834 18.9864 11.9356C18.168 12.8115 17.0214 13.25 15.548 13.25C14.3309 13.25 13.2573 12.8811 12.3295 12.141C11.397 11.402 10.9337 10.1978 10.9337 8.5319C10.9337 6.96925 11.3535 5.77088 12.1919 4.93678C13.0327 4.10499 14.1205 3.6862 15.4598 3.6862C16.2559 3.6862 16.9721 3.82773 17.6094 4.10963ZM2.46356 7.57482V10.8266H5.4645C6.00072 10.8266 6.41936 10.7546 6.71687 10.6119C7.25897 10.3451 7.52942 9.83933 7.52942 9.08991C7.52942 8.45418 7.26837 8.01914 6.74273 7.78132C6.44875 7.64907 6.03601 7.57946 5.50685 7.57482H2.46356ZM2.46356 2.86717V5.55743H5.46921C6.00425 5.55743 6.44052 5.4565 6.77683 5.25464C7.1108 5.05279 7.27895 4.69547 7.27895 4.18503C7.27895 3.61543 7.05787 3.24072 6.61573 3.05743C6.23238 2.93098 5.74555 2.86717 5.15406 2.86717H2.46356ZM9.17569 2.0493C9.55317 2.56787 9.74251 3.18736 9.74251 3.9101C9.74251 4.65371 9.55319 5.25348 9.17101 5.70591C8.957 5.95881 8.64302 6.19083 8.22792 6.39965C8.85821 6.62703 9.33327 6.9855 9.65665 7.47622C9.9765 7.96578 10.1376 8.56207 10.1376 9.26276C10.1376 9.9855 9.95417 10.634 9.58611 11.2071C9.35327 11.5864 9.06164 11.9066 8.71122 12.1665C8.31728 12.4646 7.85279 12.6676 7.31539 12.779C6.778 12.8892 6.19709 12.9426 5.56915 12.9426H0V0.75H5.97249C7.48002 0.772042 8.54658 1.20476 9.17569 2.0493Z" fill="#F3A44D"/>
</g>
</g>
</g>
<defs>
<clipPath id="clip0_3191_582">
<rect width="20" height="12.5" fill="white" transform="translate(0 0.75)"/>
</clipPath>
</defs>
</svg>
