<svg width="255" height="45" viewBox="0 0 255 45" fill="none" xmlns="http://www.w3.org/2000/svg">
<g id="Group 151">
<g id="CoderLabs">
<path d="M18.1738 21.1059C18.1738 18.3835 18.7741 15.9414 19.9746 13.7795C21.1751 11.5909 22.8063 9.88279 24.8681 8.65506C26.9559 7.42732 29.2656 6.81345 31.7972 6.81345C34.7724 6.81345 37.3692 7.54743 39.5876 9.01537C41.8059 10.4833 43.424 12.5651 44.4419 15.2608H40.1748C39.4179 13.5793 38.3218 12.2849 36.8864 11.3774C35.4771 10.47 33.7807 10.0162 31.7972 10.0162C29.892 10.0162 28.1826 10.47 26.6689 11.3774C25.1551 12.2849 23.9677 13.5793 23.1064 15.2608C22.2452 16.9156 21.8146 18.8639 21.8146 21.1059C21.8146 23.3211 22.2452 25.2695 23.1064 26.951C23.9677 28.6057 25.1551 29.8869 26.6689 30.7943C28.1826 31.7018 29.892 32.1555 31.7972 32.1555C33.7807 32.1555 35.4771 31.7151 36.8864 30.8343C38.3218 29.9269 39.4179 28.6324 40.1748 26.951H44.4419C43.424 29.62 41.8059 31.6884 39.5876 33.1564C37.3692 34.5976 34.7724 35.3183 31.7972 35.3183C29.2656 35.3183 26.9559 34.7177 24.8681 33.5167C22.8063 32.2889 21.1751 30.5941 19.9746 28.4323C18.7741 26.2704 18.1738 23.8283 18.1738 21.1059Z" fill="white"/>
<path d="M59.1011 35.4384C57.0915 35.4384 55.2646 34.9713 53.6204 34.0371C52.0023 33.103 50.7235 31.7818 49.784 30.0737C48.8705 28.3388 48.4138 26.3371 48.4138 24.0685C48.4138 21.8265 48.8836 19.8515 49.8231 18.1433C50.7888 16.4085 52.0937 15.0873 53.7379 14.1799C55.3821 13.2457 57.222 12.7786 59.2577 12.7786C61.2934 12.7786 63.1333 13.2457 64.7775 14.1799C66.4217 15.0873 67.7136 16.3951 68.6531 18.1033C69.6187 19.8114 70.1016 21.7998 70.1016 24.0685C70.1016 26.3371 69.6057 28.3388 68.614 30.0737C67.6483 31.7818 66.3304 33.103 64.6601 34.0371C62.9898 34.9713 61.1368 35.4384 59.1011 35.4384ZM59.1011 32.2356C60.3799 32.2356 61.5804 31.9286 62.7027 31.3148C63.8249 30.7009 64.7253 29.7801 65.4039 28.5524C66.1085 27.3246 66.4608 25.83 66.4608 24.0685C66.4608 22.3069 66.1216 20.8123 65.443 19.5846C64.7644 18.3568 63.8771 17.4494 62.781 16.8622C61.6848 16.2483 60.4974 15.9414 59.2185 15.9414C57.9136 15.9414 56.7131 16.2483 55.617 16.8622C54.5469 17.4494 53.6857 18.3568 53.0332 19.5846C52.3808 20.8123 52.0545 22.3069 52.0545 24.0685C52.0545 25.8567 52.3677 27.3647 52.9941 28.5924C53.6465 29.8201 54.5078 30.7409 55.5778 31.3548C56.6479 31.942 57.8223 32.2356 59.1011 32.2356Z" fill="white"/>
<path d="M73.4545 24.0284C73.4545 21.7865 73.8982 19.8248 74.7855 18.1433C75.6729 16.4352 76.8864 15.114 78.4262 14.1799C79.9921 13.2457 81.7407 12.7786 83.672 12.7786C85.3423 12.7786 86.8952 13.179 88.3306 13.9797C89.766 14.7537 90.8621 15.7813 91.619 17.0624V5.45227H95.2206V35.078H91.619V30.9545C90.9143 32.2623 89.8704 33.3432 88.4872 34.1973C87.104 35.0247 85.4859 35.4384 83.6329 35.4384C81.7277 35.4384 79.9921 34.9579 78.4262 33.9971C76.8864 33.0363 75.6729 31.6884 74.7855 29.9536C73.8982 28.2187 73.4545 26.2437 73.4545 24.0284ZM91.619 24.0685C91.619 22.4137 91.2927 20.9724 90.6403 19.7447C89.9878 18.517 89.1005 17.5828 87.9783 16.9423C86.8821 16.275 85.6685 15.9414 84.3375 15.9414C83.0065 15.9414 81.7929 16.2617 80.6968 16.9022C79.6007 17.5428 78.7264 18.4769 78.0739 19.7047C77.4215 20.9324 77.0952 22.3737 77.0952 24.0284C77.0952 25.7099 77.4215 27.1778 78.0739 28.4323C78.7264 29.66 79.6007 30.6075 80.6968 31.2747C81.7929 31.9153 83.0065 32.2356 84.3375 32.2356C85.6685 32.2356 86.8821 31.9153 87.9783 31.2747C89.1005 30.6075 89.9878 29.66 90.6403 28.4323C91.2927 27.1778 91.619 25.7232 91.619 24.0685Z" fill="white"/>
<path d="M120.815 23.2678C120.815 23.9617 120.775 24.6957 120.697 25.4697H103.55C103.681 27.6316 104.399 29.3264 105.704 30.5541C107.035 31.7552 108.64 32.3557 110.519 32.3557C112.058 32.3557 113.337 31.9954 114.355 31.2747C115.399 30.5274 116.13 29.5399 116.547 28.3122H120.384C119.81 30.4207 118.661 32.1422 116.939 33.4766C115.216 34.7845 113.076 35.4384 110.519 35.4384C108.483 35.4384 106.656 34.9713 105.038 34.0371C103.446 33.103 102.193 31.7818 101.28 30.0737C100.366 28.3388 99.9097 26.3371 99.9097 24.0685C99.9097 21.7998 100.353 19.8114 101.241 18.1033C102.128 16.3951 103.368 15.0873 104.96 14.1799C106.578 13.2457 108.431 12.7786 110.519 12.7786C112.554 12.7786 114.355 13.2324 115.921 14.1398C117.487 15.0473 118.687 16.3017 119.523 17.9031C120.384 19.4778 120.815 21.266 120.815 23.2678ZM117.135 22.5071C117.135 21.1192 116.834 19.9315 116.234 18.944C115.634 17.9298 114.812 17.1691 113.768 16.662C112.75 16.1282 111.615 15.8613 110.362 15.8613C108.561 15.8613 107.022 16.4485 105.743 17.6229C104.49 18.7972 103.772 20.4253 103.59 22.5071H117.135Z" fill="white"/>
<path d="M129.079 16.7021C129.706 15.4476 130.593 14.4735 131.741 13.7795C132.916 13.0856 134.338 12.7386 136.008 12.7386V16.5019H135.069C131.076 16.5019 129.079 18.7171 129.079 23.1477V35.078H125.517V13.139H129.079V16.7021Z" fill="white"/>
<path d="M145.132 29.8735H153.901L153 35.078H137.537L142.391 6.97359H149.085L145.132 29.8735Z" fill="white"/>
<path d="M156.82 23.8683C157.211 21.573 157.981 19.5579 159.129 17.823C160.278 16.0882 161.661 14.7537 163.279 13.8195C164.897 12.8854 166.606 12.4183 168.407 12.4183C169.947 12.4183 171.239 12.7386 172.283 13.3792C173.327 14.0197 174.084 14.8605 174.553 15.9014L175.102 12.7386H181.796L177.92 35.078H171.226L171.813 31.9153C170.978 32.9562 169.921 33.7969 168.642 34.4375C167.363 35.078 165.954 35.3983 164.414 35.3983C162.874 35.3983 161.504 35.038 160.304 34.3174C159.129 33.5968 158.216 32.5825 157.563 31.2747C156.911 29.9402 156.585 28.3789 156.585 26.5907C156.585 25.7366 156.663 24.8291 156.82 23.8683ZM173.183 23.9083C173.262 23.4279 173.301 22.9875 173.301 22.5872C173.301 21.2794 172.922 20.2518 172.165 19.5045C171.435 18.7572 170.495 18.3835 169.347 18.3835C168.016 18.3835 166.802 18.8773 165.706 19.8648C164.61 20.8256 163.918 22.1601 163.631 23.8683C163.553 24.3487 163.514 24.7891 163.514 25.1894C163.514 26.4972 163.879 27.5381 164.61 28.3122C165.367 29.0595 166.306 29.4331 167.429 29.4331C168.76 29.4331 169.973 28.9394 171.069 27.9518C172.165 26.9643 172.87 25.6165 173.183 23.9083Z" fill="white"/>
<path d="M192.746 15.9014C193.581 14.8605 194.638 14.0197 195.917 13.3792C197.196 12.7386 198.592 12.4183 200.105 12.4183C202.454 12.4183 204.346 13.2057 205.782 14.7804C207.243 16.3284 207.974 18.4502 207.974 21.1459C207.974 22 207.896 22.9075 207.739 23.8683C207.348 26.1636 206.578 28.1921 205.43 29.9536C204.281 31.6884 202.898 33.0363 201.28 33.9971C199.662 34.9312 197.952 35.3983 196.152 35.3983C194.612 35.3983 193.32 35.0914 192.276 34.4775C191.232 33.837 190.475 32.9962 190.005 31.9553L189.457 35.078H182.763L187.891 5.45227H194.586L192.746 15.9014ZM200.967 23.8683C201.045 23.4146 201.084 23.0009 201.084 22.6272C201.084 21.2927 200.706 20.2518 199.949 19.5045C199.218 18.7572 198.279 18.3835 197.13 18.3835C195.799 18.3835 194.586 18.8773 193.49 19.8648C192.393 20.8523 191.689 22.2002 191.376 23.9083C191.297 24.3887 191.258 24.8291 191.258 25.2295C191.258 26.5373 191.624 27.5648 192.354 28.3122C193.085 29.0595 194.025 29.4331 195.173 29.4331C196.504 29.4331 197.717 28.9394 198.814 27.9518C199.936 26.9376 200.654 25.5764 200.967 23.8683Z" fill="white"/>
<path d="M218.415 35.3983C216.693 35.3983 215.14 35.1181 213.757 34.5576C212.4 33.9971 211.33 33.2231 210.547 32.2356C209.764 31.2214 209.372 30.0603 209.372 28.7525C209.372 28.5657 209.398 28.2321 209.45 27.7517H215.91C215.858 28.5791 216.092 29.2463 216.614 29.7534C217.163 30.2338 217.932 30.474 218.924 30.474C219.759 30.474 220.451 30.3139 220.999 29.9936C221.547 29.6733 221.821 29.2196 221.821 28.6324C221.821 28.072 221.521 27.6316 220.921 27.3113C220.347 26.9643 219.381 26.5506 218.024 26.0702C216.614 25.5898 215.427 25.1227 214.461 24.669C213.522 24.1886 212.713 23.508 212.034 22.6272C211.356 21.7464 211.016 20.6388 211.016 19.3043C211.016 17.9965 211.395 16.8222 212.152 15.7813C212.908 14.7137 213.965 13.8863 215.323 13.2991C216.706 12.7119 218.298 12.4183 220.099 12.4183C221.899 12.4183 223.465 12.7253 224.796 13.3391C226.127 13.9263 227.158 14.7537 227.889 15.8213C228.62 16.8889 228.985 18.0899 228.985 19.4244L228.946 20.0249H222.878C222.93 19.2243 222.695 18.5837 222.173 18.1033C221.651 17.6229 220.908 17.3826 219.942 17.3826C219.185 17.3826 218.559 17.5428 218.063 17.8631C217.593 18.1833 217.358 18.6237 217.358 19.1842C217.358 19.7714 217.671 20.2652 218.298 20.6655C218.95 21.0392 219.955 21.4662 221.312 21.9466C222.721 22.427 223.883 22.9075 224.796 23.3879C225.736 23.8416 226.532 24.4955 227.184 25.3496C227.863 26.177 228.202 27.2179 228.202 28.4723C228.202 29.9135 227.772 31.1546 226.91 32.1955C226.075 33.2364 224.914 34.0371 223.426 34.5976C221.965 35.1314 220.294 35.3983 218.415 35.3983Z" fill="white"/>
</g>
<path id="Compact logo" d="M3.63468 3.88512C3.63468 1.61854 5.14913 0 7.26935 0H11.2069C11.5415 0 11.8127 0.289938 11.8127 0.647596V2.91373C11.8127 3.27139 11.5415 3.56132 11.2069 3.56132H8.48091C7.57224 3.56132 7.26935 3.88512 7.26935 4.85652V18.2149C7.26935 20.3719 5.89778 21.7958 3.9378 21.9285C3.77085 21.9398 3.63468 22.0836 3.63468 22.2624C3.63468 22.4412 3.77085 22.585 3.9378 22.5963C5.89778 22.729 7.26935 24.1528 7.26935 26.3099V39.6683C7.26935 40.6397 7.46764 40.9635 8.48091 40.9635H11.2069C11.5415 40.9635 11.8127 41.2534 11.8127 41.6111V43.8772C11.8127 44.2349 11.5415 44.5248 11.2069 44.5248H7.26935C5.14913 44.5252 3.63468 42.9062 3.63468 40.6094V26.3099C3.63468 25.3385 3.33179 25.0147 2.42312 25.0147H0.60578C0.271217 25.0147 0 24.7247 0 24.3671V20.1577C0 19.8 0.271217 19.5101 0.60578 19.5101H2.42312C3.33179 19.5101 3.63468 19.1863 3.63468 18.2149V3.88512Z" fill="#F3A44D"/>
<path id="Rectangle 260" d="M234.438 32.5305C234.438 32.129 234.752 31.8035 235.139 31.8035H253.727C254.114 31.8035 254.428 32.129 254.428 32.5305V34.7113C254.428 35.1127 254.114 35.4382 253.727 35.4382H235.139C234.752 35.4382 234.438 35.1127 234.438 34.7113V32.5305Z" fill="#F3A44D"/>
</g>
</svg>
