<svg width="20" height="12" viewBox="0 0 20 12" fill="none" xmlns="http://www.w3.org/2000/svg">
<g id="medium-4 2" clip-path="url(#clip0_3191_575)">
<path id="Vector" d="M5.64062 0.320679C8.75602 0.320679 11.2812 2.86357 11.2812 6.00005C11.2812 9.13662 8.75578 11.6793 5.64062 11.6793C2.52562 11.6793 0 9.13662 0 6.00005C0 2.86365 2.52539 0.320679 5.64062 0.320679ZM14.6484 0.653335C16.2061 0.653335 17.4688 3.04693 17.4688 6.00005H17.4691C17.4691 8.95248 16.2063 11.3468 14.6488 11.3468C13.0912 11.3468 11.8284 8.95248 11.8284 6.00005C11.8284 3.04771 13.0909 0.653335 14.6485 0.653335H14.6484ZM19.008 1.21029C19.5558 1.21029 20 3.35474 20 6.00013C20 8.64466 19.5559 10.79 19.008 10.79C18.4602 10.79 18.0163 8.64529 18.0163 6.00013C18.0163 3.3549 18.4604 1.21029 19.008 1.21029Z" fill="#F3A44D"/>
</g>
<defs>
<clipPath id="clip0_3191_575">
<rect width="20" height="11.408" fill="white" transform="translate(0 0.29599)"/>
</clipPath>
</defs>
</svg>
