<svg width="21" height="12" viewBox="0 0 21 12" fill="none" xmlns="http://www.w3.org/2000/svg">
<path d="M6.14062 0.32074C9.25602 0.32074 11.7812 2.86363 11.7812 6.00011C11.7812 9.13668 9.25578 11.6793 6.14062 11.6793C3.02562 11.6793 0.5 9.13668 0.5 6.00011C0.5 2.86371 3.02539 0.32074 6.14062 0.32074ZM15.1484 0.653396C16.7061 0.653396 17.9688 3.04699 17.9688 6.00011H17.9691C17.9691 8.95254 16.7063 11.3468 15.1488 11.3468C13.5912 11.3468 12.3284 8.95254 12.3284 6.00011C12.3284 3.04777 13.5909 0.653396 15.1485 0.653396H15.1484ZM19.508 1.21035C20.0558 1.21035 20.5 3.3548 20.5 6.00019C20.5 8.64472 20.0559 10.79 19.508 10.79C18.9602 10.79 18.5163 8.64535 18.5163 6.00019C18.5163 3.35496 18.9604 1.21035 19.508 1.21035Z" fill="#232323"/>
</svg>
