<svg width="16" height="16" viewBox="0 0 16 16" fill="none" xmlns="http://www.w3.org/2000/svg">
<g id="Frame">
<path id="Vector" fill-rule="evenodd" clip-rule="evenodd" d="M3.232 1.84733C4.81075 1.6156 6.40433 1.49951 8 1.5C9.62 1.5 11.2113 1.61867 12.768 1.84667C14.0867 2.04133 15 3.196 15 4.49333V8.50667C15 9.804 14.0867 10.9587 12.768 11.1533C11.9988 11.266 11.2259 11.3512 10.4507 11.4087C10.4112 11.4113 10.3729 11.4228 10.3386 11.4425C10.3043 11.4621 10.2749 11.4893 10.2527 11.522L8.416 14.2773C8.37034 14.3458 8.30848 14.402 8.23591 14.4408C8.16334 14.4796 8.08231 14.4999 8 14.4999C7.91769 14.4999 7.83666 14.4796 7.76409 14.4408C7.69152 14.402 7.62966 14.3458 7.584 14.2773L5.74733 11.522C5.72512 11.4893 5.69574 11.4621 5.66143 11.4425C5.62712 11.4228 5.58878 11.4113 5.54933 11.4087C4.77408 11.351 4.00115 11.2656 3.232 11.1527C1.91333 10.9593 1 9.80334 1 8.506V4.494C1 3.19667 1.91333 2.04067 3.232 1.84733ZM4.5 5.5C4.5 5.36739 4.55268 5.24022 4.64645 5.14645C4.74021 5.05268 4.86739 5 5 5H11C11.1326 5 11.2598 5.05268 11.3536 5.14645C11.4473 5.24022 11.5 5.36739 11.5 5.5C11.5 5.63261 11.4473 5.75979 11.3536 5.85355C11.2598 5.94732 11.1326 6 11 6H5C4.86739 6 4.74021 5.94732 4.64645 5.85355C4.55268 5.75979 4.5 5.63261 4.5 5.5ZM5 7C4.86739 7 4.74021 7.05268 4.64645 7.14645C4.55268 7.24022 4.5 7.36739 4.5 7.5C4.5 7.63261 4.55268 7.75979 4.64645 7.85355C4.74021 7.94732 4.86739 8 5 8H8C8.13261 8 8.25979 7.94732 8.35355 7.85355C8.44732 7.75979 8.5 7.63261 8.5 7.5C8.5 7.36739 8.44732 7.24022 8.35355 7.14645C8.25979 7.05268 8.13261 7 8 7H5Z" fill="#F3A44D"/>
</g>
</svg>
