<svg width="14" height="14" viewBox="0 0 14 14" fill="none" xmlns="http://www.w3.org/2000/svg">
<g id="Frame" clip-path="url(#clip0_3191_633)">
<path id="Vector" d="M10.0829 6.52525C10.0269 6.49841 9.97004 6.47258 9.91242 6.44785C9.81208 4.59894 8.8018 3.54044 7.10543 3.52961C7.09774 3.52956 7.0901 3.52956 7.08241 3.52956C6.06776 3.52956 5.2239 3.96267 4.7045 4.75078L5.63745 5.39076C6.02546 4.80207 6.6344 4.67658 7.08286 4.67658C7.08804 4.67658 7.09324 4.67658 7.09837 4.67662C7.65692 4.68018 8.0784 4.84258 8.3512 5.15928C8.54972 5.38985 8.6825 5.70846 8.74824 6.11057C8.25302 6.0264 7.71745 6.00052 7.14491 6.03335C5.53208 6.12625 4.49522 7.06689 4.56486 8.37394C4.60019 9.03694 4.93049 9.60731 5.49486 9.97991C5.97202 10.2949 6.58659 10.4489 7.2253 10.4141C8.06879 10.3678 8.7305 10.046 9.19214 9.45754C9.54273 9.01067 9.76448 8.43156 9.86238 7.70186C10.2644 7.94446 10.5623 8.26371 10.7268 8.64748C11.0066 9.29985 11.0229 10.3719 10.1482 11.2459C9.38179 12.0115 8.46055 12.3427 7.0683 12.353C5.52392 12.3415 4.35592 11.8462 3.59652 10.8808C2.88541 9.97686 2.5179 8.67118 2.50419 7C2.5179 5.32881 2.88541 4.02311 3.59652 3.11914C4.35592 2.15377 5.5239 1.65849 7.06828 1.64701C8.62386 1.65858 9.81221 2.15624 10.6007 3.12627C10.9873 3.60196 11.2788 4.20018 11.4709 4.89768L12.5642 4.60598C12.3313 3.74744 11.9648 3.00763 11.4661 2.39407C10.4552 1.15045 8.97689 0.513213 7.07209 0.5H7.06447C5.16353 0.513167 3.70174 1.15283 2.71972 2.4012C1.84584 3.5121 1.39508 5.05783 1.37993 6.99543L1.37988 7L1.37993 7.00457C1.39508 8.94215 1.84584 10.4879 2.71972 11.5988C3.70174 12.8472 5.16353 13.4869 7.06447 13.5H7.07209C8.76212 13.4883 9.95338 13.0458 10.9347 12.0653C12.2187 10.7826 12.18 9.17472 11.7569 8.18767C11.4533 7.47985 10.8744 6.90495 10.0829 6.52525ZM7.16492 9.2687C6.45804 9.30852 5.72367 8.99123 5.68746 8.31165C5.66062 7.80776 6.04606 7.24551 7.2083 7.17853C7.3414 7.17086 7.47201 7.1671 7.60032 7.1671C8.02248 7.1671 8.41742 7.20812 8.77648 7.28661C8.64255 8.95914 7.857 9.23072 7.16492 9.2687Z" fill="white"/>
</g>
<defs>
<clipPath id="clip0_3191_633">
<rect width="13" height="13" fill="white" transform="translate(0.5 0.5)"/>
</clipPath>
</defs>
</svg>
