<svg width="16" height="16" viewBox="0 0 16 16" fill="none" xmlns="http://www.w3.org/2000/svg">
<g id="logo-tiktok-svgrepo-com 1">
<path id="Vector" d="M12.8812 3.70813C12.78 3.6558 12.6814 3.59843 12.5859 3.53625C12.3082 3.35264 12.0536 3.1363 11.8275 2.89188C11.2619 2.24469 11.0506 1.58812 10.9728 1.12844H10.9759C10.9109 0.746875 10.9378 0.5 10.9419 0.5H8.36562V10.4619C8.36562 10.5956 8.36562 10.7278 8.36 10.8584C8.36 10.8747 8.35843 10.8897 8.3575 10.9072C8.3575 10.9144 8.3575 10.9219 8.35593 10.9294C8.35593 10.9312 8.35593 10.9331 8.35593 10.935C8.32878 11.2924 8.2142 11.6377 8.02228 11.9405C7.83036 12.2432 7.56698 12.4942 7.25531 12.6713C6.93048 12.856 6.56309 12.953 6.18937 12.9525C4.98906 12.9525 4.01625 11.9738 4.01625 10.765C4.01625 9.55625 4.98906 8.5775 6.18937 8.5775C6.41658 8.57729 6.6424 8.61304 6.85843 8.68344L6.86156 6.06031C6.20573 5.9756 5.53947 6.02772 4.9048 6.21339C4.27013 6.39906 3.68082 6.71424 3.17406 7.13906C2.73002 7.52488 2.35671 7.98522 2.07093 8.49938C1.96218 8.68688 1.55187 9.44031 1.50218 10.6631C1.47093 11.3572 1.67937 12.0763 1.77875 12.3734V12.3797C1.84125 12.5547 2.08343 13.1519 2.47812 13.6553C2.79638 14.0591 3.1724 14.4139 3.59406 14.7081V14.7019L3.60031 14.7081C4.8475 15.5556 6.23031 15.5 6.23031 15.5C6.46968 15.4903 7.27156 15.5 8.18218 15.0684C9.19218 14.59 9.76718 13.8772 9.76718 13.8772C10.1345 13.4513 10.4266 12.9659 10.6309 12.4419C10.8641 11.8291 10.9419 11.0941 10.9419 10.8003V5.51531C10.9731 5.53406 11.3894 5.80937 11.3894 5.80937C11.3894 5.80937 11.9891 6.19375 12.9247 6.44406C13.5959 6.62219 14.5003 6.65969 14.5003 6.65969V4.10219C14.1834 4.13656 13.54 4.03656 12.8812 3.70813Z" fill="#F3A44D"/>
</g>
</svg>
