<svg width="16" height="14" viewBox="0 0 16 14" fill="none" xmlns="http://www.w3.org/2000/svg">
<path d="M15.5 2.34912C14.9482 2.59326 14.355 2.75928 13.7324 2.83252C14.3672 2.45166 14.8555 1.84863 15.085 1.13086C14.4917 1.48242 13.8325 1.73877 13.1318 1.87793C12.5703 1.27978 11.7695 0.903809 10.8857 0.903809C9.18652 0.903809 7.80713 2.2832 7.80713 3.98242C7.80713 4.22412 7.83398 4.4585 7.8877 4.68311C5.3291 4.55615 3.06103 3.33057 1.54492 1.46777C1.27881 1.92187 1.12744 2.45166 1.12744 3.01562C1.12744 4.08252 1.66943 5.0249 2.49707 5.57666C1.9917 5.55957 1.51807 5.42285 1.10303 5.19092C1.10303 5.20557 1.10303 5.21777 1.10303 5.22998C1.10303 6.72168 2.1626 7.9668 3.57129 8.24756C3.3125 8.31836 3.0415 8.35742 2.76074 8.35742C2.56299 8.35742 2.36768 8.33789 2.18213 8.30127C2.57275 9.52441 3.71045 10.4131 5.05566 10.4399C4.00342 11.2651 2.67529 11.7559 1.23486 11.7559C0.98584 11.7559 0.741699 11.7412 0.5 11.7119C1.8623 12.5859 3.47852 13.0962 5.2168 13.0962C10.8784 13.0962 13.9741 8.40625 13.9741 4.33887C13.9741 4.20703 13.9692 4.07275 13.9644 3.94092C14.5649 3.50635 15.0874 2.96436 15.5 2.34912Z" fill="white"/>
</svg>
