<svg width="18" height="18" viewBox="0 0 18 18" fill="none" xmlns="http://www.w3.org/2000/svg">
<path d="M9 16.5C12.4938 16.5 15.4296 14.111 16.2631 10.8775M9 16.5C5.50619 16.5 2.57035 14.111 1.73692 10.8775M9 16.5C11.0711 16.5 12.75 13.1421 12.75 9C12.75 4.85786 11.0711 1.5 9 1.5M9 16.5C6.92893 16.5 5.25 13.1421 5.25 9C5.25 4.85786 6.92893 1.5 9 1.5M9 1.5C11.8043 1.5 14.2492 3.03912 15.5359 5.31871M9 1.5C6.19567 1.5 3.75083 3.03912 2.4641 5.31871M15.5359 5.31871C13.7831 6.83366 11.4986 7.75 9 7.75C6.50143 7.75 4.21689 6.83366 2.4641 5.31871M15.5359 5.31871C16.1497 6.40619 16.5 7.66219 16.5 9C16.5 9.64832 16.4177 10.2774 16.2631 10.8775M16.2631 10.8775C14.1111 12.0706 11.6349 12.75 9 12.75C6.36509 12.75 3.88885 12.0706 1.73692 10.8775M1.73692 10.8775C1.58226 10.2774 1.5 9.64832 1.5 9C1.5 7.66219 1.85027 6.40619 2.4641 5.31871" stroke="#0F172A" stroke-width="1.5" stroke-linecap="round" stroke-linejoin="round"/>
</svg>
