<svg width="15" height="16" viewBox="0 0 15 16" fill="none" xmlns="http://www.w3.org/2000/svg">
<path fill-rule="evenodd" clip-rule="evenodd" d="M7.49783 0.5C3.36321 0.5 0 3.86415 0 7.99993C0 9.64014 0.528951 11.1613 1.42813 12.3959L0.493622 15.1824L3.37639 14.2611C4.56206 15.0459 5.97701 15.5 7.50217 15.5C11.6368 15.5 15 12.1357 15 8.00007C15 3.86428 11.6368 0.500124 7.50217 0.500124L7.49783 0.5ZM5.40401 4.30963C5.25859 3.96133 5.14837 3.94815 4.92805 3.93919C4.85304 3.93483 4.76944 3.93048 4.67676 3.93048C4.39014 3.93048 4.09046 4.01423 3.9097 4.19939C3.68939 4.42425 3.14276 4.94887 3.14276 6.02475C3.14276 7.10063 3.92737 8.14117 4.03311 8.28676C4.14333 8.4321 5.56274 10.672 7.76665 11.5848C9.49011 12.2991 10.0015 12.2329 10.3938 12.1492C10.9668 12.0257 11.6853 11.6023 11.8661 11.091C12.0468 10.5794 12.0468 10.1429 11.9938 10.0503C11.941 9.9577 11.7954 9.90494 11.5751 9.79457C11.3548 9.68432 10.2836 9.15521 10.0808 9.08465C9.88236 9.00974 9.69289 9.03624 9.54311 9.24791C9.33151 9.54332 9.12438 9.84322 8.95681 10.0239C8.82457 10.165 8.60848 10.1827 8.42785 10.1076C8.18539 10.0064 7.50666 9.76806 6.66906 9.02293C6.02105 8.44542 5.5803 7.7268 5.45254 7.51077C5.32465 7.2904 5.43934 7.16235 5.5406 7.04339C5.65082 6.90663 5.75657 6.8097 5.86679 6.68177C5.97701 6.55398 6.03872 6.48778 6.10926 6.33783C6.18427 6.19237 6.13127 6.04242 6.0784 5.93217C6.02553 5.82192 5.58477 4.74603 5.40401 4.30963Z" fill="#232323"/>
</svg>
