<svg width="14" height="10" viewBox="0 0 14 10" fill="none" xmlns="http://www.w3.org/2000/svg">
<path id="Vector" d="M7.29078 9.52038L4.59804 9.47121C3.72619 9.45408 2.85217 9.48828 1.99741 9.31077C0.697131 9.04557 0.605014 7.7452 0.508624 6.65444C0.375809 5.12097 0.427226 3.55967 0.677866 2.03899C0.819361 1.18574 1.3762 0.676595 2.23733 0.62119C5.14429 0.420119 8.07058 0.443948 10.9711 0.537755C11.2774 0.546355 11.5859 0.593356 11.8879 0.646857C13.3789 0.907797 13.4153 2.3814 13.5119 3.6219C13.6083 4.8752 13.5676 6.13493 13.3834 7.37969C13.2356 8.41032 12.9528 9.2746 11.7594 9.35804C10.2641 9.46714 8.8031 9.55498 7.3036 9.52701C7.30366 9.52038 7.29505 9.52038 7.29078 9.52038ZM5.7077 6.91112C6.83453 6.26517 7.93987 5.62998 9.06025 4.98837C7.93132 4.34242 6.82809 3.70724 5.7077 3.06562V6.91112Z" fill="white"/>
</svg>
